<svg xmlns="http://www.w3.org/2000/svg" width="24" height="24" viewBox="0 0 24 24">
  <g id="Group_340" data-name="Group 340" transform="translate(0 0)">
    <path id="Path_417" data-name="Path 417" d="M279,281.078a1.877,1.877,0,0,0,1.875,1.875h2.2a1.877,1.877,0,0,0,1.875-1.875v-2.2A1.877,1.877,0,0,0,283.078,277h-2.2A1.877,1.877,0,0,0,279,278.875Zm1.875-2.2h2.2v2.2h-2.2Z" transform="translate(-265.922 -264.016)" fill="#c7c7c7"/>
    <circle id="Ellipse_265" data-name="Ellipse 265" cx="0.938" cy="0.938" r="0.938" transform="translate(17.156 8.906)" fill="#c7c7c7"/>
    <circle id="Ellipse_266" data-name="Ellipse 266" cx="0.938" cy="0.938" r="0.938" transform="translate(13.078 8.906)" fill="#c7c7c7"/>
    <path id="Path_418" data-name="Path 418" d="M23.063,16.5A.937.937,0,0,0,24,15.563V5.625a3.754,3.754,0,0,0-3.75-3.75H19.031V.938a.938.938,0,1,0-1.875,0v.938H12.891V.938a.938.938,0,0,0-1.875,0v.938H6.8V.938a.938.938,0,1,0-1.875,0v.938H3.75A3.754,3.754,0,0,0,0,5.625V20.25A3.754,3.754,0,0,0,3.75,24h16.5A3.754,3.754,0,0,0,24,20.25a.937.937,0,1,0-1.875,0,1.877,1.877,0,0,1-1.875,1.875H3.75A1.877,1.877,0,0,1,1.875,20.25V5.625A1.877,1.877,0,0,1,3.75,3.75H4.922v.938a.938.938,0,0,0,1.875,0V3.75h4.219v.938a.938.938,0,0,0,1.875,0V3.75h4.266v.938a.938.938,0,0,0,1.875,0V3.75H20.25a1.877,1.877,0,0,1,1.875,1.875v9.938A.937.937,0,0,0,23.063,16.5Z" fill="#c7c7c7"/>
    <circle id="Ellipse_267" data-name="Ellipse 267" cx="0.938" cy="0.938" r="0.938" transform="translate(4.922 17.063)" fill="#c7c7c7"/>
    <circle id="Ellipse_268" data-name="Ellipse 268" cx="0.938" cy="0.938" r="0.938" transform="translate(4.922 8.906)" fill="#c7c7c7"/>
    <circle id="Ellipse_269" data-name="Ellipse 269" cx="0.938" cy="0.938" r="0.938" transform="translate(4.922 12.984)" fill="#c7c7c7"/>
    <circle id="Ellipse_270" data-name="Ellipse 270" cx="0.938" cy="0.938" r="0.938" transform="translate(9 12.984)" fill="#c7c7c7"/>
    <circle id="Ellipse_271" data-name="Ellipse 271" cx="0.938" cy="0.938" r="0.938" transform="translate(9 8.906)" fill="#c7c7c7"/>
    <circle id="Ellipse_272" data-name="Ellipse 272" cx="0.938" cy="0.938" r="0.938" transform="translate(9 17.063)" fill="#c7c7c7"/>
  </g>
</svg>
