<svg xmlns="http://www.w3.org/2000/svg" width="24.252" height="27.019" viewBox="0 0 24.252 27.019">
  <g id="_026-dentist-1" data-name="026-dentist-1" transform="translate(0.115 0.125)">
    <path id="Path_1982" data-name="Path 1982" d="M7.955,15.868a.67.67,0,0,0-.509.462l-.116.378c-2.046.717-4.569,1.727-5.451,2.609C.746,20.45.225,23.855.016,25.783a.892.892,0,0,0,.886.986H23.118a.892.892,0,0,0,.887-.987c-.21-1.929-.73-5.333-1.864-6.467-.882-.882-3.4-1.892-5.451-2.609l-.116-.378a.653.653,0,0,0-.773-.455c-.042-.131-.081-.255-.113-.364a4.347,4.347,0,0,0,1.212-2,6.608,6.608,0,0,0,.213-1.469,1.331,1.331,0,0,0,1.229-1.182l.244-2.218a1.16,1.16,0,0,0,.009-.16,1.33,1.33,0,0,0-.282-.818c.344-1.144.973-3.788-1.08-5.841A7.344,7.344,0,0,0,12.022,0h-.006A7.307,7.307,0,0,0,6.787,1.819c-2.052,2.052-1.424,4.7-1.08,5.84a1.332,1.332,0,0,0-.282.819,1.143,1.143,0,0,0,.007.147l.245,2.231a1.332,1.332,0,0,0,1.229,1.182,6.59,6.59,0,0,0,.213,1.469,4.348,4.348,0,0,0,1.211,2c-.032.109-.071.234-.113.364a.652.652,0,0,0-.261-.006Zm4.054,1.086a6.137,6.137,0,0,0,2.928-.855c.042.134.089.271.14.412l-.669.814a5.773,5.773,0,0,1-4.794,0l-.669-.815c.05-.141.1-.279.14-.411a6.133,6.133,0,0,0,2.925.855ZM8.988,17.97,9,17.986l1.67,2.028V22.66l-2.5-5.635.011-.038Zm3.621,1.538a.669.669,0,0,0-.154.426v5.943h-.892V19.934a.669.669,0,0,0-.153-.425l-.746-.9a6.719,6.719,0,0,0,2.69,0Zm.739.506,1.67-2.028.013-.016.81-.981.011.038-2.5,5.633ZM6.21,21.862a.892.892,0,1,1-.892.892.892.892,0,0,1,.892-.892ZM.9,25.877c.255-2.345.811-5.135,1.606-5.933A6.781,6.781,0,0,1,4.228,18.9a4.408,4.408,0,0,0,.709,2.6,1.784,1.784,0,1,0,1.272-.53,1.755,1.755,0,0,0-.5.08,3.5,3.5,0,0,1-.531-2.567c.662-.279,1.428-.572,2.273-.872l2.833,6.373a.662.662,0,0,0,.388.357v1.537Zm22.217,0h-9.77V24.338a.663.663,0,0,0,.389-.357l2.832-6.371q.546.194,1.046.383a8.957,8.957,0,0,1,.37,1.666,1.341,1.341,0,0,0-1.067,1.311,1.312,1.312,0,0,0,.05.342c-1.567.951-2.342,1.844-2.277,2.655.049.611.535,1.094,1.446,1.436a.446.446,0,1,0,.312-.835c-.543-.2-.852-.442-.87-.669-.026-.323.462-.992,1.889-1.85a1.327,1.327,0,0,0,.789.26H18.7a1.328,1.328,0,0,0,.787-.262c1.428.858,1.915,1.526,1.889,1.85-.018.229-.327.467-.87.669a.446.446,0,1,0,.312.835c.911-.342,1.4-.825,1.446-1.436.064-.811-.709-1.7-2.277-2.655a1.307,1.307,0,0,0,.051-.34,1.338,1.338,0,0,0-1.16-1.32,8.571,8.571,0,0,0-.221-1.242,10.252,10.252,0,0,1,2.85,1.54c.8.8,1.352,3.587,1.608,5.93ZM18.7,21.416h-.446a.446.446,0,0,1,0-.892H18.7a.446.446,0,0,1,0,.892Zm-5.155-9.831-.229-.591a.446.446,0,0,0-.577-.255.44.44,0,0,0-.271.484,1.793,1.793,0,0,0-.92,0,.44.44,0,0,0-.272-.484.446.446,0,0,0-.577.255l-.228.59a2.62,2.62,0,0,1-2.021-.357c-.264-.182-.479-.349-.641-.484.012-.192.028-.4.048-.609a7.48,7.48,0,0,0,.7-.956s0,.006.005.009A.446.446,0,0,0,9.2,9.2c.694-.664,1.169-.367,1.226-.327a.447.447,0,1,0,.544-.708,1.687,1.687,0,0,0-1.918.025,4.483,4.483,0,0,0,.25-.966,10.481,10.481,0,0,0,6.308-1.112c.014.257.036.572.07.932a.526.526,0,0,0,.013.061.053.053,0,0,0,0,.023c.153.758.261,1.371.339,1.934.089.6.146,1.16.178,1.681-.162.134-.376.3-.639.482a2.618,2.618,0,0,1-2.023.358Zm3.908-.826a.439.439,0,0,1-.337.376,18.678,18.678,0,0,0-.2-2.166V8.376a.343.343,0,0,1,.343-.343.426.426,0,0,1,.268.093.459.459,0,0,1,.174.353ZM7.418,2.451A6.414,6.414,0,0,1,12.01.894h.014A6.378,6.378,0,0,1,16.6,2.45a4.6,4.6,0,0,1,.92,4.718,1.308,1.308,0,0,0-.261-.028,1.223,1.223,0,0,0-.625.175c-.025-.127-.049-.253-.077-.389-.088-.946-.088-1.565-.088-1.571a.446.446,0,0,0-.694-.371c-.07.047-.145.089-.223.134A9.605,9.605,0,0,1,9,6.261a.446.446,0,0,0-.555.433A3.675,3.675,0,0,1,7.995,8.37,1.237,1.237,0,0,0,6.759,7.14a1.324,1.324,0,0,0-.261.029,4.591,4.591,0,0,1,.92-4.718Zm-.853,8.308L6.319,8.528v-.05a.457.457,0,0,1,.17-.351.428.428,0,0,1,.27-.095.343.343,0,0,1,.343.343v.593q-.071.471-.118.937c-.045.452-.073.857-.085,1.23A.44.44,0,0,1,6.564,10.758Zm1.414,2.506a6.055,6.055,0,0,1-.185-1.415c.051.037.1.072.155.11a3.541,3.541,0,0,0,2.94.436.466.466,0,0,0,.076-.021,4.4,4.4,0,0,0,.669-.244.876.876,0,0,1,.758,0,4.432,4.432,0,0,0,.672.245.444.444,0,0,0,.049.014,3.994,3.994,0,0,0,1.036.146,3.379,3.379,0,0,0,1.924-.58c.055-.037.1-.073.155-.11a6.083,6.083,0,0,1-.185,1.414A3.461,3.461,0,0,1,14.9,15.032a5.111,5.111,0,0,1-2.891,1.03,5.07,5.07,0,0,1-2.893-1.032,3.459,3.459,0,0,1-1.139-1.766Zm0,0" transform="translate(0 0)" fill="#c7c7c7" stroke="#c7c7c7" stroke-width="0.25"/>
    <path id="Path_1983" data-name="Path 1983" d="M187.748,179.665a.446.446,0,1,1-.446-.446A.446.446,0,0,1,187.748,179.665Zm0,0" transform="translate(-177.076 -169.848)" fill="#c7c7c7" stroke="#c7c7c7" stroke-width="0.25"/>
    <path id="Path_1984" data-name="Path 1984" d="M256.014,179.665a.446.446,0,1,1-.446-.446A.446.446,0,0,1,256.014,179.665Zm0,0" transform="translate(-241.773 -169.848)" fill="#c7c7c7" stroke="#c7c7c7" stroke-width="0.25"/>
    <path id="Path_1985" data-name="Path 1985" d="M248.528,152.01a.446.446,0,1,0,.617-.645,1.816,1.816,0,0,0-2.387-.389.446.446,0,0,0,.55.7S247.8,151.309,248.528,152.01Zm0,0" transform="translate(-233.684 -142.812)" fill="#c7c7c7" stroke="#c7c7c7" stroke-width="0.25"/>
  </g>
</svg>
