<svg xmlns="http://www.w3.org/2000/svg" width="57.884" height="64.5" viewBox="0 0 57.884 64.5">
  <g id="_026-dentist-1" data-name="026-dentist-1" transform="translate(0.241 0.25)">
    <path id="Path_1982" data-name="Path 1982" d="M19.005,37.938a1.6,1.6,0,0,0-1.217,1.1l-.276.9C12.619,41.66,6.589,44.074,4.479,46.184,1.769,48.893.524,57.034.023,61.643A2.133,2.133,0,0,0,2.14,64H55.258a2.134,2.134,0,0,0,2.122-2.359c-.5-4.611-1.746-12.752-4.456-15.461-2.11-2.11-8.141-4.524-13.033-6.239l-.276-.9a1.561,1.561,0,0,0-1.849-1.089c-.1-.312-.193-.61-.271-.871a10.393,10.393,0,0,0,2.9-4.789,15.8,15.8,0,0,0,.509-3.512,3.183,3.183,0,0,0,2.937-2.825l.583-5.3a2.773,2.773,0,0,0,.022-.382,3.18,3.18,0,0,0-.675-1.955c.823-2.735,2.327-9.056-2.581-13.964C37.339.5,31.749-.02,28.728,0h-.015c-3.037-.044-8.64.477-12.5,4.346-4.906,4.907-3.4,11.227-2.582,13.963a3.185,3.185,0,0,0-.674,1.957,2.733,2.733,0,0,0,.017.352l.587,5.333A3.184,3.184,0,0,0,16.5,28.781a15.757,15.757,0,0,0,.51,3.513A10.394,10.394,0,0,0,19.9,37.081c-.077.261-.17.559-.271.87a1.558,1.558,0,0,0-.625-.014Zm9.693,2.6a14.673,14.673,0,0,0,7-2.043c.1.32.213.647.334.984l-1.6,1.947a13.8,13.8,0,0,1-11.461,0l-1.6-1.948c.121-.336.232-.668.334-.983A14.662,14.662,0,0,0,28.7,40.535Zm-7.224,2.429.031.039L25.5,47.851v6.324L19.511,40.7l.027-.09Zm8.658,3.678a1.6,1.6,0,0,0-.367,1.018V61.868H27.632V47.659a1.6,1.6,0,0,0-.366-1.017l-1.784-2.161a16.065,16.065,0,0,0,6.432,0ZM31.9,47.851,35.892,43l.031-.039,1.937-2.347.026.09L31.9,54.175ZM14.833,52.268A2.133,2.133,0,1,1,12.7,54.4a2.133,2.133,0,0,1,2.133-2.133ZM2.14,61.868c.609-5.606,1.939-12.277,3.84-14.186a16.211,16.211,0,0,1,4.115-2.493,10.538,10.538,0,0,0,1.7,6.212,4.266,4.266,0,1,0,3.042-1.266,4.2,4.2,0,0,0-1.2.192,8.355,8.355,0,0,1-1.27-6.138c1.584-.666,3.413-1.367,5.433-2.085l6.772,15.236a1.582,1.582,0,0,0,.928.853v3.676Zm53.118,0H31.9v-3.68a1.585,1.585,0,0,0,.929-.853L39.6,42.1q1.307.463,2.5.915A21.416,21.416,0,0,1,42.984,47a3.206,3.206,0,0,0-2.552,3.134,3.137,3.137,0,0,0,.119.818c-3.746,2.275-5.6,4.408-5.445,6.347.116,1.46,1.28,2.615,3.457,3.432a1.067,1.067,0,1,0,.747-2c-1.3-.487-2.037-1.057-2.08-1.6-.062-.773,1.1-2.371,4.516-4.422a3.174,3.174,0,0,0,1.886.621H44.7a3.175,3.175,0,0,0,1.883-.625c3.413,2.051,4.578,3.649,4.516,4.423-.044.547-.782,1.117-2.08,1.6a1.067,1.067,0,1,0,.747,2c2.178-.817,3.341-1.972,3.457-3.432.154-1.938-1.695-4.073-5.445-6.347a3.125,3.125,0,0,0,.123-.814,3.2,3.2,0,0,0-2.773-3.157,20.492,20.492,0,0,0-.527-2.971c3.45,1.427,5.843,2.71,6.815,3.682,1.9,1.9,3.232,8.575,3.846,14.179ZM44.7,51.2H43.631a1.067,1.067,0,0,1,0-2.134H44.7a1.067,1.067,0,0,1,0,2.134ZM32.374,27.7l-.546-1.412a1.067,1.067,0,0,0-1.379-.61,1.052,1.052,0,0,0-.648,1.158,4.287,4.287,0,0,0-2.2,0,1.053,1.053,0,0,0-.65-1.156,1.067,1.067,0,0,0-1.379.61l-.545,1.41a6.265,6.265,0,0,1-4.832-.853c-.631-.434-1.145-.834-1.533-1.156.028-.459.067-.945.115-1.456a17.883,17.883,0,0,0,1.674-2.287c.005.006.007.015.013.021A1.066,1.066,0,0,0,21.97,22c1.659-1.588,2.8-.878,2.932-.782a1.068,1.068,0,1,0,1.3-1.693,4.034,4.034,0,0,0-4.586.061,10.717,10.717,0,0,0,.6-2.31A25.057,25.057,0,0,0,37.3,14.615c.034.614.086,1.367.167,2.228a1.259,1.259,0,0,0,.031.146.128.128,0,0,0,.009.056c.366,1.813.623,3.277.811,4.624.213,1.432.35,2.773.427,4.018-.387.32-.9.72-1.529,1.152a6.258,6.258,0,0,1-4.837.856Zm9.344-1.975a1.049,1.049,0,0,1-.805.9,44.658,44.658,0,0,0-.481-5.179V20.024a.821.821,0,0,1,.821-.821,1.018,1.018,0,0,1,.64.223,1.1,1.1,0,0,1,.416.844Zm-24-19.864c2.421-2.42,6.456-3.774,10.979-3.722h.033c4.522-.052,8.533,1.3,10.945,3.719,3.52,3.52,3.1,7.924,2.2,11.28a3.127,3.127,0,0,0-.625-.066,2.923,2.923,0,0,0-1.494.418c-.06-.3-.117-.6-.183-.929-.211-2.262-.211-3.741-.211-3.756a1.066,1.066,0,0,0-1.66-.887c-.167.112-.346.213-.533.32a22.965,22.965,0,0,1-15.68,2.733A1.067,1.067,0,0,0,20.166,16,8.787,8.787,0,0,1,19.1,20.011a2.957,2.957,0,0,0-2.954-2.942,3.165,3.165,0,0,0-.625.068c-.9-3.355-1.327-7.755,2.2-11.279ZM15.679,25.72l-.586-5.333v-.119a1.092,1.092,0,0,1,.407-.839,1.022,1.022,0,0,1,.645-.227.821.821,0,0,1,.821.821v1.418q-.171,1.127-.283,2.24c-.106,1.08-.175,2.048-.2,2.94A1.051,1.051,0,0,1,15.679,25.72Zm3.38,5.992a14.477,14.477,0,0,1-.442-3.382c.123.087.238.173.37.263a8.465,8.465,0,0,0,7.028,1.043,1.115,1.115,0,0,0,.182-.049A10.523,10.523,0,0,0,27.8,29a2.1,2.1,0,0,1,1.813.007,10.6,10.6,0,0,0,1.606.586,1.062,1.062,0,0,0,.117.033,9.55,9.55,0,0,0,2.477.35,8.079,8.079,0,0,0,4.6-1.387c.131-.089.248-.175.37-.262a14.542,14.542,0,0,1-.443,3.38,8.274,8.274,0,0,1-2.727,4.227A12.219,12.219,0,0,1,28.7,38.4a12.122,12.122,0,0,1-6.916-2.466,8.269,8.269,0,0,1-2.723-4.223Zm0,0" transform="translate(0 0)" fill="#fff" stroke="#fff" stroke-width="0.5"/>
    <path id="Path_1983" data-name="Path 1983" d="M188.989,180.286a1.067,1.067,0,1,1-1.066-1.067A1.066,1.066,0,0,1,188.989,180.286Zm0,0" transform="translate(-163.49 -156.817)" fill="#fff" stroke="#fff" stroke-width="0.5"/>
    <path id="Path_1984" data-name="Path 1984" d="M257.255,180.286a1.067,1.067,0,1,1-1.066-1.067A1.066,1.066,0,0,1,257.255,180.286Zm0,0" transform="translate(-223.223 -156.817)" fill="#fff" stroke="#fff" stroke-width="0.5"/>
    <path id="Path_1985" data-name="Path 1985" d="M251.228,153.844A1.067,1.067,0,1,0,252.7,152.3c-2.453-2.347-4.807-1.637-5.707-.931a1.067,1.067,0,0,0,1.316,1.68C248.321,153.042,249.479,152.169,251.228,153.844Zm0,0" transform="translate(-215.754 -131.855)" fill="#fff" stroke="#fff" stroke-width="0.5"/>
  </g>
</svg>
