<svg xmlns="http://www.w3.org/2000/svg" width="24.5" height="29.574" viewBox="0 0 24.5 29.574">
  <g id="Group_3664" data-name="Group 3664" transform="translate(-164.641 -90.75)">
    <path id="Path_338" data-name="Path 338" d="M75.125,28.97l8.485-8.486a12.005,12.005,0,0,0,1.422-15.26l-1.212.831a10.536,10.536,0,0,1-1.249,13.39l-7.446,7.446-7.446-7.446A10.532,10.532,0,0,1,80.895,3.188L81.7,1.959A12,12,0,0,0,66.639,20.485Zm0,0" transform="translate(101.766 91)" fill="#c7c7c7" stroke="#c7c7c7" stroke-width="0.5"/>
    <path id="Path_340" data-name="Path 340" d="M128.027,69.334V65.905h3.429V59.538h-3.429V56.109h-6.367v3.429h-3.429v6.367h3.429v3.429Zm-8.326-4.9V61.007h3.428V57.579h3.429v3.428h3.428v3.429h-3.428v3.428h-3.429V64.436Zm0,0" transform="translate(52.048 40.376)" fill="#c7c7c7" stroke="#c7c7c7" stroke-width="0.5"/>
  </g>
</svg>
