<svg xmlns="http://www.w3.org/2000/svg" width="53.519" height="64.604" viewBox="0 0 53.519 64.604">
  <g id="Group_3636" data-name="Group 3636" transform="translate(-164.641 -90.75)">
    <path id="Path_338" data-name="Path 338" d="M89.634,64l18.745-18.746a26.521,26.521,0,0,0,3.142-33.71l-2.678,1.835a23.274,23.274,0,0,1-2.759,29.58l-16.45,16.45-16.45-16.45a23.267,23.267,0,0,1,29.2-35.916l1.781-2.714A26.512,26.512,0,0,0,70.889,45.255Zm0,0" transform="translate(101.766 91)" fill="#fff" stroke="#fff" stroke-width="0.5"/>
    <path id="Path_340" data-name="Path 340" d="M139.871,85.324V77.75h7.575V63.684h-7.575V56.109H125.805v7.575h-7.575V77.75h7.575v7.575ZM121.477,74.5V66.93h7.574V59.356h7.575V66.93H144.2V74.5h-7.574v7.574h-7.575V74.5Zm0,0" transform="translate(58.562 47.009)" fill="#fff" stroke="#fff" stroke-width="0.5"/>
  </g>
</svg>
