<svg xmlns="http://www.w3.org/2000/svg" xmlns:xlink="http://www.w3.org/1999/xlink" width="64" height="47.493" viewBox="0 0 64 47.493">
  <defs>
    <clipPath id="clip-path">
      <rect id="Rectangle_113" data-name="Rectangle 113" width="39.639" height="47.189" fill="#fff"/>
    </clipPath>
  </defs>
  <g id="Group_240" data-name="Group 240" transform="translate(581.254 -1124)">
    <path id="Path_400" data-name="Path 400" d="M4.835,0C5.5,4.583,3.945,11.756,0,15.058" transform="matrix(0.996, 0.087, -0.087, 0.996, -545.991, 1135.786)" fill="#fff" stroke="#d6d6d6" stroke-miterlimit="10" stroke-width="2.5"/>
    <path id="Path_401" data-name="Path 401" d="M-1069.993,840.559c-4.144-4.83-11.2-1.062-12.2-.491-3.046-2.078-7.232-3.913-10.733-1.768a.846.846,0,0,1,.074.357,20.54,20.54,0,0,1-.371,4.114,9.918,9.918,0,0,1,.972-.849c4.389-3.348,11.76,4.34,11.832,4.421a1.129,1.129,0,0,0,1.592.045,1.124,1.124,0,0,0,.045-1.588,24.547,24.547,0,0,0-1.992-1.845c1.794-.824,5.745-2.188,7.983.422a10.387,10.387,0,0,1,2.736,8.061,9.661,9.661,0,0,1-3.984,6.654,1.133,1.133,0,0,0-.443.684c-1.314,6.381-3.864,12.461-5.686,13.555a.728.728,0,0,1-.268.115c-.258-.6,0-2.736.158-4.039.362-2.987.734-6.079-.706-7.82a3.276,3.276,0,0,0-2.391-1.171c-.1-.01-.2-.01-.3-.01-3.474,0-4.317,4.5-5,8.131-.344,1.828-.815,4.334-1.488,4.783-.033.022-.071.051-.208.022-1.034-.218-1.374-5.948-1.516-8.394-.241-4.111-.443-6.694-1.433-7.9a13.339,13.339,0,0,1-2.377-7.583,13.316,13.316,0,0,0-1.64,3.659,14.946,14.946,0,0,0,2.31,4.688c.605.732.812,4.291.967,6.893.325,5.538.612,10.321,3.44,10.921a2.557,2.557,0,0,0,2-.36c1.526-1.017,2.006-3.566,2.561-6.515.716-3.8,1.373-6.692,3.063-6.578a1.091,1.091,0,0,1,.858.384c.857,1.04.485,4.132.212,6.4-.4,3.274-.738,6.11,1.422,6.738a2.529,2.529,0,0,0,.71.1,2.942,2.942,0,0,0,1.526-.458c3.314-1.995,5.926-10.608,6.933-15.255a12.441,12.441,0,0,0,4.749-8.3,13.039,13.039,0,0,0-3.406-10.226" transform="translate(549.249 296.699)" fill="#fff"/>
    <path id="Path_402" data-name="Path 402" d="M-1155.164,846.654c.144.843.295,1.6.492,2.336a13.674,13.674,0,0,0,.721,2.1,13.941,13.941,0,0,0,1.034,1.961c.18.339.424.633.631.978s.475.642.689,1.029a5.983,5.983,0,0,1-1.175-.5,5.773,5.773,0,0,1-1.029-.769,6.132,6.132,0,0,1-1.5-2.122,6.153,6.153,0,0,1-.516-2.545,4.815,4.815,0,0,1,.649-2.467" transform="translate(584.633 291.063)" fill="#fff"/>
    <g id="Group_239" data-name="Group 239" transform="translate(-581.254 1124)">
      <g id="Group_232" data-name="Group 232" clip-path="url(#clip-path)">
        <path id="Path_399" data-name="Path 399" d="M-1175.717,815.917c-4.161,4.857-4.593,9.58-4.225,12.685a15.433,15.433,0,0,0,5.891,10.292c1.249,5.764,5.431,16.621,9.542,19.095a3.654,3.654,0,0,0,1.893.568,3.131,3.131,0,0,0,.881-.129c2.679-.779,2.254-4.3,1.764-8.358-.339-2.808-1.743-6.814-.68-8.1a1.35,1.35,0,0,1,1.064-.475c2.1-.142,2.913,3.446,3.8,8.16.688,3.659,1.283,6.821,3.177,8.082a3.171,3.171,0,0,0,2.481.446c3.509-.744,3.864-6.677,4.267-13.546.192-3.227.448-7.643,1.2-8.551a19.685,19.685,0,0,0,3.65-13.052,13.469,13.469,0,0,0-5.523-9.422c-4.479-3.417-10.053-1.022-14.044,1.7-1.241-.708-10-5.381-15.137.61m-1.332,12.337a13.463,13.463,0,0,1,3.545-10.444c2.9-3.381,8.019-1.615,10.344-.547a31.652,31.652,0,0,0-2.581,2.391,1.456,1.456,0,0,0,.058,2.056,1.462,1.462,0,0,0,2.062-.058c.093-.105,9.643-10.066,15.329-5.728a10.66,10.66,0,0,1,4.389,7.438,16.952,16.952,0,0,1-3.008,10.868c-1.283,1.559-1.544,4.906-1.856,10.231-.185,3.169-.625,10.593-1.964,10.875-.177.036-.227,0-.271-.029-.871-.581-1.481-3.828-1.927-6.2-.886-4.707-1.978-10.534-6.48-10.534-.121,0-.256,0-.382.012a4.25,4.25,0,0,0-3.1,1.517c-1.865,2.256-.44,6.433.028,10.3.206,1.688.54,4.459.206,5.232a.941.941,0,0,1-.347-.149c-2.361-1.417-6.607-9.466-8.31-17.733a1.467,1.467,0,0,0-.573-.886,12.521,12.521,0,0,1-5.162-8.621" transform="translate(1180.552 -811.918)" fill="#fff"/>
      </g>
    </g>
  </g>
</svg>
