<svg id="Instagram" xmlns="http://www.w3.org/2000/svg" xmlns:xlink="http://www.w3.org/1999/xlink" width="24" height="24" viewBox="0 0 24 24">
  <defs>
    <linearGradient id="linear-gradient" x1="0.503" x2="0.5" y2="1" gradientUnits="objectBoundingBox">
      <stop offset="0" stop-color="#7024c4"/>
      <stop offset="0.415" stop-color="#c21975"/>
      <stop offset="0.702" stop-color="#c74c4d"/>
      <stop offset="1" stop-color="#e09b3d"/>
    </linearGradient>
  </defs>
  <circle id="Oval" cx="12" cy="12" r="12" fill="url(#linear-gradient)"/>
  <path id="Instagram-2" data-name="Instagram" d="M7.345,10.462H3.116A3.12,3.12,0,0,1,0,7.345V3.116A3.12,3.12,0,0,1,3.116,0H7.345a3.12,3.12,0,0,1,3.116,3.116V7.345A3.12,3.12,0,0,1,7.345,10.462ZM3.116,1.052A2.067,2.067,0,0,0,1.052,3.116V7.345A2.066,2.066,0,0,0,3.116,9.409H7.345A2.066,2.066,0,0,0,9.409,7.345V3.116A2.066,2.066,0,0,0,7.345,1.052ZM5.231,7.936A2.706,2.706,0,1,1,7.937,5.231,2.709,2.709,0,0,1,5.231,7.936Zm0-4.359A1.653,1.653,0,1,0,6.884,5.231,1.655,1.655,0,0,0,5.231,3.578Zm2.711-.384a.648.648,0,1,1,.649-.648A.649.649,0,0,1,7.942,3.194Z" transform="translate(6.769 6.769)" fill="#fff"/>
</svg>
