<svg id="Snapchat" xmlns="http://www.w3.org/2000/svg" width="24" height="24" viewBox="0 0 24 24">
  <ellipse id="Oval" cx="12" cy="12" rx="12" ry="12" fill="#fffc00"/>
  <g id="Snapchat-2" data-name="Snapchat" transform="translate(6.462 6.78)">
    <path id="Shape" d="M10.657,7.92a3.083,3.083,0,0,1-2.07-1.844V6.058A.449.449,0,0,1,8.533,5.7c.073-.169.381-.282.581-.339a1.224,1.224,0,0,0,.145-.056c.381-.169.581-.376.581-.621a.509.509,0,0,0-.363-.452.563.563,0,0,0-.254-.056.69.69,0,0,0-.236.056,1.333,1.333,0,0,1-.436.132.223.223,0,0,1-.109-.019.6.6,0,0,0,.018-.188V4.12a5.854,5.854,0,0,0-.145-2.3A2.954,2.954,0,0,0,5.574,0H5.356A2.919,2.919,0,0,0,2.632,1.825a5.531,5.531,0,0,0-.145,2.3.949.949,0,0,1,.018.226c-.036,0-.091.019-.145.019a1,1,0,0,1-.472-.132.629.629,0,0,0-.8.4c-.036.188.036.452.581.677a.824.824,0,0,0,.163.056c.182.056.49.169.563.339a.456.456,0,0,1-.054.357A3.186,3.186,0,0,1,.236,7.882.321.321,0,0,0,0,8.2a.279.279,0,0,0,.036.132c.109.3.581.489,1.434.64.018.056.036.169.054.226.018.075.036.169.054.263a.313.313,0,0,0,.327.245A1.377,1.377,0,0,0,2.16,9.67a2.161,2.161,0,0,1,.563-.075,1.594,1.594,0,0,1,.418.056,1.8,1.8,0,0,1,.744.4,2.1,2.1,0,0,0,1.434.489h.127a2.85,2.85,0,0,0,1.634-.489,2.051,2.051,0,0,1,.744-.4,2.869,2.869,0,0,1,.4-.038,2.484,2.484,0,0,1,.563.056,1.827,1.827,0,0,0,.272.038.313.313,0,0,0,.309-.245c.018-.094.036-.169.054-.263.018-.038.036-.151.054-.207.853-.132,1.271-.339,1.4-.621a.359.359,0,0,0,.036-.132A.321.321,0,0,0,10.657,7.92Z" transform="translate(0 0)"/>
    <path id="Path" d="M8.932,8.24c-.218.019-.254.245-.309.489-.018.056-.036.132-.054.207a.806.806,0,0,1-.182-.019,2.963,2.963,0,0,0-.635-.075A4,4,0,0,0,7.3,8.88a2.159,2.159,0,0,0-.89.47,2.221,2.221,0,0,1-1.4.433H4.92A1.857,1.857,0,0,1,3.685,9.35a2.052,2.052,0,0,0-.89-.47,3.693,3.693,0,0,0-.454-.038,2.567,2.567,0,0,0-.635.075.775.775,0,0,1-.182.038l-.054-.226c-.054-.245-.091-.47-.309-.508A2.391,2.391,0,0,1,0,7.864,3.554,3.554,0,0,0,2.269,5.832a.854.854,0,0,0,.054-.658,1.169,1.169,0,0,0-.8-.546A.255.255,0,0,1,1.4,4.59c-.309-.132-.363-.245-.363-.263,0-.056.127-.132.236-.132h.054a1.387,1.387,0,0,0,.617.169A.622.622,0,0,0,2.4,4.2a.174.174,0,0,0,.054-.132c0-.113-.018-.226-.018-.339A5.328,5.328,0,0,1,2.542,1.6,2.562,2.562,0,0,1,4.938,0h.2A2.611,2.611,0,0,1,7.552,1.561a6.091,6.091,0,0,1,.109,2.126v.038c0,.113-.018.207-.018.3a.218.218,0,0,0,.054.151.649.649,0,0,0,.436.169,1.968,1.968,0,0,0,.581-.169.258.258,0,0,1,.2.019c.091.038.127.094.127.113,0,.038-.073.151-.363.263a1.225,1.225,0,0,1-.145.056,1.175,1.175,0,0,0-.781.546.78.78,0,0,0,.054.658,3.464,3.464,0,0,0,2.251,2.051A2.491,2.491,0,0,1,8.932,8.24Z" transform="translate(0.436 0.376)" fill="#fff"/>
  </g>
</svg>
