<svg id="Twitter" xmlns="http://www.w3.org/2000/svg" width="24" height="24" viewBox="0 0 24 24">
  <circle id="Oval" cx="12" cy="12" r="12" transform="translate(0)" fill="#2aa3ef"/>
  <path id="Twitter-2" data-name="Twitter" d="M9.846.947a4.052,4.052,0,0,1-1.16.318A2.026,2.026,0,0,0,9.574.148a4.037,4.037,0,0,1-1.283.49A2.021,2.021,0,0,0,4.8,2.02a2.042,2.042,0,0,0,.053.461A5.734,5.734,0,0,1,.686.37a2.022,2.022,0,0,0,.625,2.7A2,2,0,0,1,.4,2.813v.026a2.02,2.02,0,0,0,1.62,1.98,2.017,2.017,0,0,1-.532.071,1.987,1.987,0,0,1-.38-.037,2.023,2.023,0,0,0,1.887,1.4,4.058,4.058,0,0,1-2.509.864A4.071,4.071,0,0,1,0,7.093,5.716,5.716,0,0,0,3.1,8,5.708,5.708,0,0,0,8.844,2.254c0-.088,0-.174-.006-.261A4.106,4.106,0,0,0,9.846.947Z" transform="translate(7.077 8)" fill="#fff"/>
</svg>
