<svg xmlns="http://www.w3.org/2000/svg" width="20.251" height="22.557" viewBox="0 0 20.251 22.557">
  <g id="_026-dentist-1" data-name="026-dentist-1" transform="translate(0.115 0.124)">
    <path id="Path_1982" data-name="Path 1982" d="M6.631,13.224a.558.558,0,0,0-.424.385l-.1.315A15.451,15.451,0,0,0,1.568,16.1C.624,17.042.19,19.88.015,21.486a.744.744,0,0,0,.738.822H19.267a.744.744,0,0,0,.739-.822c-.175-1.607-.609-4.445-1.553-5.389a15.448,15.448,0,0,0-4.543-2.174l-.1-.315a.544.544,0,0,0-.644-.38c-.035-.109-.067-.213-.094-.3a3.622,3.622,0,0,0,1.01-1.669,5.507,5.507,0,0,0,.177-1.224,1.109,1.109,0,0,0,1.024-.985l.2-1.849a.967.967,0,0,0,.008-.133,1.108,1.108,0,0,0-.235-.681,4.705,4.705,0,0,0-.9-4.867A6.12,6.12,0,0,0,10.02,0h-.005A6.09,6.09,0,0,0,5.658,1.516a4.707,4.707,0,0,0-.9,4.867,1.11,1.11,0,0,0-.235.682.953.953,0,0,0,.006.123l.2,1.859a1.11,1.11,0,0,0,1.024.985,5.492,5.492,0,0,0,.178,1.224,3.623,3.623,0,0,0,1.009,1.669c-.027.091-.059.195-.094.3a.543.543,0,0,0-.218,0Zm3.379.905a5.114,5.114,0,0,0,2.44-.712c.035.111.074.226.116.343l-.558.679a4.811,4.811,0,0,1-3.995,0l-.558-.679c.042-.117.081-.233.116-.343a5.11,5.11,0,0,0,2.437.712Zm-2.518.846.011.013,1.392,1.69v2.2l-2.087-4.7.009-.031Zm3.018,1.282a.557.557,0,0,0-.128.355v4.952H9.638V16.612a.557.557,0,0,0-.127-.354L8.889,15.5a5.6,5.6,0,0,0,2.242,0Zm.616.422,1.392-1.69.011-.013.675-.818.009.031-2.087,4.694ZM5.177,18.218a.744.744,0,1,1-.744.744.744.744,0,0,1,.744-.744ZM.753,21.564c.212-1.954.676-4.279,1.338-4.945a5.65,5.65,0,0,1,1.434-.869,3.673,3.673,0,0,0,.591,2.165,1.487,1.487,0,1,0,1.06-.441,1.463,1.463,0,0,0-.417.067,2.912,2.912,0,0,1-.443-2.14c.552-.232,1.19-.477,1.894-.727l2.36,5.31a.551.551,0,0,0,.323.3v1.281Zm18.514,0H11.125V20.282a.552.552,0,0,0,.324-.3l2.36-5.309q.455.161.872.319a7.464,7.464,0,0,1,.308,1.388,1.117,1.117,0,0,0-.89,1.092,1.093,1.093,0,0,0,.042.285c-1.306.793-1.951,1.536-1.9,2.212.041.509.446.912,1.2,1.2a.372.372,0,1,0,.26-.7c-.453-.17-.71-.368-.725-.558-.022-.27.385-.826,1.574-1.541a1.106,1.106,0,0,0,.657.216h.372a1.107,1.107,0,0,0,.656-.218c1.19.715,1.6,1.272,1.574,1.542-.015.191-.272.389-.725.558a.372.372,0,1,0,.26.7c.759-.285,1.164-.687,1.2-1.2.054-.675-.591-1.42-1.9-2.212a1.089,1.089,0,0,0,.043-.284,1.115,1.115,0,0,0-.966-1.1,7.143,7.143,0,0,0-.184-1.035,8.543,8.543,0,0,1,2.375,1.283c.663.664,1.127,2.989,1.34,4.942Zm-3.681-3.718h-.372a.372.372,0,0,1,0-.744h.372a.372.372,0,0,1,0,.744Zm-4.3-8.193-.19-.492a.372.372,0,0,0-.481-.213.367.367,0,0,0-.226.4,1.494,1.494,0,0,0-.767,0,.367.367,0,0,0-.227-.4.372.372,0,0,0-.481.213l-.19.491a2.184,2.184,0,0,1-1.684-.3c-.22-.151-.4-.291-.534-.4.01-.16.023-.329.04-.507a6.233,6.233,0,0,0,.583-.8l0,.007a.372.372,0,0,0,.525.011c.578-.554.974-.306,1.022-.272a.372.372,0,0,0,.454-.59,1.406,1.406,0,0,0-1.6.021,3.735,3.735,0,0,0,.208-.805,8.734,8.734,0,0,0,5.256-.926c.012.214.03.477.058.777a.439.439,0,0,0,.011.051.045.045,0,0,0,0,.02c.127.632.217,1.142.283,1.612.074.5.122.967.149,1.4-.135.112-.313.251-.533.4a2.181,2.181,0,0,1-1.686.3Zm3.257-.688a.365.365,0,0,1-.281.313,15.566,15.566,0,0,0-.168-1.8V6.98a.286.286,0,0,1,.286-.286.355.355,0,0,1,.223.078.383.383,0,0,1,.145.294ZM6.183,2.042A5.345,5.345,0,0,1,10.01.745h.012a5.315,5.315,0,0,1,3.815,1.3A3.829,3.829,0,0,1,14.6,5.973a1.09,1.09,0,0,0-.218-.023,1.019,1.019,0,0,0-.521.146c-.021-.106-.041-.211-.064-.324-.074-.788-.074-1.3-.074-1.309a.372.372,0,0,0-.578-.309c-.058.039-.12.074-.186.111A8,8,0,0,1,7.5,5.218a.372.372,0,0,0-.462.361,3.063,3.063,0,0,1-.372,1.4A1.031,1.031,0,0,0,5.634,5.95a1.1,1.1,0,0,0-.218.024,3.826,3.826,0,0,1,.767-3.931ZM5.472,8.965l-.2-1.859V7.065a.381.381,0,0,1,.142-.293.356.356,0,0,1,.225-.079.286.286,0,0,1,.286.286v.494q-.059.393-.1.781c-.037.376-.061.714-.071,1.025A.366.366,0,0,1,5.472,8.965ZM6.65,11.054A5.046,5.046,0,0,1,6.5,9.875c.043.03.083.06.129.092a2.95,2.95,0,0,0,2.45.364.389.389,0,0,0,.063-.017,3.668,3.668,0,0,0,.558-.2.73.73,0,0,1,.632,0,3.694,3.694,0,0,0,.56.2l.041.012a3.329,3.329,0,0,0,.864.122,2.816,2.816,0,0,0,1.6-.483c.046-.031.086-.061.129-.091a5.069,5.069,0,0,1-.154,1.178,2.884,2.884,0,0,1-.95,1.473,4.259,4.259,0,0,1-2.409.859,4.225,4.225,0,0,1-2.411-.86,2.882,2.882,0,0,1-.949-1.472Zm0,0" transform="translate(0 0)" fill="#39a1f7" stroke="#39a1f7" stroke-width="0.25"/>
    <path id="Path_1983" data-name="Path 1983" d="M187.6,179.591a.372.372,0,1,1-.372-.372A.372.372,0,0,1,187.6,179.591Zm0,0" transform="translate(-178.704 -171.41)" fill="#39a1f7" stroke="#39a1f7" stroke-width="0.25"/>
    <path id="Path_1984" data-name="Path 1984" d="M255.865,179.591a.372.372,0,1,1-.372-.372A.372.372,0,0,1,255.865,179.591Zm0,0" transform="translate(-243.996 -171.41)" fill="#39a1f7" stroke="#39a1f7" stroke-width="0.25"/>
    <path id="Path_1985" data-name="Path 1985" d="M248.2,151.79a.372.372,0,1,0,.514-.537,1.513,1.513,0,0,0-1.989-.325.372.372,0,0,0,.459.586S247.594,151.206,248.2,151.79Zm0,0" transform="translate(-235.832 -144.125)" fill="#39a1f7" stroke="#39a1f7" stroke-width="0.25"/>
  </g>
</svg>
