<?xml version="1.0"?>
<svg xmlns="http://www.w3.org/2000/svg" xmlns:xlink="http://www.w3.org/1999/xlink" version="1.1" id="Capa_1" x="0px" y="0px" viewBox="0 0 512 512" style="enable-background:new 0 0 512 512;" xml:space="preserve" width="512px" height="512px"><g><g>
	<g>
		<path d="M329.669,94.916c-31.353-31.353-73.038-48.619-117.377-48.619c-44.339,0-86.024,17.266-117.377,48.619    C59.44,130.39,42.037,179.389,47.169,229.349c0.43,4.193,4.183,7.236,8.372,6.813c4.193-0.43,7.243-4.179,6.813-8.372    c-4.661-45.371,11.143-89.868,43.355-122.081c28.47-28.47,66.322-44.149,106.584-44.149c40.262,0,78.115,15.679,106.584,44.149    s44.149,66.322,44.149,106.584c0,40.262-15.679,78.115-44.149,106.584c-28.47,28.47-66.322,44.149-106.584,44.149    s-78.115-15.679-106.584-44.149c-18.095-18.096-31.352-40.58-38.336-65.024c-1.159-4.053-5.382-6.401-9.435-5.242    c-4.053,1.158-6.4,5.383-5.242,9.435c7.696,26.932,22.295,51.699,42.219,71.623c31.353,31.353,73.038,48.619,117.377,48.619    c44.339,0,86.024-17.266,117.377-48.619c31.353-31.353,48.619-73.038,48.619-117.377S361.021,126.268,329.669,94.916z" data-original="#000000" class="active-path" data-old_color="#000000" fill="#39A1F7"/>
	</g>
</g><g>
	<g>
		<path d="M498.045,430.667L392.263,324.884c40.921-65.457,43.764-149.75,3.994-218.643c-2.107-3.651-6.776-4.901-10.425-2.794    c-3.65,2.107-4.902,6.775-2.794,10.425c44.459,77.016,31.538,174.778-31.425,237.741c-37.214,37.214-86.692,57.708-139.32,57.708    c-52.628,0-102.107-20.495-139.321-57.708c-37.214-37.213-57.708-86.692-57.708-139.32c0-52.628,20.494-102.106,57.708-139.32    c37.214-37.214,86.692-57.709,139.321-57.709c52.628,0,102.106,20.495,139.32,57.708c5.513,5.514,10.741,11.391,15.534,17.467    c2.61,3.309,7.409,3.875,10.719,1.265c3.309-2.611,3.875-7.41,1.265-10.719c-5.162-6.544-10.789-12.87-16.725-18.805    C322.309,22.083,268.998,0,212.293,0C155.587,0,102.276,22.083,62.179,62.179C22.083,102.276,0,155.587,0,212.293    c0,56.706,22.083,110.017,62.178,150.114s93.408,62.179,150.114,62.179c40.468,0,79.203-11.254,112.644-32.268l105.73,105.728    c8.998,8.998,20.963,13.955,33.689,13.955c12.727,0,24.692-4.957,33.69-13.955c8.998-8.998,13.955-20.963,13.955-33.689    C512,451.63,507.044,439.665,498.045,430.667z M487.252,487.252c-6.116,6.116-14.247,9.484-22.897,9.484    c-8.649,0-16.781-3.368-22.897-9.484l-103.681-103.68c8.652-6.367,16.889-13.427,24.628-21.166    c7.757-7.757,14.801-16.01,21.136-24.658l103.711,103.711C499.878,454.084,499.878,474.627,487.252,487.252z" data-original="#000000" class="active-path" data-old_color="#000000" fill="#39A1F7"/>
	</g>
</g><g>
	<g>
		<path d="M163.675,140.293c-3.223,1.932-4.521,5.987-3.131,9.46c1.255,2.975,4.286,4.899,7.525,4.694    c3.013-0.19,5.689-2.196,6.704-5.042C177.128,142.793,169.682,136.692,163.675,140.293z" data-original="#000000" class="active-path" data-old_color="#000000" fill="#39A1F7"/>
	</g>
</g><g>
	<g>
		<path d="M243.928,122.137c-2.818,2.493-3.339,6.812-1.276,9.941c1.862,2.729,5.34,4.035,8.526,3.075    c2.882-0.868,5.01-3.392,5.393-6.376C257.454,121.92,249.066,117.593,243.928,122.137z" data-original="#000000" class="active-path" data-old_color="#000000" fill="#39A1F7"/>
	</g>
</g><g>
	<g>
		<path d="M256.705,234.864c-3.647-5.672-12.508-3.681-13.829,2.737c-1.409,6.844,6.769,11.742,12.209,7.486    C258.161,242.681,258.893,238.105,256.705,234.864z" data-original="#000000" class="active-path" data-old_color="#000000" fill="#39A1F7"/>
	</g>
</g><g>
	<g>
		<path d="M129.162,284.379c-1.821-2.764-5.398-4.031-8.559-3.062c-2.935,0.901-5.056,3.506-5.374,6.553    c-0.316,3.043,1.319,6.034,3.998,7.473c3.031,1.628,6.876,0.968,9.209-1.558C130.808,291.217,131.076,287.287,129.162,284.379z" data-original="#000000" class="active-path" data-old_color="#000000" fill="#39A1F7"/>
	</g>
</g><g>
	<g>
		<path d="M229.934,300.671c-2.006-3.014-5.918-4.157-9.261-2.819c-2.874,1.186-4.797,4.125-4.716,7.239    c0.08,3.128,2.133,5.932,5.065,6.992c2.928,1.058,6.317,0.162,8.344-2.197C231.576,307.315,231.811,303.495,229.934,300.671z" data-original="#000000" class="active-path" data-old_color="#000000" fill="#39A1F7"/>
	</g>
</g><g>
	<g>
		<path d="M338.561,184.666c-1.226-4.034-5.49-6.31-9.521-5.083l-12.431,3.778c-5.865-9.707-16.681-15.482-28.012-14.953    l-3.778-12.432c-1.226-4.034-5.49-6.308-9.521-5.083c-4.033,1.226-6.308,5.489-5.083,9.521l3.775,12.422    c-4.745,2.855-8.649,6.947-11.326,11.96c-2.675,5.013-3.902,10.534-3.634,16.066l-12.422,3.775    c-4.034,1.224-6.309,5.487-5.083,9.52c1,3.293,4.028,5.415,7.299,5.415c0.736,0,1.483-0.107,2.222-0.332l12.43-3.778    c5.619,9.298,15.781,14.989,26.583,14.989c0.473,0,0.949-0.031,1.425-0.052l3.783,12.448c1,3.293,4.028,5.415,7.299,5.415    c0.736,0,1.483-0.107,2.222-0.332c4.033-1.226,6.308-5.489,5.083-9.521l-3.778-12.432c9.706-5.866,15.479-16.683,14.952-28.011    l12.432-3.778C337.511,192.961,339.787,188.698,338.561,184.666z M294.629,214.502c-8.323,2.529-17.149-2.184-19.678-10.504    c-1.225-4.031-0.807-8.297,1.177-12.014c1.984-3.717,5.297-6.438,9.328-7.663c1.523-0.463,3.063-0.683,4.578-0.683    c6.763-0.002,13.033,4.388,15.099,11.186C307.663,203.145,302.95,211.972,294.629,214.502z" data-original="#000000" class="active-path" data-old_color="#000000" fill="#39A1F7"/>
	</g>
</g><g>
	<g>
		<path d="M205.735,159.2c0.18,0.012,0.358,0.019,0.536,0.019c3.974,0,7.327-3.079,7.605-7.104c0.292-4.205-2.881-7.85-7.085-8.142    l-6.666-0.463c-0.667-11.961-8.305-22.879-20.023-27.307l-0.458-0.173c-8.355-3.159-17.679-2.571-25.577,1.609    c-5.523,2.924-9.965,7.421-12.831,12.827l-5.1-1.225c-4.099-0.984-8.219,1.541-9.203,5.638c-0.984,4.099,1.541,8.219,5.638,9.203    l4.298,1.032c-1.43,7.05-2.497,14.172-3.217,21.33l-8.093-0.749c-4.195-0.384-7.914,2.7-8.302,6.896    c-0.388,4.198,2.7,7.914,6.896,8.302l8.484,0.785c-0.199,6.558-0.104,13.126,0.287,19.675l-11.862,1.696    c-4.173,0.596-7.072,4.462-6.475,8.635c0.544,3.807,3.809,6.552,7.545,6.552c0.359,0,0.724-0.025,1.09-0.078l11.164-1.597    c0.718,5.504,1.628,10.983,2.769,16.416l-5.453,2.644c-3.792,1.839-5.377,6.404-3.538,10.197c1.319,2.72,4.04,4.304,6.873,4.304    c1.117,0,2.251-0.246,3.324-0.766l3.663-1.776c2.865,4.782,7.003,8.761,12.042,11.428c4.539,2.404,9.549,3.619,14.576,3.619    c3.717,0,7.445-0.665,10.996-2.008l0.443-0.167c0.001,0,0.003-0.001,0.004-0.002c11.899-4.496,19.594-15.666,20.068-27.826    l6.474-0.892c4.176-0.576,7.094-4.427,6.518-8.603c-0.576-4.175-4.429-7.094-8.603-6.518l-6.65,0.917    c-1.555-8.091-2.47-16.305-2.717-24.542l5.152-0.576c4.188-0.468,7.204-4.243,6.736-8.433c-0.468-4.189-4.242-7.21-8.433-6.736    l-3.142,0.351c0.44-6.356,1.27-12.681,2.491-18.932L205.735,159.2z M184.486,227.836c1.834,7.65-2.378,15.533-9.797,18.337    l-0.443,0.167c-4.26,1.609-9.013,1.311-13.039-0.821c-4.015-2.126-6.808-5.711-7.861-10.095c-7.404-30.813-7.404-63.387,0-94.202    c1.053-4.384,3.845-7.97,7.861-10.095c2.314-1.225,4.867-1.845,7.43-1.845c1.897,0,3.8,0.34,5.614,1.026l0.438,0.166    c7.419,2.803,11.631,10.687,9.797,18.337C178.292,174.66,178.292,201.987,184.486,227.836z" data-original="#000000" class="active-path" data-old_color="#000000" fill="#39A1F7"/>
	</g>
</g><g>
	<g>
		<path d="M223.588,268.628c-20.002,0-36.275,16.273-36.275,36.275c0,20.002,16.273,36.275,36.275,36.275    c20.002,0,36.275-16.273,36.275-36.275C259.863,284.901,243.59,268.628,223.588,268.628z M223.588,325.914    c-11.585,0-21.011-9.426-21.011-21.011c0-11.585,9.426-21.011,21.011-21.011s21.011,9.426,21.011,21.011    C244.599,316.488,235.173,325.914,223.588,325.914z" data-original="#000000" class="active-path" data-old_color="#000000" fill="#39A1F7"/>
	</g>
</g></g> </svg>
