<?xml version="1.0"?>
<svg xmlns="http://www.w3.org/2000/svg" height="512px" viewBox="-11 0 512 512.00216" width="512px"><g><g fill-rule="evenodd"><path d="m465.957031 233.191406c-16.503906-17.273437-38.835937-26.789062-62.882812-26.789062-22.515625 0-43.832031 8.515625-60.019531 23.980468l-1.019532.972657 3.582032-38.65625 9.066406-97.738281c.003906-.007813.003906-.015626.003906-.023438 4.414062-47.703125-30.789062-90.109375-78.488281-94.558594-.015625-.003906-.027344-.003906-.042969-.003906-47.71875-4.417969-90.15625 30.800781-94.582031 78.527344 0 .011718-.003907.023437-.003907.035156l-9.0625 97.703125-2.054687 22.144531-41.265625-69.203125c-12.457031-20.882812-35.394531-33.855469-59.863281-33.855469-12.472657 0-24.726563 3.375-35.433594 9.761719-32.914063 19.628907-43.726563 62.378907-24.097656 95.292969l75.667969 126.886719c12.457031 20.882812 35.394531 33.855469 59.863281 33.855469 12.472656 0 24.722656-3.375 35.433593-9.757813 4.570313-2.726563 8.695313-5.910156 12.394532-9.441406 5.832031 5.15625 12.292968 9.484375 19.230468 12.882812l-7.433593 7.105469c-34.660157 33.109375-35.921875 88.242188-2.8125 122.898438 16.503906 17.277343 38.835937 26.792968 62.882812 26.792968 22.515625 0 43.832031-8.519531 60.019531-23.980468l138.105469-131.929688c16.726563-15.980469 26.234375-37.597656 26.765625-60.871094.53125-23.273437-7.972656-45.300781-23.953125-62.03125zm-421.820312-110.527344c7.609375-4.539062 16.320312-6.9375 25.1875-6.9375 17.464843 0 33.820312 9.234376 42.6875 24.101563l31.992187 53.652344c-14.808594 4.414062-30.292968 11.335937-45.476562 20.390625-15.183594 9.058594-28.636719 19.390625-39.558594 30.320312l-31.996094-53.652344c-13.980468-23.445312-6.28125-53.890624 17.164063-67.875zm126.378906 211.921876c-7.613281 4.539062-16.320313 6.9375-25.191406 6.9375-17.460938 0-33.820313-9.234376-42.683594-24.101563l-33.050781-55.421875c10.238281-11.019531 23.90625-21.84375 39.179687-30.953125 15.269531-9.105469 31.292969-15.988281 45.855469-19.757813l33.050781 55.425782c10.5 17.605468 8.769531 39.164062-2.675781 54.730468-.140625.171876-.273438.34375-.402344.523438-3.734375 4.9375-8.449218 9.257812-14.082031 12.617188zm34.964844-8.054688c11.984375-21.0625 12.644531-47.804688-.628907-70.0625l-17.015624-28.535156 3.917968-42.246094c8.957032-1.867188 18.667969-3.117188 28.996094-3.710938 5.511719-.316406 9.726562-5.042968 9.410156-10.558593-.316406-5.511719-5.042968-9.695313-10.554687-9.410157-9.058594.519532-17.730469 1.503907-25.925781 2.9375l7.808593-84.195312c0-.003906 0-.007812 0-.015625 3.414063-36.734375 36.070313-63.84375 72.808594-60.445313h.011719c36.742187 3.40625 63.863281 36.070313 60.464844 72.808594 0 .007813-.003907.011719-.003907.015625l-7.808593 84.195313c-7.789063-2.917969-16.132813-5.476563-24.9375-7.652344-5.359376-1.324219-10.78125 1.945312-12.105469 7.308594-1.328125 5.359375 1.945312 10.78125 7.308593 12.105468 10.039063 2.480469 19.355469 5.5 27.808594 8.980469l-5.042968 54.359375-91.871094 87.765625c-8.371094-2.984375-16.046875-7.605469-22.640625-13.644531zm105.746093 147.03125c-12.449218 11.890625-28.859374 18.441406-46.207031 18.441406-18.53125 0-35.726562-7.320312-48.421875-20.605468-25.488281-26.6875-24.519531-69.136719 2.167969-94.625l61.898437-59.132813c17.65625 9.894531 36.199219 24.613281 52.863282 42.058594 16.664062 17.445312 30.519531 36.640625 39.59375 54.730469zm138.101563-131.929688-61.152344 58.417969c-9.890625-18.207031-23.824219-37.039062-40.1875-54.164062-16.363281-17.128907-34.539062-31.914063-52.269531-42.625l61.148438-58.417969c12.449218-11.890625 28.859374-18.441406 46.207031-18.441406 18.53125 0 35.726562 7.320312 48.421875 20.605468 12.289062 12.867188 18.832031 29.828126 18.421875 47.757813-.410157 17.933594-7.722657 34.578125-20.589844 46.867187zm0 0" data-original="#000000" class="active-path" data-old_color="#000000" fill="#39A1F7"/><path d="m260.167969 162.777344c-5.507813 0-10 4.492187-10 10 0 5.507812 4.492187 10 10 10 5.507812 0 10-4.492188 10-10 0-5.507813-4.492188-10-10-10zm0 0" data-original="#000000" class="active-path" data-old_color="#000000" fill="#39A1F7"/></g></g> </svg>
