<svg id="baseline-mic_none-24px" xmlns="http://www.w3.org/2000/svg" width="20" height="20" viewBox="0 0 20 20">
  <path id="Path_675" data-name="Path 675" d="M10.833,12a2.49,2.49,0,0,0,2.492-2.5l.008-5a2.5,2.5,0,1,0-5,0v5A2.5,2.5,0,0,0,10.833,12Zm-1-7.583a1,1,0,1,1,2,0l-.008,5.167a1,1,0,1,1-1.992,0V4.417ZM15.25,9.5a4.324,4.324,0,0,1-4.417,4.25A4.324,4.324,0,0,1,6.417,9.5H5a5.82,5.82,0,0,0,5,5.6v2.733h1.667V15.1a5.806,5.806,0,0,0,5-5.6Z" transform="translate(-0.833 -0.333)" fill="#39a1f7"/>
  <path id="Path_676" data-name="Path 676" d="M0,0H20V20H0Z" fill="none"/>
</svg>
