<?xml version="1.0" standalone="no"?>
<!DOCTYPE svg PUBLIC "-//W3C//DTD SVG 1.1//EN" "http://www.w3.org/Graphics/SVG/1.1/DTD/svg11.dtd" >
<svg>
<metadata>
Created by FontForge 20090622 at Wed Jun 19 13:43:32 2019
 By deploy user
&#194;&#169; 2005-2014 HacenType, All Rights Reserved.
</metadata>
<defs>
<font id="HacenMaghrebBd" horiz-adv-x="1014" >
  <font-face 
    font-family="Hacen Maghreb Bd"
    font-weight="400"
    font-stretch="normal"
    units-per-em="2048"
    panose-1="2 0 5 0 0 0 0 0 0 0"
    ascent="1638"
    descent="-410"
    x-height="1102"
    cap-height="1449"
    bbox="-342 -511 2701 2134"
    underline-thickness="150"
    underline-position="-225"
    unicode-range="U+0020-U+FED8"
  />
<missing-glyph horiz-adv-x="1024" 
d="M100 0v1434h824v-1434h-824zM150 50h724v1334h-724v-1334zM325 1148q31 28 58 43q53 30 112 30q92 0 148 -47.5t56 -127.5q0 -49 -23 -98.5t-87 -129.5q-63 -80 -99 -132t-36 -99q0 -38 24 -133h-32q-35 97 -35 148q0 76 81.5 218t81.5 217q0 57 -33 90t-91 33
q-38 0 -69 -17q-26 -15 -56 -40v45zM389 334l57 58q11 10 20 10q10 0 22 -11l56 -60q9 -11 9 -20q0 -11 -10 -22l-56 -62q-14 -14 -21 -14q-11 0 -20 10l-61 71q-7 9 -7 18q0 10 11 22z" />
    <glyph glyph-name="uniFC5E" unicode="&#x651;&#x64c;" horiz-adv-x="484" arabic-form="isolated" 
d="M396 1846q13 -15 22.5 -33t17.5 -36q11 -32 13 -66v-13q0 -27 -6 -50q-8 -30 -26.5 -50.5t-47.5 -24.5q-9 -1 -17 -1q-13 0 -21 4q-14 7 -31 19q-4 -11 -11 -25t-18.5 -28t-27.5 -25.5t-38 -16.5q-16 -4 -29 -4q-15 0 -27 6q-23 9 -36.5 29t-19 47.5t-5.5 54.5q-1 2 -1 5
q0 23 4 43q4 22 9 33q0 -1 1 -1t4 3q5 4 10.5 10t10.5 10q2 2 3 2t1 -1q-5 -21 -6 -47q-1 -6 -1 -12q0 -20 5 -38q5 -23 19 -37q10 -11 27 -11q6 0 13 1q28 5 41 23t18 40.5t6.5 45.5t6.5 39q0 -1 1 -1q2 0 4 2q3 4 7.5 9t8.5 10q2 2 3 2t2 -1q-1 -7 -1 -15q0 -21 7 -39
q9 -24 26 -37q15 -13 36 -13q1 0 2 1q21 0 43 20q3 7 3 15q0 4 -1 8q-2 13 -8.5 26t-15 25t-17.5 21q11 20 19.5 37.5zM425 1928q-7 -12 -21 -28.5t-33 -34t-42 -33t-48 -26t-50 -12.5q-5 -1 -11 -1q-19 0 -37 7q-23 10 -25 27q-1 5 -1 10q0 12 4 26q5 19 11 36q3 7 3 13
q0 8 -5 14q-8 9 -34 9h-2q-29 -1 -91 -18q20 23 46.5 37.5t53.5 18.5q11 2 21 2q15 0 28 -3q23 -6 36 -21q10 -13 10 -34v-6q-2 -26 -24 -62q48 17 89.5 38t75.5 53q-43 9 -63 27t-23 40q-1 5 -1 10q0 17 9 35q11 23 31 41.5t46 30.5q24 10 48 10h4q22 -2 30 -21
q7 -18 7 -40v-3q-1 -24 -6.5 -46.5t-9.5 -31.5l40 -10l-18 -65zM403 2065q-5 5 -12 6.5t-12 1.5h-3q-12 0 -20 -7q-10 -8 -10 -18q-1 -3 -1 -5q0 -7 5 -11q5 -7 14 -12t21.5 -9.5l25.5 -9.5q2 17 2 30q0 11 -2 21.5t-8 14.5v-2z" />
    <glyph glyph-name="uniFC5F" unicode="&#x651;&#x64d;" horiz-adv-x="425" arabic-form="isolated" 
d="M370 2050q12 -15 21.5 -33.5t16.5 -36.5q10 -32 11 -66v-7q0 -30 -7 -56q-9 -29 -28 -49t-48 -24q-7 -1 -14 -1q-15 0 -24 5q-14 7 -31 20q-4 -11 -11.5 -25t-19 -27.5t-28 -24.5t-38.5 -16q-14 -3 -26 -3q-17 0 -30 6q-23 10 -35.5 31t-17.5 48q-5 25 -5 49q0 2 1 5
q0 26 4 48.5t10 32.5q0 -1 1 -1t4 3l10 10t11 10q2 2 3 2t1 -1q-6 -21 -8 -48q-1 -8 -1 -15q0 -19 4 -35q5 -23 19 -37q10 -12 28 -12q5 0 11 1q29 4 42.5 21t19 39.5t7 46t7.5 39.5q0 -1 2 -1q1 0 3 2q4 3 8.5 8.5t8.5 9.5q1 2 3 2q1 0 2 -1q-1 -10 -1 -19q0 -18 5 -34
q8 -25 24 -38.5t37 -13.5q22 0 45 20q4 7 4 15q0 4 -1 8q-2 12 -8 25t-14.5 25.5t-16.5 21.5l20 37t19 34zM391 1684l-350 -141l33 75l350 141zM381 1579l-350 -141l33 75l350 141z" />
    <glyph glyph-name="uniFC60" unicode="&#x651;&#x64e;" horiz-adv-x="425" arabic-form="isolated" 
d="M398 1823q5 -8 6 -12v-3q0 -3 -1 -6q-1 -4 -1 -8q-1 -1 -1 -2q0 -4 4 -12q12 -32 15 -66v-17q0 -24 -5 -46q-8 -30 -26 -51t-47 -26q-9 -1 -17 -1q-13 0 -22 4q-14 7 -31 18q-4 -11 -10.5 -25.5t-18 -28.5t-27 -25.5t-37.5 -16.5q-21 -6 -38 -6q-10 0 -18 3
q-22 5 -35 19.5t-17.5 35t-4.5 40.5q0 21 4.5 39.5t9.5 29.5q0 -1 1 -1t4 3q4 4 9 10t10 11q3 2 4 2t1 -1q-5 -21 -7 -40q-1 -6 -1 -12q0 -11 3 -20q4 -14 17 -19q7 -3 17 -3q9 0 21 2q28 5 41 23t17.5 40.5t5.5 46t6 39.5q0 -1 1 -1q2 0 4 2l7 9l8 10q2 2 4 2q1 0 2 -1
q-1 -7 -1 -14q0 -22 8 -40q9 -24 26 -36q15 -12 34 -12h4q21 1 42 21q3 7 3 15q0 4 -1 8q-2 13 -8.5 25.5t-15.5 24.5t-18 21q5 10 14.5 15.5t20 10t20 9.5t15.5 13zM401 1903l-340 -193l17 91l340 193z" />
    <glyph glyph-name="uniFC61" unicode="&#x651;&#x64f;" horiz-adv-x="437" arabic-form="isolated" 
d="M372 1846q13 -15 22.5 -33t17.5 -36q11 -32 13 -66v-13q0 -27 -6 -50q-8 -30 -26.5 -50.5t-47.5 -24.5q-9 -1 -17 -1q-13 0 -21 4q-14 7 -31 19q-4 -11 -11 -25t-18.5 -28t-27.5 -25.5t-38 -16.5q-16 -4 -29 -4q-15 0 -27 6q-23 9 -36.5 29t-19 47.5t-5.5 54.5q-1 2 -1 5
q0 23 4 43q4 22 9 33q0 -1 1 -1t4 3q5 4 10.5 10t10.5 10q2 2 3 2t1 -1q-5 -21 -6 -47q-1 -6 -1 -12q0 -20 5 -38q5 -23 19 -37q10 -11 27 -11q6 0 13 1q28 5 41 23t18 40.5t6.5 45.5t6.5 39q0 -1 1 -1q2 0 4 2q3 4 7.5 9t8.5 10q2 2 3 2t2 -1q-1 -7 -1 -15q0 -21 7 -39
q9 -24 26 -37q15 -13 36 -13q1 0 2 1q21 0 43 20q3 7 3 15q0 4 -1 8q-2 13 -8.5 26t-15 25t-17.5 21q11 20 19.5 37.5zM347 1915q-11 -18 -37 -41t-61.5 -43.5t-76.5 -33.5q-36 -12 -72 -12h-11q-57 4 -75 4q-13 0 -13 1t1 1l103 34t77 28t61.5 31t54.5 43q-46 8 -67.5 26.5
t-24.5 40.5q-1 5 -1 10q0 17 9 35q12 23 33 42t49 31q25 10 51 10h4q23 -1 31 -20q8 -18 8 -41v-2q-1 -25 -7 -48t-10 -33l43 -10l-19 -63zM322 2054q-5 5 -11.5 6.5t-11.5 1.5h-4q-14 0 -22 -7q-10 -8 -11 -19v-3q0 -18 19 -26q21 -10 50 -18q2 16 2 30q0 11 -2 22t-9 14
v-1z" />
    <glyph glyph-name="uniFC62" unicode="&#x651;&#x650;" horiz-adv-x="425" arabic-form="isolated" 
d="M385 1972q12 -15 21.5 -33.5t16.5 -36.5q10 -32 11 -66v-7q0 -30 -7 -56q-9 -29 -28 -49t-48 -24q-7 -1 -14 -1q-15 0 -24 5q-14 7 -31 20q-4 -11 -11.5 -25t-19 -27.5t-28 -24.5t-38.5 -16q-14 -3 -26 -3q-17 0 -30 6q-23 10 -35.5 31t-17.5 48q-5 25 -5 49q0 2 1 5
q0 26 4 48t10 33q0 -1 1 -1t4 3l10 10t11 10q2 2 3 2t1 -1q-6 -21 -8 -48q-1 -8 -1 -15q0 -19 4 -35q5 -23 19 -37q10 -12 28 -12q5 0 11 1q29 4 42.5 21t19 39.5t7 46t7.5 39.5q0 -1 2 -1q1 0 3 2q4 3 8.5 8.5t8.5 9.5q1 2 3 2q1 0 2 -1q-1 -10 -1 -19q0 -18 5 -34
q8 -25 24 -38.5t37 -13.5q22 0 45 20q4 7 4 15q0 4 -1 8q-2 12 -8 25t-14.5 25.5t-16.5 21.5l20 37t19 34zM422 1590l-340 -193l17 91l340 193z" />
    <glyph glyph-name="afii57409" unicode="&#x621;" horiz-adv-x="827" arabic-form="isolated" 
d="M203 326q-21 20 -55 89q-29 62 -29 121v15q4 74 55 129q83 92 244 92q70 0 131 -21q61 -23 105 -65q22 -20 38 -47q16 -25 35 -75l-210 -43q-9 30 -16 40q-5 9 -14 16q-11 12 -27 17q-18 7 -42 7q-51 0 -70 -20q-12 -15 -14 -38v-6q0 -29 15 -60q49 -99 181 -151h178
v-172h-628v172h123z" />
    <glyph glyph-name="afii57410" unicode="&#x622;" horiz-adv-x="482" arabic-form="isolated" 
d="M354 1350v-1130h-215v1130h215zM382 1501v-77h-282v77h282z" />
    <glyph glyph-name="afii57411" unicode="&#x623;" horiz-adv-x="484" arabic-form="isolated" 
d="M350 1350v-1130h-215v1130h215zM147 1500q-17 28 -20 60v10q0 21 7 41q24 67 107 67q52 0 87 -27q31 -25 40 -68l-82 -10q-5 24 -18 35q-10 7 -27 7q-19 0 -27 -20q-4 -10 -4 -22q0 -4 1 -9q1 -18 9 -33q14 -26 34 -31h130v-62h-284v62h47z" />
    <glyph glyph-name="afii57412" unicode="&#x624;" horiz-adv-x="1065" arabic-form="isolated" 
d="M650 -53q43 52 67 96q33 64 38 111h-175q-230 0 -371 148q-129 133 -129 344q0 225 124 358q137 144 377 145h3q136 0 244 -48q157 -68 157 -197v-586q0 -191 -91 -342q-31 -60 -86 -125q-50 -60 -130 -134l-150 106q79 73 122 124zM770 904q0 28 -46 48q-60 26 -140 26
h-3q-131 0 -204 -78q-82 -86 -82 -254q0 -153 84 -239q78 -81 221 -81v-1h170v579zM435 1323q-23 38 -27 82q-1 9 -1 18q0 28 10 53q33 92 147 92q73 0 121 -38q43 -34 55 -93l-113 -14q-8 33 -25 48q-14 10 -38 10q-26 0 -37 -28q-4 -14 -4 -31v-12q2 -24 13 -45
q19 -36 47 -42h179v-86h-392v86h65z" />
    <glyph glyph-name="afii57413" unicode="&#x625;" horiz-adv-x="484" arabic-form="isolated" 
d="M358 1350v-1130h-215v1130h215zM147 -37q-17 28 -20 60v10q0 21 7 41q24 67 107 67q52 0 87 -27q31 -25 40 -68l-82 -10q-5 24 -18 35q-10 7 -27 7q-19 0 -27 -20q-4 -10 -4 -22q0 -4 1 -9q1 -18 9 -33q14 -26 34 -31h130v-62h-284v62h47z" />
    <glyph glyph-name="afii57414" unicode="&#x626;" horiz-adv-x="1471" arabic-form="isolated" 
d="M335 504q-8 -52 -8 -109q0 -119 73 -200q74 -82 213 -119q89 -23 209 -23q141 1 232 38q95 39 116 117q6 23 6 47v7q0 92 -71 138q-45 28 -164 56l-9 2l-3 1q-137 37 -208 101q-98 88 -99 237q0 151 119 252q118 100 304 100h9q55 0 110 -11q60 -14 132 -49l-123 -142
q-36 18 -65 24q-33 7 -63 7q-93 0 -147 -46q-61 -52 -61 -135q1 -83 44 -123q34 -30 113 -52l7 -1q186 -43 261 -93q129 -87 129 -266q0 -49 -11 -89q-41 -159 -227 -235q-137 -55 -330 -56q-128 0 -248 32q-206 54 -320 181q-112 124 -112 297v3q0 68 8 129q8 62 33 134
l179 -39q-21 -64 -28 -115zM165 870q-23 38 -27 82q-1 9 -1 18q0 28 10 53q33 92 147 92q73 0 121 -38q43 -34 55 -93l-113 -14q-8 33 -25 48q-14 10 -38 10q-26 0 -37 -28q-4 -14 -4 -31v-12q2 -24 13 -45q19 -36 47 -42h179v-86h-392v86h65z" />
    <glyph glyph-name="afii57415" unicode="&#x627;" horiz-adv-x="395" arabic-form="isolated" 
d="M295 1350v-1130h-215v1130h215z" />
    <glyph glyph-name="afii57416" unicode="&#x628;" horiz-adv-x="1687" arabic-form="isolated" 
d="M772 -109q0 23 9 43t24 35t34.5 23.5t41.5 8.5t42 -8.5t35 -23.5t23.5 -35t8.5 -43t-8.5 -42.5t-23.5 -34t-35 -23t-42 -8.5t-41.5 8.5t-34.5 23t-24 34t-9 42.5zM272 739q-7 -37 -7 -82q0 -168 82 -254q73 -77 204 -77h555q131 0 204 77q82 86 82 254v313h215v-313
q0 -225 -124 -358q-137 -145 -377 -145h-525q-240 0 -377 145q-124 133 -124 358q0 55 9 108q10 52 36 115l176 -50q-22 -53 -29 -91z" />
    <glyph glyph-name="afii57417" unicode="&#x629;" horiz-adv-x="1065" arabic-form="isolated" 
d="M879 298q-66 -73 -162 -110q-83 -33 -175 -33q-17 0 -33 1q-111 7 -204 62q-225 129 -225 428q0 225 124 358q137 144 377 145h3q136 0 244 -48q157 -68 157 -197v-362q0 -122 -106 -244zM770 904q0 28 -46 48q-60 26 -140 26h-3q-131 0 -204 -78q-82 -86 -82 -254
q0 -211 137 -291q45 -25 95 -28q8 -1 16 -1q41 0 80 16q126 49 147 201v361zM568 1330q0 23 9 43t24 35t35 23.5t43 8.5q22 0 41.5 -8.5t34 -23.5t23 -35t8.5 -43t-8.5 -42.5t-23 -34t-34 -23t-41.5 -8.5q-23 0 -43 8.5t-35 23t-24 34t-9 42.5zM307 1330q0 23 9 43t24 35
t34.5 23.5t41.5 8.5t42 -8.5t35 -23.5t23.5 -35t8.5 -43t-8.5 -42.5t-23.5 -34t-35 -23t-42 -8.5t-41.5 8.5t-34.5 23t-24 34t-9 42.5z" />
    <glyph glyph-name="afii57418" unicode="&#x62a;" horiz-adv-x="1687" arabic-form="isolated" 
d="M879 1021q0 23 9 43t24 35t35 23.5t43 8.5q22 0 41.5 -8.5t34 -23.5t23 -35t8.5 -43t-8.5 -42.5t-23 -34t-34 -23t-41.5 -8.5q-23 0 -43 8.5t-35 23t-24 34t-9 42.5zM618 1021q0 23 9 43t24 35t34.5 23.5t41.5 8.5t42 -8.5t35 -23.5t23.5 -35t8.5 -43t-8.5 -42.5
t-23.5 -34t-35 -23t-42 -8.5t-41.5 8.5t-34.5 23t-24 34t-9 42.5zM272 739q-7 -37 -7 -82q0 -168 82 -254q73 -77 204 -77h555q131 0 204 77q82 86 82 254v313h215v-313q0 -225 -124 -358q-137 -145 -377 -145h-525q-240 0 -377 145q-124 133 -124 358q0 55 9 108
q10 52 36 115l176 -50q-22 -53 -29 -91z" />
    <glyph glyph-name="afii57419" unicode="&#x62b;" horiz-adv-x="1687" arabic-form="isolated" 
d="M901 1027q0 23 9 43t24 35t35 23.5t43 8.5q22 0 41.5 -8.5t34 -23.5t23 -35t8.5 -43t-8.5 -42.5t-23 -34t-34 -23t-41.5 -8.5q-23 0 -43 8.5t-35 23t-24 34t-9 42.5zM737 1285q0 23 9 43t24 35t34.5 23.5t41.5 8.5t42 -8.5t35 -23.5t23.5 -35t8.5 -43t-8.5 -42.5
t-23.5 -34t-35 -23t-42 -8.5t-41.5 8.5t-34.5 23t-24 34t-9 42.5zM572 1027q0 23 9 43t24 35t34.5 23.5t41.5 8.5t42 -8.5t35 -23.5t23.5 -35t8.5 -43t-8.5 -42.5t-23.5 -34t-35 -23t-42 -8.5t-41.5 8.5t-34.5 23t-24 34t-9 42.5zM272 739q-7 -37 -7 -82q0 -168 82 -254
q73 -77 204 -77h555q131 0 204 77q82 86 82 254v313h215v-313q0 -225 -124 -358q-137 -145 -377 -145h-525q-240 0 -377 145q-124 133 -124 358q0 55 9 108q10 52 36 115l176 -50q-22 -53 -29 -91z" />
    <glyph glyph-name="afii57420" unicode="&#x62c;" horiz-adv-x="1413" arabic-form="isolated" 
d="M553 154q-114 0 -186 -70q-50 -49 -69 -121q-9 -36 -9 -70q0 -37 10 -72q28 -94 133 -152l-107 -139q-169 92 -215 252q-16 55 -16 111q0 52 14 104q29 113 112 195q137 134 353 134h529q-2 12 -10 85q-32 282 -78 391q-75 176 -252 176q-64 0 -114 -18q-49 -17 -84 -51
q-20 -20 -35 -44q-17 -25 -34 -72l-209 43q26 68 51 108q26 41 60 73q68 66 162 100q93 33 203 33q309 0 434 -238q72 -138 110 -486q14 -121 23 -174q1 -6 1 -12q0 -32 -26 -56q-27 -25 -70 -29q-10 -1 -19 -1h-662zM684 -110q0 23 9 43t24 35t34.5 23.5t41.5 8.5t42 -8.5
t35 -23.5t23.5 -35t8.5 -43t-8.5 -42.5t-23.5 -34t-35 -23t-42 -8.5t-41.5 8.5t-34.5 23t-24 34t-9 42.5z" />
    <glyph glyph-name="afii57421" unicode="&#x62d;" horiz-adv-x="1433" arabic-form="isolated" 
d="M553 154q-114 0 -186 -70q-50 -49 -69 -121q-9 -36 -9 -70q0 -37 10 -72q28 -94 133 -152l-107 -139q-169 92 -215 252q-16 55 -16 111q0 52 14 104q29 113 112 195q137 134 353 134h529q-2 12 -10 85q-32 282 -78 391q-75 176 -252 176q-64 0 -114 -18q-49 -17 -84 -51
q-20 -20 -35 -44q-17 -25 -34 -72l-209 43q26 68 51 108q26 41 60 73q68 66 162 100q93 33 203 33q309 0 434 -238q72 -138 110 -486q14 -121 23 -174q1 -6 1 -12q0 -32 -26 -56q-27 -25 -70 -29q-10 -1 -19 -1h-662z" />
    <glyph glyph-name="afii57422" unicode="&#x62e;" horiz-adv-x="1413" arabic-form="isolated" 
d="M553 154q-114 0 -186 -70q-50 -49 -69 -121q-9 -36 -9 -70q0 -37 10 -72q28 -94 133 -152l-107 -139q-169 92 -215 252q-16 55 -16 111q0 52 14 104q29 113 112 195q137 134 353 134h529q-2 12 -10 85q-32 282 -78 391q-75 176 -252 176q-64 0 -114 -18q-49 -17 -84 -51
q-20 -20 -35 -44q-17 -25 -34 -72l-209 43q26 68 51 108q26 41 60 73q68 66 162 100q93 33 203 33q309 0 434 -238q72 -138 110 -486q14 -121 23 -174q1 -6 1 -12q0 -32 -26 -56q-27 -25 -70 -29q-10 -1 -19 -1h-662zM647 1331q0 23 9 43t24 35t34.5 23.5t41.5 8.5t42 -8.5
t35 -23.5t23.5 -35t8.5 -43t-8.5 -42.5t-23.5 -34t-35 -23t-42 -8.5t-41.5 8.5t-34.5 23t-24 34t-9 42.5z" />
    <glyph glyph-name="afii57423" unicode="&#x62f;" horiz-adv-x="900" arabic-form="isolated" 
d="M209 1150q329 0 454 -238q72 -138 110 -486q14 -121 23 -174q1 -6 1 -12q0 -32 -26 -56q-27 -25 -70 -29q-10 -1 -19 -1h-432q-99 0 -180 35l-70 30l82 187q54 -51 91 -67q32 -13 77 -13l319 -1q-2 14 -10 86q-32 282 -78 391q-75 176 -272 176v172z" />
    <glyph glyph-name="afii57424" unicode="&#x630;" horiz-adv-x="883" arabic-form="isolated" 
d="M212 1150q329 0 454 -238q72 -138 110 -486q14 -121 23 -174q1 -6 1 -12q0 -32 -26 -56q-27 -25 -70 -29q-10 -1 -19 -1h-432q-99 0 -180 35l-70 30l82 187q54 -51 91 -67q32 -13 77 -13l319 -1q-2 14 -10 86q-32 282 -78 391q-75 176 -272 176v172zM210 1382q0 23 9 43
t24 35t34.5 23.5t41.5 8.5t42 -8.5t35 -23.5t23.5 -35t8.5 -43t-8.5 -42.5t-23.5 -34t-35 -23t-42 -8.5t-41.5 8.5t-34.5 23t-24 34t-9 42.5z" />
    <glyph glyph-name="afii57425" unicode="&#x631;" horiz-adv-x="536" arabic-form="isolated" 
d="M91 -53q43 52 67 96q63 118 63 270v657h215v-652q0 -190 -80 -341q-32 -61 -87 -126q-50 -60 -130 -133l-171 104q80 74 123 125z" />
    <glyph glyph-name="afii57426" unicode="&#x632;" horiz-adv-x="516" arabic-form="isolated" 
d="M78 -53q43 52 67 96q63 118 63 270v657h215v-652q0 -190 -80 -341q-32 -61 -87 -126q-50 -60 -130 -133l-171 104q80 74 123 125zM198 1209q0 23 9 43t24 35t34.5 23.5t41.5 8.5t42 -8.5t35 -23.5t23.5 -35t8.5 -43t-8.5 -42.5t-23.5 -34t-35 -23t-42 -8.5t-41.5 8.5
t-34.5 23t-24 34t-9 42.5z" />
    <glyph glyph-name="afii57427" unicode="&#x633;" horiz-adv-x="2481" arabic-form="isolated" 
d="M1218 472q12 -57 49 -95q50 -51 127 -51q81 0 130 50q57 58 57 166v428h215v-428q0 -107 56 -165q50 -51 127 -51q81 0 130 50q56 58 56 166v428h216v-428q0 -166 -102 -271q-114 -117 -300 -117q-183 0 -290 111q-109 -111 -295 -111q-131 0 -202 45q-29 -113 -126 -213
q-165 -169 -434 -169q-236 0 -401 172q-151 156 -151 406q0 68 10 130t38 136l176 -45q-23 -63 -30 -113q-9 -51 -9 -108q0 -192 106 -301q102 -105 261 -105q164 0 265 103q106 109 106 303v575h215v-498z" />
    <glyph glyph-name="afii57428" unicode="&#x634;" horiz-adv-x="2461" arabic-form="isolated" 
d="M1218 472q12 -57 49 -95q50 -51 127 -51q81 0 130 50q57 58 57 166v428h215v-428q0 -107 56 -165q50 -51 127 -51q81 0 130 50q56 58 56 166v428h216v-428q0 -166 -102 -271q-114 -117 -300 -117q-183 0 -290 111q-109 -111 -295 -111q-131 0 -202 45q-29 -113 -126 -213
q-165 -169 -434 -169q-236 0 -401 172q-151 156 -151 406q0 68 10 130t38 136l176 -45q-23 -63 -30 -113q-9 -51 -9 -108q0 -192 106 -301q102 -105 261 -105q164 0 265 103q106 109 106 303v575h215v-498zM1744 1224q0 23 9 43t24 35t35 23.5t43 8.5q22 0 41.5 -8.5
t34 -23.5t23 -35t8.5 -43t-8.5 -42.5t-23 -34t-34 -23t-41.5 -8.5q-23 0 -43 8.5t-35 23t-24 34t-9 42.5zM1580 1482q0 23 9 43t24 35t34.5 23.5t41.5 8.5t42 -8.5t35 -23.5t23.5 -35t8.5 -43t-8.5 -42.5t-23.5 -34t-35 -23t-42 -8.5t-41.5 8.5t-34.5 23t-24 34t-9 42.5z
M1415 1224q0 23 9 43t24 35t34.5 23.5t41.5 8.5t42 -8.5t35 -23.5t23.5 -35t8.5 -43t-8.5 -42.5t-23.5 -34t-35 -23t-42 -8.5t-41.5 8.5t-34.5 23t-24 34t-9 42.5z" />
    <glyph glyph-name="afii57429" unicode="&#x635;" horiz-adv-x="2663" arabic-form="isolated" 
d="M2064 326q122 0 200 81q84 86 84 239q0 168 -82 255q-73 77 -204 77h-555q-131 0 -204 -77q-82 -87 -82 -255v-320h843zM1003 691q-4 244 -60 327l176 106q38 -63 48 -112q92 136 340 138h555q240 0 377 -146q124 -132 124 -358q0 -211 -129 -344q-141 -148 -370 -148
h-889q-33 -90 -109 -168q-165 -169 -434 -169q-236 0 -401 172q-151 156 -151 406q0 68 10 130t38 136l176 -45q-23 -63 -30 -113q-9 -51 -9 -108q0 -192 106 -301q102 -105 261 -105q164 0 265 103q106 109 106 303v296z" />
    <glyph glyph-name="afii57430" unicode="&#x636;" horiz-adv-x="2643" arabic-form="isolated" 
d="M2064 326q122 0 200 81q84 86 84 239q0 168 -82 255q-73 77 -204 77h-555q-131 0 -204 -77q-82 -87 -82 -255v-320h843zM1003 691q-4 244 -60 327l176 106q38 -63 48 -112q92 136 340 138h555q240 0 377 -146q124 -132 124 -358q0 -211 -129 -344q-141 -148 -370 -148
h-889q-33 -90 -109 -168q-165 -169 -434 -169q-236 0 -401 172q-151 156 -151 406q0 68 10 130t38 136l176 -45q-23 -63 -30 -113q-9 -51 -9 -108q0 -192 106 -301q102 -105 261 -105q164 0 265 103q106 109 106 303v296zM1632 1328q0 23 9 43t24 35t34.5 23.5t41.5 8.5
t42 -8.5t35 -23.5t23.5 -35t8.5 -43t-8.5 -42.5t-23.5 -34t-35 -23t-42 -8.5t-41.5 8.5t-34.5 23t-24 34t-9 42.5z" />
    <glyph glyph-name="afii57431" unicode="&#x637;" horiz-adv-x="1738" arabic-form="isolated" 
d="M1139 326q122 0 200 81q84 86 84 239q0 168 -82 255q-73 77 -204 77h-555q-131 0 -204 -77q-82 -87 -82 -255v-320h843zM295 1029q94 121 287 121h555q240 0 377 -146q124 -132 124 -358q0 -211 -129 -344q-141 -148 -370 -148h-1058v40h-1v1156h215v-321z" />
    <glyph glyph-name="afii57432" unicode="&#x638;" horiz-adv-x="1718" arabic-form="isolated" 
d="M1139 326q122 0 200 81q84 86 84 239q0 168 -82 255q-73 77 -204 77h-555q-131 0 -204 -77q-82 -87 -82 -255v-320h843zM295 1029q94 121 287 121h555q240 0 377 -146q124 -132 124 -358q0 -211 -129 -344q-141 -148 -370 -148h-1058v40h-1v1156h215v-321zM674 1337
q0 23 9 43t24 35t34.5 23.5t41.5 8.5t42 -8.5t35 -23.5t23.5 -35t8.5 -43t-8.5 -42.5t-23.5 -34t-35 -23t-42 -8.5t-41.5 8.5t-34.5 23t-24 34t-9 42.5z" />
    <glyph glyph-name="afii57433" unicode="&#x639;" horiz-adv-x="1409" arabic-form="isolated" 
d="M553 154q-114 0 -186 -70q-50 -49 -69 -121q-9 -36 -9 -70q0 -37 10 -72q28 -94 133 -152l-107 -139q-169 92 -215 252q-16 55 -16 111q0 52 14 104q29 113 112 195q95 93 195 114q-125 129 -125 340q0 226 124 358q138 146 377 146q110 0 204 -33q94 -34 161 -100
q34 -32 60 -73q26 -40 51 -108l-209 -43q-17 47 -33 72q-15 24 -36 44q-35 34 -84 51q-49 18 -114 18q-131 0 -203 -77q-83 -87 -83 -255q0 -153 84 -239q78 -81 201 -81h519v-172h-756z" />
    <glyph glyph-name="afii57434" unicode="&#x63a;" horiz-adv-x="1389" arabic-form="isolated" 
d="M553 154q-114 0 -186 -70q-50 -49 -69 -121q-9 -36 -9 -70q0 -37 10 -72q28 -94 133 -152l-107 -139q-169 92 -215 252q-16 55 -16 111q0 52 14 104q29 113 112 195q95 93 195 114q-125 129 -125 340q0 226 124 358q138 146 377 146q110 0 204 -33q94 -34 161 -100
q34 -32 60 -73q26 -40 51 -108l-209 -43q-17 47 -33 72q-15 24 -36 44q-35 34 -84 51q-49 18 -114 18q-131 0 -203 -77q-83 -87 -83 -255q0 -153 84 -239q78 -81 201 -81h519v-172h-756zM639 1337q0 23 9 43t24 35t34.5 23.5t41.5 8.5t42 -8.5t35 -23.5t23.5 -35t8.5 -43
t-8.5 -42.5t-23.5 -34t-35 -23t-42 -8.5t-41.5 8.5t-34.5 23t-24 34t-9 42.5z" />
    <glyph glyph-name="afii57441" unicode="&#x641;" horiz-adv-x="1842" arabic-form="isolated" 
d="M1445 901q-72 77 -205 77q-131 0 -203 -77q-83 -87 -83 -255q0 -153 84 -239q78 -81 201 -81q127 0 204 79q84 86 84 241q0 170 -82 255zM581 154q-240 0 -377 145q-124 133 -124 358q0 55 9 108q10 52 36 115l176 -50q-22 -53 -29 -91q-7 -37 -7 -82q0 -168 82 -254
q73 -77 204 -77h293q-105 109 -105 320q0 226 124 358q138 146 377 146q241 0 378 -145q124 -132 124 -359q0 -213 -130 -346q-142 -146 -373 -146h-658zM1147 1338q0 23 9 43t24 35t34.5 23.5t41.5 8.5t42 -8.5t35 -23.5t23.5 -35t8.5 -43t-8.5 -42.5t-23.5 -34t-35 -23
t-42 -8.5t-41.5 8.5t-34.5 23t-24 34t-9 42.5z" />
    <glyph glyph-name="afii57442" unicode="&#x642;" horiz-adv-x="1441" arabic-form="isolated" 
d="M1126 904q0 28 -46 48q-60 26 -140 26h-3q-131 0 -204 -78q-82 -86 -82 -254q0 -153 84 -239q78 -81 221 -81v-1h170v579zM1112 154h-176q-230 0 -371 148q-129 133 -129 344q0 225 124 358q137 144 377 145h3q136 0 244 -48q157 -68 157 -197v-586q0 -72 -15 -120
q-20 -121 -164.5 -249t-437.5 -132q-271 0 -462 166q-182 158 -182 432h185q0 -208 125 -316q127 -110 334 -110q213 0 339 108q48 39 49 57zM916 1353q0 23 9 43t24 35t35 23.5t43 8.5q22 0 41.5 -8.5t34 -23.5t23 -35t8.5 -43t-8.5 -42.5t-23 -34t-34 -23t-41.5 -8.5
q-23 0 -43 8.5t-35 23t-24 34t-9 42.5zM655 1353q0 23 9 43t24 35t34.5 23.5t41.5 8.5t42 -8.5t35 -23.5t23.5 -35t8.5 -43t-8.5 -42.5t-23.5 -34t-35 -23t-42 -8.5t-41.5 8.5t-34.5 23t-24 34t-9 42.5z" />
    <glyph glyph-name="afii57443" unicode="&#x643;" horiz-adv-x="1707" arabic-form="isolated" 
d="M272 739q-7 -37 -7 -82q0 -168 82 -254q73 -77 204 -77h555q131 0 204 77q82 86 82 254v693h215v-693q0 -225 -124 -358q-137 -145 -377 -145h-525q-240 0 -377 145q-124 133 -124 358q0 55 9 108q10 52 36 115l176 -50q-22 -53 -29 -91zM676 808q-13 13 -42 72
q-26 51 -26 102q0 8 1 16q3 63 48 112q72 78 211 78q167 -8 249 -184l-164 -36q-30 84 -93 84q-16 0 -34 -5q-56 -17 -56 -64q0 -28 21 -68q54 -105 174 -107h156v-152h-546v152h101z" />
    <glyph glyph-name="afii57444" unicode="&#x644;" horiz-adv-x="1153" arabic-form="isolated" 
d="M1053 1350v-1039q0 -213 -130 -346q-142 -146 -374 -146q-199 0 -340 148q-129 133 -129 344q0 58 8 110q9 52 32 118l179 -45q-21 -54 -27 -95q-7 -41 -7 -88q0 -153 84 -239q78 -81 200 -81q128 0 205 79q84 86 84 241v1039h215z" />
    <glyph glyph-name="afii57445" unicode="&#x645;" horiz-adv-x="1275" arabic-form="isolated" 
d="M935 901q-72 77 -205 77q-131 0 -203 -77q-83 -87 -83 -255q0 -153 84 -239q78 -81 201 -81q127 0 204 79q84 86 84 241q0 170 -82 255zM229 646q0 226 124 358q138 146 377 146q241 0 378 -145q124 -132 124 -359q0 -213 -130 -346q-142 -146 -373 -146q-189 0 -292 80
q-24 -127 -93 -257q-32 -61 -87 -126q-50 -60 -130 -134l-150 106q79 73 122 124q43 52 67 96q63 118 63 270v333z" />
    <glyph glyph-name="afii57446" unicode="&#x646;" horiz-adv-x="1318" arabic-form="isolated" 
d="M274 503q-9 -51 -9 -108q0 -192 106 -301q102 -105 261 -105q164 0 265 103q106 109 106 303v575h215v-575q0 -252 -152 -409q-165 -169 -434 -169q-236 0 -401 172q-151 156 -151 406q0 68 10 130t38 136l176 -45q-23 -63 -30 -113zM569 1127q0 23 9 43t24 35t34.5 23.5
t41.5 8.5t42 -8.5t35 -23.5t23.5 -35t8.5 -43t-8.5 -42.5t-23.5 -34t-35 -23t-42 -8.5t-41.5 8.5t-34.5 23t-24 34t-9 42.5z" />
    <glyph glyph-name="afii57470" unicode="&#x647;" horiz-adv-x="1085" arabic-form="isolated" 
d="M879 298q-66 -73 -162 -110q-83 -33 -175 -33q-17 0 -33 1q-111 7 -204 62q-225 129 -225 428q0 225 124 358q137 144 377 145h3q136 0 244 -48q157 -68 157 -197v-362q0 -122 -106 -244zM770 904q0 28 -46 48q-60 26 -140 26h-3q-131 0 -204 -78q-82 -86 -82 -254
q0 -211 137 -291q45 -25 95 -28q8 -1 16 -1q41 0 80 16q126 49 147 201v361z" />
    <glyph glyph-name="afii57448" unicode="&#x648;" horiz-adv-x="1085" arabic-form="isolated" 
d="M650 -53q43 52 67 96q33 64 38 111h-175q-230 0 -371 148q-129 133 -129 344q0 225 124 358q137 144 377 145h3q136 0 244 -48q157 -68 157 -197v-586q0 -191 -91 -342q-31 -60 -86 -125q-50 -60 -130 -134l-150 106q79 73 122 124zM770 904q0 28 -46 48q-60 26 -140 26
h-3q-131 0 -204 -78q-82 -86 -82 -254q0 -153 84 -239q78 -81 221 -81v-1h170v579z" />
    <glyph glyph-name="afii57449" unicode="&#x649;" horiz-adv-x="1358" arabic-form="isolated" 
d="M273 504q-8 -52 -8 -109q0 -119 73 -200q74 -82 213 -119q89 -23 209 -23q141 1 232 38q95 39 116 117q6 23 6 47v7q0 92 -71 138q-45 28 -164 56l-9 2l-3 1q-137 37 -208 101q-98 88 -99 237q0 151 119 252q118 100 304 100h9q55 0 110 -11q60 -14 132 -49l-123 -142
q-36 18 -65 24q-33 7 -63 7q-93 0 -147 -46q-61 -52 -61 -135q1 -83 44 -123q34 -30 113 -52l7 -1q186 -43 261 -93q129 -87 129 -266q0 -49 -11 -89q-41 -159 -227 -235q-137 -55 -330 -56q-128 0 -248 32q-206 54 -320 181q-112 124 -112 297v3q0 68 8 129q8 62 33 134
l179 -39q-21 -64 -28 -115z" />
    <glyph glyph-name="afii57450" unicode="&#x64a;" horiz-adv-x="1358" arabic-form="isolated" 
d="M273 504q-8 -52 -8 -109q0 -119 73 -200q74 -82 213 -119q89 -23 209 -23q141 1 232 38q95 39 116 117q6 23 6 47v7q0 92 -71 138q-45 28 -164 56l-9 2l-3 1q-137 37 -208 101q-98 88 -99 237q0 151 119 252q118 100 304 100h9q55 0 110 -11q60 -14 132 -49l-123 -142
q-36 18 -65 24q-33 7 -63 7q-93 0 -147 -46q-61 -52 -61 -135q1 -83 44 -123q34 -30 113 -52l7 -1q186 -43 261 -93q129 -87 129 -266q0 -49 -11 -89q-41 -159 -227 -235q-137 -55 -330 -56q-128 0 -248 32q-206 54 -320 181q-112 124 -112 297v3q0 68 8 129q8 62 33 134
l179 -39q-21 -64 -28 -115zM737 -308q0 23 9 43t24 35t35 23.5t43 8.5q22 0 41.5 -8.5t34 -23.5t23 -35t8.5 -43t-8.5 -42.5t-23 -34t-34 -23t-41.5 -8.5q-23 0 -43 8.5t-35 23t-24 34t-9 42.5zM476 -308q0 23 9 43t24 35t34.5 23.5t41.5 8.5t42 -8.5t35 -23.5t23.5 -35
t8.5 -43t-8.5 -42.5t-23.5 -34t-35 -23t-42 -8.5t-41.5 8.5t-34.5 23t-24 34t-9 42.5z" />
    <glyph glyph-name="uniFE86" unicode="&#x622;" horiz-adv-x="1108" arabic-form="final" 
d="M770 904q0 28 -46 48q-60 26 -140 26h-3q-131 0 -204 -78q-82 -86 -82 -254q0 -153 84 -239q78 -81 221 -81v-1h170v579zM966 154q-18 -88 -72 -178q-31 -60 -86 -125q-50 -60 -130 -134l-150 106q79 73 122 124q43 52 67 96q33 64 38 111h-175q-230 0 -371 148
q-129 133 -129 344q0 225 124 358q137 144 377 145h3q136 0 244 -48q157 -68 157 -197v-578h178v-172h-197zM468 1323q-23 38 -27 82q-1 9 -1 18q0 28 10 53q33 92 147 92q73 0 121 -38q43 -34 55 -93l-113 -14q-8 33 -25 48q-14 10 -38 10q-26 0 -37 -28q-4 -14 -4 -31v-12
q2 -24 13 -45q19 -36 47 -42h179v-86h-392v86h65z" />
    <glyph glyph-name="uniFE8A" unicode="&#x623;" horiz-adv-x="1575" arabic-form="final" 
d="M1630 154h-62q-110 0 -209 40q0 -48 -11 -89q-41 -158 -227 -234q-137 -56 -330 -57q-158 0 -278 32q-206 54 -320 182q-113 124 -113 299q0 70 9 129q8 63 33 134l209 -38q-21 -65 -28 -115q-8 -52 -8 -110q0 -118 73 -200q74 -81 213 -119q85 -22 199 -22h10
q141 0 231 38q96 38 117 116q6 25 6 54q0 92 -71 138q-45 28 -164 56l-30 5l56 165q95 -14 167 -40q63 -20 107 -45l70 -37q186 -110 289 -110h62v-172zM209 803q-23 38 -27 82q-1 9 -1 18q0 28 10 53q33 92 147 92q73 0 121 -38q43 -34 55 -93l-113 -14q-8 33 -25 48
q-14 10 -38 10q-26 0 -37 -28q-4 -14 -4 -31v-12q2 -24 13 -45q19 -36 47 -42h179v-86h-392v86h65z" />
    <glyph glyph-name="uniFE8C" unicode="&#x624;" horiz-adv-x="644" arabic-form="final" 
d="M-55 154v172h83q81 0 130 50q56 58 56 166v428h216v-449q5 -92 55 -144q50 -51 127 -51h87v-172h-87q-183 0 -290 111q-108 -111 -294 -111h-83zM179 1167q-23 38 -27 82q-1 9 -1 18q0 28 10 53q33 92 147 92q73 0 121 -38q43 -34 55 -93l-113 -14q-8 33 -25 48
q-14 10 -38 10q-26 0 -37 -28q-4 -14 -4 -31v-12q2 -24 13 -45q19 -36 47 -42h179v-86h-392v86h65z" />
    <glyph glyph-name="uniFE90" unicode="&#x625;" horiz-adv-x="1819" arabic-form="final" 
d="M790 -109q0 23 9 43t24 35t34.5 23.5t41.5 8.5t42 -8.5t35 -23.5t23.5 -35t8.5 -43t-8.5 -42.5t-23.5 -34t-35 -23t-42 -8.5t-41.5 8.5t-34.5 23t-24 34t-9 42.5zM581 154q-240 0 -377 145q-124 133 -124 358q0 55 9 108q10 52 36 115l176 -50q-22 -53 -29 -91
q-7 -37 -7 -82q0 -168 82 -254q73 -77 204 -77h652q81 0 130 50q56 58 56 166v428h216v-449q5 -92 55 -144q50 -51 127 -51h87v-172h-87q-183 0 -290 111q-108 -111 -294 -111h-622z" />
    <glyph glyph-name="uniFE92" unicode="&#x626;" horiz-adv-x="644" arabic-form="final" 
d="M214 -109q0 23 9 43t24 35t34.5 23.5t41.5 8.5t42 -8.5t35 -23.5t23.5 -35t8.5 -43t-8.5 -42.5t-23.5 -34t-35 -23t-42 -8.5t-41.5 8.5t-34.5 23t-24 34t-9 42.5zM-55 154v172h83q81 0 130 50q56 58 56 166v428h216v-449q5 -92 55 -144q50 -51 127 -51h87v-172h-87
q-183 0 -290 111q-108 -111 -294 -111h-83z" />
    <glyph glyph-name="uniFE94" unicode="&#x626;" horiz-adv-x="1134" arabic-form="initial" 
d="M1189 154q-203 0 -317 118l-9 8q-50 -55 -146 -92q-83 -33 -175 -33q-17 0 -33 1q-111 7 -204 62q-225 129 -225 428q0 225 124 358q137 144 377 145h3q136 0 244 -48q157 -68 157 -197v-362q0 -107 56 -165q50 -51 148 -51v-172zM770 904q0 28 -46 48q-60 26 -140 26h-3
q-131 0 -204 -78q-82 -86 -82 -254q0 -211 137 -291q45 -25 95 -28q8 -1 16 -1q41 0 80 16q126 49 147 201v361zM573 1393q0 23 9 43t24 35t35 23.5t43 8.5q22 0 41.5 -8.5t34 -23.5t23 -35t8.5 -43t-8.5 -42.5t-23 -34t-34 -23t-41.5 -8.5q-23 0 -43 8.5t-35 23t-24 34
t-9 42.5zM312 1393q0 23 9 43t24 35t34.5 23.5t41.5 8.5t42 -8.5t35 -23.5t23.5 -35t8.5 -43t-8.5 -42.5t-23.5 -34t-35 -23t-42 -8.5t-41.5 8.5t-34.5 23t-24 34t-9 42.5z" />
    <glyph glyph-name="uniFE96" unicode="&#x626;" horiz-adv-x="1819" arabic-form="medial" 
d="M886 1197q0 23 9 43t24 35t35 23.5t43 8.5q22 0 41.5 -8.5t34 -23.5t23 -35t8.5 -43t-8.5 -42.5t-23 -34t-34 -23t-41.5 -8.5q-23 0 -43 8.5t-35 23t-24 34t-9 42.5zM625 1197q0 23 9 43t24 35t34.5 23.5t41.5 8.5t42 -8.5t35 -23.5t23.5 -35t8.5 -43t-8.5 -42.5
t-23.5 -34t-35 -23t-42 -8.5t-41.5 8.5t-34.5 23t-24 34t-9 42.5zM581 154q-240 0 -377 145q-124 133 -124 358q0 55 9 108q10 52 36 115l176 -50q-22 -53 -29 -91q-7 -37 -7 -82q0 -168 82 -254q73 -77 204 -77h652q81 0 130 50q56 58 56 166v428h216v-449q5 -92 55 -144
q50 -51 127 -51h87v-172h-87q-183 0 -290 111q-108 -111 -294 -111h-622z" />
    <glyph glyph-name="uniFE98" unicode="&#x627;" horiz-adv-x="644" arabic-form="final" 
d="M338 1217q0 23 9 43t24 35t35 23.5t43 8.5q22 0 41.5 -8.5t34 -23.5t23 -35t8.5 -43t-8.5 -42.5t-23 -34t-34 -23t-41.5 -8.5q-23 0 -43 8.5t-35 23t-24 34t-9 42.5zM77 1217q0 23 9 43t24 35t34.5 23.5t41.5 8.5t42 -8.5t35 -23.5t23.5 -35t8.5 -43t-8.5 -42.5
t-23.5 -34t-35 -23t-42 -8.5t-41.5 8.5t-34.5 23t-24 34t-9 42.5zM-55 154v172h83q81 0 130 50q56 58 56 166v428h216v-449q5 -92 55 -144q50 -51 127 -51h87v-172h-87q-183 0 -290 111q-108 -111 -294 -111h-83z" />
    <glyph glyph-name="uniFE9B" unicode="&#x628;" horiz-adv-x="715" arabic-form="final" 
d="M328 1224q0 23 9 43t24 35t35 23.5t43 8.5q22 0 41.5 -8.5t34 -23.5t23 -35t8.5 -43t-8.5 -42.5t-23 -34t-34 -23t-41.5 -8.5q-23 0 -43 8.5t-35 23t-24 34t-9 42.5zM164 1482q0 23 9 43t24 35t34.5 23.5t41.5 8.5t42 -8.5t35 -23.5t23.5 -35t8.5 -43t-8.5 -42.5
t-23.5 -34t-35 -23t-42 -8.5t-41.5 8.5t-34.5 23t-24 34t-9 42.5zM-1 1224q0 23 9 43t24 35t34.5 23.5t41.5 8.5t42 -8.5t35 -23.5t23.5 -35t8.5 -43t-8.5 -42.5t-23.5 -34t-35 -23t-42 -8.5t-41.5 8.5t-34.5 23t-24 34t-9 42.5zM635 970v-483q0 -132 -96 -228
q-105 -105 -258 -105h-336v172h336q50 0 90 40q49 48 49 121v483h215z" />
    <glyph glyph-name="uniFE9C" unicode="&#x628;" horiz-adv-x="644" arabic-form="initial" 
d="M375 1224q0 23 9 43t24 35t35 23.5t43 8.5q22 0 41.5 -8.5t34 -23.5t23 -35t8.5 -43t-8.5 -42.5t-23 -34t-34 -23t-41.5 -8.5q-23 0 -43 8.5t-35 23t-24 34t-9 42.5zM211 1482q0 23 9 43t24 35t34.5 23.5t41.5 8.5t42 -8.5t35 -23.5t23.5 -35t8.5 -43t-8.5 -42.5
t-23.5 -34t-35 -23t-42 -8.5t-41.5 8.5t-34.5 23t-24 34t-9 42.5zM46 1224q0 23 9 43t24 35t34.5 23.5t41.5 8.5t42 -8.5t35 -23.5t23.5 -35t8.5 -43t-8.5 -42.5t-23.5 -34t-35 -23t-42 -8.5t-41.5 8.5t-34.5 23t-24 34t-9 42.5zM-55 154v172h83q81 0 130 50q56 58 56 166
v428h216v-449q5 -92 55 -144q50 -51 127 -51h87v-172h-87q-183 0 -290 111q-108 -111 -294 -111h-83z" />
    <glyph glyph-name="uniFE9E" unicode="&#x628;" horiz-adv-x="1430" arabic-form="medial" 
d="M1102 326q-3 23 -10 85q-32 282 -78 391q-75 176 -252 176q-64 0 -114 -18q-49 -17 -84 -51q-20 -20 -35 -44q-17 -25 -34 -72l-209 43q26 68 51 108q26 41 60 73q68 66 162 100q93 33 203 33q309 0 434 -238q72 -138 110 -486q8 -70 12 -100h167v-172h-932
q-114 0 -186 -70q-50 -49 -69 -121q-9 -36 -9 -70q0 -37 10 -72q28 -94 133 -152l-107 -139q-169 92 -215 252q-16 55 -16 111q0 52 14 104q29 113 112 195q137 134 353 134h529zM733 -111q0 23 9 43t24 35t34.5 23.5t41.5 8.5t42 -8.5t35 -23.5t23.5 -35t8.5 -43
t-8.5 -42.5t-23.5 -34t-35 -23t-42 -8.5t-41.5 8.5t-34.5 23t-24 34t-9 42.5z" />
    <glyph glyph-name="uniFEA0" unicode="&#x629;" horiz-adv-x="1173" arabic-form="final" 
d="M-55 154v172l910 -1q-2 13 -10 86q-32 282 -78 391q-75 176 -252 176q-64 0 -114 -18q-49 -17 -84 -51q-20 -20 -35 -44q-17 -25 -34 -72l-209 43q26 68 51 108q26 41 60 73q68 66 162 100q93 33 203 33q309 0 434 -238q72 -138 110 -486q8 -70 12 -100h157v-172h-1283z
M445 -109q0 23 9 43t24 35t34.5 23.5t41.5 8.5t42 -8.5t35 -23.5t23.5 -35t8.5 -43t-8.5 -42.5t-23.5 -34t-35 -23t-42 -8.5t-41.5 8.5t-34.5 23t-24 34t-9 42.5z" />
    <glyph glyph-name="uniFEA3" unicode="&#x62a;" horiz-adv-x="1186" arabic-form="final" 
d="M90 944q26 41 60 73q68 66 162 100q93 33 203 33q309 0 434 -238q72 -138 110 -486q14 -121 23 -174q1 -6 1 -12q0 -32 -26 -56q-27 -25 -70 -29q-10 -1 -19 -1h-1023v172l910 -1q-2 13 -10 86q-32 282 -78 391q-75 176 -252 176q-64 0 -114 -18q-49 -17 -84 -51
q-20 -20 -35 -44q-17 -25 -34 -72l-209 43q26 68 51 108z" />
    <glyph glyph-name="uniFEA4" unicode="&#x62a;" horiz-adv-x="1193" arabic-form="initial" 
d="M-55 154v172l910 -1q-2 13 -10 86q-32 282 -78 391q-75 176 -252 176q-64 0 -114 -18q-49 -17 -84 -51q-20 -20 -35 -44q-17 -25 -34 -72l-209 43q26 68 51 108q26 41 60 73q68 66 162 100q93 33 203 33q309 0 434 -238q72 -138 110 -486q8 -70 12 -100h157v-172h-1283z
" />
    <glyph glyph-name="uniFEA6" unicode="&#x62a;" horiz-adv-x="1430" arabic-form="medial" 
d="M1102 326q-3 23 -10 85q-32 282 -78 391q-75 176 -252 176q-64 0 -114 -18q-49 -17 -84 -51q-20 -20 -35 -44q-17 -25 -34 -72l-209 43q26 68 51 108q26 41 60 73q68 66 162 100q93 33 203 33q309 0 434 -238q72 -138 110 -486q8 -70 12 -100h167v-172h-932
q-114 0 -186 -70q-50 -49 -69 -121q-9 -36 -9 -70q0 -37 10 -72q28 -94 133 -152l-107 -139q-169 92 -215 252q-16 55 -16 111q0 52 14 104q29 113 112 195q137 134 353 134h529zM644 1377q0 23 9 43t24 35t34.5 23.5t41.5 8.5t42 -8.5t35 -23.5t23.5 -35t8.5 -43
t-8.5 -42.5t-23.5 -34t-35 -23t-42 -8.5t-41.5 8.5t-34.5 23t-24 34t-9 42.5z" />
    <glyph glyph-name="uniFEA8" unicode="&#x62b;" horiz-adv-x="1173" arabic-form="final" 
d="M-55 154v172l910 -1q-2 13 -10 86q-32 282 -78 391q-75 176 -252 176q-64 0 -114 -18q-49 -17 -84 -51q-20 -20 -35 -44q-17 -25 -34 -72l-209 43q26 68 51 108q26 41 60 73q68 66 162 100q93 33 203 33q309 0 434 -238q72 -138 110 -486q8 -70 12 -100h157v-172h-1283z
M398 1390q0 23 9 43t24 35t34.5 23.5t41.5 8.5t42 -8.5t35 -23.5t23.5 -35t8.5 -43t-8.5 -42.5t-23.5 -34t-35 -23t-42 -8.5t-41.5 8.5t-34.5 23t-24 34t-9 42.5z" />
    <glyph glyph-name="uniFEAA" unicode="&#x62b;" horiz-adv-x="933" arabic-form="initial" 
d="M256 154q-99 0 -180 35l-70 30l82 187q54 -51 91 -67q32 -13 77 -13l319 -1q-2 14 -10 86q-32 282 -78 391q-75 176 -272 176v172q329 0 454 -238q72 -138 110 -486q8 -70 12 -100h177v-172h-712z" />
    <glyph glyph-name="uniFEAC" unicode="&#x62b;" horiz-adv-x="910" arabic-form="medial" 
d="M253 154q-99 0 -180 35l-70 30l82 187q54 -51 91 -67q32 -13 77 -13l319 -1q-2 14 -10 86q-32 282 -78 391q-75 176 -272 176v172q329 0 454 -238q72 -138 110 -486q8 -70 12 -100h177v-172h-712zM214 1390q0 23 9 43t24 35t34.5 23.5t41.5 8.5t42 -8.5t35 -23.5
t23.5 -35t8.5 -43t-8.5 -42.5t-23.5 -34t-35 -23t-42 -8.5t-41.5 8.5t-34.5 23t-24 34t-9 42.5z" />
    <glyph glyph-name="uniFEB0" unicode="&#x62c;" horiz-adv-x="635" arabic-form="final" 
d="M588 154q-115 4 -177 40q-20 -106 -79 -217q-32 -61 -87 -126q-50 -60 -130 -134l-150 106q79 73 122 124q43 52 67 97q55 101 55 229q0 21 -2 44v653h215v-455q6 -87 55 -138q50 -51 127 -51h86v-172h-102zM195 1214q0 23 9 43t24 35t34.5 23.5t41.5 8.5t42 -8.5
t35 -23.5t23.5 -35t8.5 -43t-8.5 -42.5t-23.5 -34t-35 -23t-42 -8.5t-41.5 8.5t-34.5 23t-24 34t-9 42.5z" />
    <glyph glyph-name="uniFEB2" unicode="&#x62c;" horiz-adv-x="2615" arabic-form="initial" 
d="M2381 521q5 -92 55 -144q50 -51 127 -51h87v-172h-87q-183 0 -290 111q-108 -111 -294 -111q-183 0 -290 111q-109 -111 -295 -111q-131 0 -202 45q-29 -113 -126 -213q-165 -169 -434 -169q-236 0 -401 172q-151 156 -151 406q0 68 10 130t38 136l176 -45
q-23 -63 -30 -113q-9 -51 -9 -108q0 -192 106 -301q102 -105 261 -105q164 0 265 103q106 109 106 303v575h215v-498q12 -57 49 -95q50 -51 127 -51q81 0 130 50q57 58 57 166v428h215v-428q0 -107 56 -165q50 -51 127 -51q81 0 130 50q56 58 56 166v428h216v-449z" />
    <glyph glyph-name="uniFEB3" unicode="&#x62c;" horiz-adv-x="1637" arabic-form="medial" 
d="M952 542q0 -107 56 -165q50 -51 127 -51q81 0 130 50q56 58 56 166v428h216v-428q0 -166 -102 -271q-114 -117 -300 -117q-183 0 -290 111q-109 -111 -295 -111q-183 0 -290 111q-109 -111 -315 -111v172q101 0 151 50q56 58 56 166v428h215v-428q0 -107 56 -165
q50 -51 127 -51q81 0 130 50q57 58 57 166v428h215v-428z" />
    <glyph glyph-name="uniFEB6" unicode="&#x62d;" horiz-adv-x="2595" arabic-form="final" 
d="M2381 521q5 -92 55 -144q50 -51 127 -51h87v-172h-87q-183 0 -290 111q-108 -111 -294 -111q-183 0 -290 111q-109 -111 -295 -111q-131 0 -202 45q-29 -113 -126 -213q-165 -169 -434 -169q-236 0 -401 172q-151 156 -151 406q0 68 10 130t38 136l176 -45
q-23 -63 -30 -113q-9 -51 -9 -108q0 -192 106 -301q102 -105 261 -105q164 0 265 103q106 109 106 303v575h215v-498q12 -57 49 -95q50 -51 127 -51q81 0 130 50q57 58 57 166v428h215v-428q0 -107 56 -165q50 -51 127 -51q81 0 130 50q56 58 56 166v428h216v-449z
M1740 1224q0 23 9 43t24 35t35 23.5t43 8.5q22 0 41.5 -8.5t34 -23.5t23 -35t8.5 -43t-8.5 -42.5t-23 -34t-34 -23t-41.5 -8.5q-23 0 -43 8.5t-35 23t-24 34t-9 42.5zM1576 1482q0 23 9 43t24 35t34.5 23.5t41.5 8.5t42 -8.5t35 -23.5t23.5 -35t8.5 -43t-8.5 -42.5
t-23.5 -34t-35 -23t-42 -8.5t-41.5 8.5t-34.5 23t-24 34t-9 42.5zM1411 1224q0 23 9 43t24 35t34.5 23.5t41.5 8.5t42 -8.5t35 -23.5t23.5 -35t8.5 -43t-8.5 -42.5t-23.5 -34t-35 -23t-42 -8.5t-41.5 8.5t-34.5 23t-24 34t-9 42.5z" />
    <glyph glyph-name="uniFEB7" unicode="&#x62d;" horiz-adv-x="1617" arabic-form="initial" 
d="M952 542q0 -107 56 -165q50 -51 127 -51q81 0 130 50q56 58 56 166v428h216v-428q0 -166 -102 -271q-114 -117 -300 -117q-183 0 -290 111q-109 -111 -295 -111q-183 0 -290 111q-109 -111 -315 -111v172q101 0 151 50q56 58 56 166v428h215v-428q0 -107 56 -165
q50 -51 127 -51q81 0 130 50q57 58 57 166v428h215v-428zM890 1224q0 23 9 43t24 35t35 23.5t43 8.5q22 0 41.5 -8.5t34 -23.5t23 -35t8.5 -43t-8.5 -42.5t-23 -34t-34 -23t-41.5 -8.5q-23 0 -43 8.5t-35 23t-24 34t-9 42.5zM726 1482q0 23 9 43t24 35t34.5 23.5t41.5 8.5
t42 -8.5t35 -23.5t23.5 -35t8.5 -43t-8.5 -42.5t-23.5 -34t-35 -23t-42 -8.5t-41.5 8.5t-34.5 23t-24 34t-9 42.5zM561 1224q0 23 9 43t24 35t34.5 23.5t41.5 8.5t42 -8.5t35 -23.5t23.5 -35t8.5 -43t-8.5 -42.5t-23.5 -34t-35 -23t-42 -8.5t-41.5 8.5t-34.5 23t-24 34
t-9 42.5z" />
    <glyph glyph-name="uniFEB8" unicode="&#x62d;" horiz-adv-x="1818" arabic-form="medial" 
d="M1873 326v-172h-87q-183 0 -290 111q-108 -111 -294 -111q-183 0 -290 111q-109 -111 -295 -111q-183 0 -290 111q-109 -111 -295 -111h-87v172h87q81 0 131 50q56 58 56 166v428h215v-428q0 -107 56 -165q50 -51 127 -51q81 0 130 50q57 58 57 166v428h215v-428
q0 -107 56 -165q50 -51 127 -51q81 0 130 50q56 58 56 166v428h216v-449q5 -92 55 -144q50 -51 127 -51h87zM967 1224q0 23 9 43t24 35t35 23.5t43 8.5q22 0 41.5 -8.5t34 -23.5t23 -35t8.5 -43t-8.5 -42.5t-23 -34t-34 -23t-41.5 -8.5q-23 0 -43 8.5t-35 23t-24 34t-9 42.5
zM803 1482q0 23 9 43t24 35t34.5 23.5t41.5 8.5t42 -8.5t35 -23.5t23.5 -35t8.5 -43t-8.5 -42.5t-23.5 -34t-35 -23t-42 -8.5t-41.5 8.5t-34.5 23t-24 34t-9 42.5zM638 1224q0 23 9 43t24 35t34.5 23.5t41.5 8.5t42 -8.5t35 -23.5t23.5 -35t8.5 -43t-8.5 -42.5t-23.5 -34
t-35 -23t-42 -8.5t-41.5 8.5t-34.5 23t-24 34t-9 42.5z" />
    <glyph glyph-name="uniFEBB" unicode="&#x62e;" horiz-adv-x="1820" arabic-form="final" 
d="M1221 326q122 0 200 81q84 86 84 239q0 168 -82 255q-73 77 -204 77h-555q-131 0 -204 -77q-82 -87 -82 -255v-320h843zM160 326v365q-4 244 -60 327l176 106q38 -63 48 -112q92 136 340 138h555q240 0 377 -146q124 -132 124 -358q0 -211 -129 -344q-141 -148 -370 -148
h-1276v172h215z" />
    <glyph glyph-name="uniFEBC" unicode="&#x62e;" horiz-adv-x="1792" arabic-form="initial" 
d="M1221 326q122 0 200 81q84 86 84 239q0 168 -82 255q-73 77 -204 77h-555q-131 0 -204 -77q-82 -87 -82 -255v-320h843zM-55 154v172h215v365q-4 244 -60 327l176 106q38 -63 48 -112q92 136 340 138h555q240 0 377 -146q124 -132 124 -358q0 -211 -129 -344l-1 -1l25 25
h212v-172h-1882z" />
    <glyph glyph-name="uniFEBE" unicode="&#x62e;" horiz-adv-x="2605" arabic-form="medial" 
d="M2064 326q122 0 200 81q84 86 84 239q0 168 -82 255q-73 77 -204 77h-555q-131 0 -204 -77q-82 -87 -82 -255v-320h843zM1175 154q-33 -90 -109 -168q-165 -169 -434 -169q-236 0 -401 172q-151 156 -151 406q0 68 10 130t38 136l176 -45q-23 -63 -30 -113
q-9 -51 -9 -108q0 -192 106 -301q102 -105 261 -105q164 0 265 103q106 109 106 303v296q-4 244 -60 327l176 106q38 -63 48 -112q92 136 340 138h555q240 0 377 -146q124 -132 124 -358q0 -211 -105 -320h202v-172h-1485zM1534 1334q0 23 9 43t24 35t34.5 23.5t41.5 8.5
t42 -8.5t35 -23.5t23.5 -35t8.5 -43t-8.5 -42.5t-23.5 -34t-35 -23t-42 -8.5t-41.5 8.5t-34.5 23t-24 34t-9 42.5z" />
    <glyph glyph-name="uniFEC0" unicode="&#x62f;" horiz-adv-x="1772" arabic-form="final" 
d="M1221 326q122 0 200 81q84 86 84 239q0 168 -82 255q-73 77 -204 77h-555q-131 0 -204 -77q-82 -87 -82 -255v-320h843zM-55 154v172h215v365q-4 244 -60 327l176 106q38 -63 48 -112q92 136 340 138h555q240 0 377 -146q124 -132 124 -358q0 -211 -129 -344l-1 -1l25 25
h212v-172h-1882zM679 1327q0 23 9 43t24 35t34.5 23.5t41.5 8.5t42 -8.5t35 -23.5t23.5 -35t8.5 -43t-8.5 -42.5t-23.5 -34t-35 -23t-42 -8.5t-41.5 8.5t-34.5 23t-24 34t-9 42.5z" />
    <glyph glyph-name="uniFEC3" unicode="&#x630;" horiz-adv-x="1790" arabic-form="final" 
d="M1191 326q122 0 200 81q84 86 84 239q0 168 -82 255q-73 77 -204 77h-555q-131 0 -204 -77q-82 -87 -82 -255v-320h843zM-55 154v172h213l-26 26v998h215v-321q94 121 287 121h555q240 0 377 -146q124 -132 124 -358q0 -211 -129 -344q-141 -148 -370 -148h-1246z" />
    <glyph glyph-name="uniFEC6" unicode="&#x631;" horiz-adv-x="1670" arabic-form="final" 
d="M1139 326q122 0 200 81q84 86 84 239q0 168 -82 255q-73 77 -204 77h-555q-131 0 -204 -77q-82 -87 -82 -255v-320h843zM81 154v40h-1v1156h215v-321q94 121 287 121h555q240 0 377 -146q124 -132 124 -358q0 -211 -129 -344l-1 -1l25 25h192v-172h-1644zM659 1328
q0 23 9 43t24 35t34.5 23.5t41.5 8.5t42 -8.5t35 -23.5t23.5 -35t8.5 -43t-8.5 -42.5t-23.5 -34t-35 -23t-42 -8.5t-41.5 8.5t-34.5 23t-24 34t-9 42.5z" />
    <glyph glyph-name="uniFEC8" unicode="&#x632;" horiz-adv-x="1752" arabic-form="final" 
d="M1191 326q122 0 200 81q84 86 84 239q0 168 -82 255q-73 77 -204 77h-555q-131 0 -204 -77q-82 -87 -82 -255v-320h843zM-55 154v172h213l-26 26v998h215v-321q94 121 287 121h555q240 0 377 -146q124 -132 124 -358q0 -211 -129 -344l-1 -1l25 25h222v-172h-1862z
M701 1331q0 23 9 43t24 35t34.5 23.5t41.5 8.5t42 -8.5t35 -23.5t23.5 -35t8.5 -43t-8.5 -42.5t-23.5 -34t-35 -23t-42 -8.5t-41.5 8.5t-34.5 23t-24 34t-9 42.5z" />
    <glyph glyph-name="uniFECB" unicode="&#x633;" horiz-adv-x="1170" arabic-form="final" 
d="M156 326q-105 109 -105 320q0 226 124 358q138 146 377 146q110 0 204 -33q94 -34 161 -100q34 -32 60 -73q26 -40 51 -108l-209 -43q-17 47 -33 72q-15 24 -36 44q-35 34 -84 51q-49 18 -114 18q-131 0 -203 -77q-83 -87 -83 -255q0 -153 84 -239q78 -81 201 -81h519
v-172h-1125v172h211z" />
    <glyph glyph-name="uniFECC" unicode="&#x633;" horiz-adv-x="1122" arabic-form="initial" 
d="M553 324q51 20 101 60q122 97 168 262q20 75 20 136q0 82 -37 130q-30 39 -87 55q-41 11 -93 11h-144q-52 0 -92 -11q-57 -16 -87 -55q-37 -48 -37 -130q0 -61 20 -136q46 -165 168 -262q50 -40 100 -60zM-55 154v172h284q-101 91 -154 284q-26 94 -26 172q0 131 69 220
q71 92 201 127q74 21 162 21h144q89 0 163 -21q130 -36 200 -127q69 -89 69 -220q0 -78 -26 -172q-52 -193 -154 -284h280v-172h-1212z" />
    <glyph glyph-name="uniFECE" unicode="&#x633;" horiz-adv-x="1340" arabic-form="medial" 
d="M789 324q51 20 101 60q122 97 168 262q20 75 20 136q0 82 -37 130q-30 39 -87 55q-41 11 -93 11h-144q-52 0 -92 -11q-57 -16 -87 -55q-37 -48 -37 -130q0 -61 20 -136q46 -165 168 -262q50 -40 100 -60zM1113 326h282v-172h-842q-114 0 -186 -70q-50 -49 -69 -121
q-9 -36 -9 -70q0 -37 10 -72q28 -94 133 -152l-107 -139q-169 92 -215 252q-16 55 -16 111q0 52 14 104q29 113 112 195q119 116 251 128q-107 95 -160 290q-26 94 -26 172q0 131 69 220q71 92 201 127q74 21 162 21h144q89 0 163 -21q130 -36 200 -127q69 -89 69 -220
q0 -78 -26 -172q-52 -193 -154 -284zM660 1332q0 23 9 43t24 35t34.5 23.5t41.5 8.5t42 -8.5t35 -23.5t23.5 -35t8.5 -43t-8.5 -42.5t-23.5 -34t-35 -23t-42 -8.5t-41.5 8.5t-34.5 23t-24 34t-9 42.5z" />
    <glyph glyph-name="uniFED0" unicode="&#x634;" horiz-adv-x="1102" arabic-form="final" 
d="M553 324q51 20 101 60q122 97 168 262q20 75 20 136q0 82 -37 130q-30 39 -87 55q-41 11 -93 11h-144q-52 0 -92 -11q-57 -16 -87 -55q-37 -48 -37 -130q0 -61 20 -136q46 -165 168 -262q50 -40 100 -60zM-55 154v172h284q-101 91 -154 284q-26 94 -26 172q0 131 69 220
q71 92 201 127q74 21 162 21h144q89 0 163 -21q130 -36 200 -127q69 -89 69 -220q0 -78 -26 -172q-52 -193 -154 -284h280v-172h-1212zM442 1331q0 23 9 43t24 35t34.5 23.5t41.5 8.5t42 -8.5t35 -23.5t23.5 -35t8.5 -43t-8.5 -42.5t-23.5 -34t-35 -23t-42 -8.5t-41.5 8.5
t-34.5 23t-24 34t-9 42.5z" />
    <glyph glyph-name="uniFED2" unicode="&#x634;" horiz-adv-x="1859" arabic-form="initial" 
d="M1445 901q-72 77 -205 77q-131 0 -203 -77q-83 -87 -83 -255q0 -153 84 -239q78 -81 201 -81q127 0 204 79q84 86 84 241q0 170 -82 255zM581 154q-240 0 -377 145q-124 133 -124 358q0 55 9 108q10 52 36 115l176 -50q-22 -53 -29 -91q-7 -37 -7 -82q0 -168 82 -254
q73 -77 204 -77h293q-105 109 -105 320q0 226 124 358q138 146 377 146q241 0 378 -145q124 -132 124 -359q0 -213 -104 -320h256v-172h-1313zM1140 1345q0 23 9 43t24 35t34.5 23.5t41.5 8.5t42 -8.5t35 -23.5t23.5 -35t8.5 -43t-8.5 -42.5t-23.5 -34t-35 -23t-42 -8.5
t-41.5 8.5t-34.5 23t-24 34t-9 42.5z" />
    <glyph glyph-name="uniFED3" unicode="&#x634;" horiz-adv-x="1167" arabic-form="medial" 
d="M473 1330q0 23 9 43t24 35t34.5 23.5t41.5 8.5t42 -8.5t35 -23.5t23.5 -35t8.5 -43t-8.5 -42.5t-23.5 -34t-35 -23t-42 -8.5t-41.5 8.5t-34.5 23t-24 34t-9 42.5zM790 901q-72 77 -205 77q-131 0 -203 -77q-83 -87 -83 -255q0 -153 84 -239q78 -81 201 -81q127 0 204 79
q84 86 84 241q0 170 -82 255zM189 326q-105 109 -105 320q0 226 124 358q138 146 377 146q241 0 378 -145q124 -132 124 -359q0 -213 -130 -346q-142 -146 -373 -146h-639v172h244z" />
    <glyph glyph-name="uniFED6" unicode="&#x635;" horiz-adv-x="1454" arabic-form="final" 
d="M1126 904q0 28 -46 48q-60 26 -140 26h-3q-131 0 -204 -78q-82 -86 -82 -254q0 -153 84 -239q78 -81 221 -81v-1h170v579zM1315 154q-27 -93 -154 -205q-144 -128 -437 -132q-271 0 -462 166q-182 158 -182 432h185q0 -208 125 -316q127 -110 334 -110q213 0 339 108
q48 39 49 57h-176q-230 0 -371 148q-129 133 -129 344q0 225 124 358q137 144 377 145h3q136 0 244 -48q157 -68 157 -197v-578h148v-172h-174zM916 1353q0 23 9 43t24 35t35 23.5t43 8.5q22 0 41.5 -8.5t34 -23.5t23 -35t8.5 -43t-8.5 -42.5t-23 -34t-34 -23t-41.5 -8.5
q-23 0 -43 8.5t-35 23t-24 34t-9 42.5zM655 1353q0 23 9 43t24 35t34.5 23.5t41.5 8.5t42 -8.5t35 -23.5t23.5 -35t8.5 -43t-8.5 -42.5t-23.5 -34t-35 -23t-42 -8.5t-41.5 8.5t-34.5 23t-24 34t-9 42.5z" />
    <glyph glyph-name="uniFED7" unicode="&#x635;" horiz-adv-x="1167" arabic-form="initial" 
d="M573 1326q0 23 9 43t24 35t35 23.5t43 8.5q22 0 41.5 -8.5t34 -23.5t23 -35t8.5 -43t-8.5 -42.5t-23 -34t-34 -23t-41.5 -8.5q-23 0 -43 8.5t-35 23t-24 34t-9 42.5zM312 1326q0 23 9 43t24 35t34.5 23.5t41.5 8.5t42 -8.5t35 -23.5t23.5 -35t8.5 -43t-8.5 -42.5
t-23.5 -34t-35 -23t-42 -8.5t-41.5 8.5t-34.5 23t-24 34t-9 42.5zM790 901q-72 77 -205 77q-131 0 -203 -77q-83 -87 -83 -255q0 -153 84 -239q78 -81 201 -81q127 0 204 79q84 86 84 241q0 170 -82 255zM189 326q-105 109 -105 320q0 226 124 358q138 146 377 146
q241 0 378 -145q124 -132 124 -359q0 -213 -130 -346q-142 -146 -373 -146h-639v172h244z" />
    <glyph glyph-name="uniFED8" unicode="&#x635;" horiz-adv-x="1092" arabic-form="medial" 
d="M546 1336q0 23 9 43t24 35t35 23.5t43 8.5q22 0 41.5 -8.5t34 -23.5t23 -35t8.5 -43t-8.5 -42.5t-23 -34t-34 -23t-41.5 -8.5q-23 0 -43 8.5t-35 23t-24 34t-9 42.5zM285 1336q0 23 9 43t24 35t34.5 23.5t41.5 8.5t42 -8.5t35 -23.5t23.5 -35t8.5 -43t-8.5 -42.5
t-23.5 -34t-35 -23t-42 -8.5t-41.5 8.5t-34.5 23t-24 34t-9 42.5zM750 901q-72 77 -205 77q-131 0 -203 -77q-83 -87 -83 -255q0 -153 84 -239q78 -81 201 -81q127 0 204 79q84 86 84 241q0 170 -82 255zM149 326q-105 109 -105 320q0 226 124 358q138 146 377 146
q241 0 378 -145q124 -132 124 -359q0 -213 -104 -320h204v-172h-1202v172h204z" />
    <glyph glyph-name="uniFEDB" unicode="&#x636;" horiz-adv-x="1634" arabic-form="final" 
d="M-55 326h1090q136 0 216 54q68 46 68 126q0 90 -66 136q-74 51 -220 51h-913l-1 85v97q8 265 297 377q161 63 531 95q126 11 190 22l48 -167q-76 -13 -214 -25q-295 -27 -421 -70q-211 -73 -216 -234v-8h699q225 0 361 -95q140 -97 140 -264q0 -159 -144 -257
q-140 -95 -355 -95h-1090v172z" />
    <glyph glyph-name="uniFEDC" unicode="&#x636;" horiz-adv-x="1658" arabic-form="initial" 
d="M-55 154v172h1374v180q0 90 -66 136q-74 51 -220 51h-913l-1 85v97q8 265 297 377q161 63 531 95q126 11 190 22l48 -167q-76 -13 -214 -25q-295 -27 -421 -70q-211 -73 -216 -234v-8h699q225 0 361 -95q140 -97 140 -264l-1 -180h160v-172h-1748z" />
    <glyph glyph-name="uniFEDE" unicode="&#x636;" horiz-adv-x="1206" arabic-form="medial" 
d="M1033 154q-26 -104 -110 -189q-142 -146 -374 -146q-199 0 -340 148q-129 133 -129 344q0 58 8 110q9 52 32 118l179 -45q-21 -54 -27 -95q-7 -41 -7 -88q0 -153 84 -239q78 -81 200 -81q128 0 205 79q84 86 84 241v1039h215v-1024h188v-172h-208z" />
    <glyph glyph-name="uniFEE0" unicode="&#x637;" horiz-adv-x="756" arabic-form="final" 
d="M260 487v863h215v-863q0 -73 49 -121q40 -40 90 -40h177v-172h-177q-153 0 -249 91q-91 -91 -244 -91h-176v172h176q50 0 90 40q49 48 49 121z" />
    <glyph glyph-name="uniFEE2" unicode="&#x637;" horiz-adv-x="1271" arabic-form="initial" 
d="M921 901q-72 77 -205 77q-131 0 -203 -77q-83 -87 -83 -255q0 -153 84 -239q78 -81 201 -81q127 0 204 79q84 86 84 241q0 170 -82 255zM715 154q-189 0 -292 80q-24 -127 -93 -257q-32 -61 -87 -126q-50 -60 -130 -134l-150 106q79 73 122 124q43 52 67 96
q63 118 63 270v333q0 226 124 358q138 146 377 146q241 0 378 -145q124 -132 124 -359q0 -213 -104 -320h192v-172h-591z" />
    <glyph glyph-name="uniFEE3" unicode="&#x637;" horiz-adv-x="1254" arabic-form="medial" 
d="M857 901q-72 77 -205 77q-131 0 -203 -77q-83 -87 -83 -255q0 -153 84 -239q78 -81 201 -81q127 0 204 79q84 86 84 241q0 170 -82 255zM151 646q0 226 124 358q138 146 377 146q241 0 378 -145q124 -132 124 -359q0 -213 -130 -346q-142 -146 -373 -146q-230 0 -364 141
l-23 -24q-114 -117 -319 -117v172q101 0 150 50q56 58 56 166v104z" />
    <glyph glyph-name="uniFEE6" unicode="&#x638;" horiz-adv-x="1445" arabic-form="final" 
d="M1218 511q4 -95 49 -133q50 -52 127 -52h86v-172h-102q-115 4 -186 47q-29 -115 -126 -215q-165 -169 -434 -169q-236 0 -401 172q-151 156 -151 406q0 68 10 130t38 136l176 -45q-23 -63 -30 -113q-9 -51 -9 -108q0 -192 106 -301q102 -105 261 -105q164 0 265 103
q84 87 100 218l3 19q3 28 3 66v575h215v-459zM563 1121q0 23 9 43t24 35t34.5 23.5t41.5 8.5t42 -8.5t35 -23.5t23.5 -35t8.5 -43t-8.5 -42.5t-23.5 -34t-35 -23t-42 -8.5t-41.5 8.5t-34.5 23t-24 34t-9 42.5z" />
    <glyph glyph-name="uniFEE7" unicode="&#x638;" horiz-adv-x="715" arabic-form="initial" 
d="M159 1202q0 23 9 43t24 35t34.5 23.5t41.5 8.5t42 -8.5t35 -23.5t23.5 -35t8.5 -43t-8.5 -42.5t-23.5 -34t-35 -23t-42 -8.5t-41.5 8.5t-34.5 23t-24 34t-9 42.5zM635 970v-483q0 -132 -96 -228q-105 -105 -258 -105h-336v172h336q50 0 90 40q49 48 49 121v483h215z" />
    <glyph glyph-name="uniFEE8" unicode="&#x638;" horiz-adv-x="644" arabic-form="medial" 
d="M201 1200q0 23 9 43t24 35t34.5 23.5t41.5 8.5t42 -8.5t35 -23.5t23.5 -35t8.5 -43t-8.5 -42.5t-23.5 -34t-35 -23t-42 -8.5t-41.5 8.5t-34.5 23t-24 34t-9 42.5zM-55 154v172h83q81 0 130 50q56 58 56 166v428h216v-449q5 -92 55 -144q50 -51 127 -51h87v-172h-87
q-183 0 -290 111q-108 -111 -294 -111h-83z" />
    <glyph glyph-name="uniFEEB" unicode="&#x639;" horiz-adv-x="1737" arabic-form="final" 
d="M786 901q-73 77 -206 77q-131 0 -203 -77q-82 -87 -82 -255q0 -153 83 -239q78 -81 201 -81q127 0 205 79q83 86 83 241q0 170 -81 255zM979 326h158q123 0 201 81q83 86 83 239q0 168 -82 255q-72 77 -203 77h-152q99 -105 99 -332q0 -213 -104 -320zM202 1001
q-15 4 -60 31l58 118h936q239 0 376 -146q125 -132 125 -358q0 -211 -129 -344q-143 -148 -371 -148h-1192v172h239q-105 109 -105 320q0 226 123 355z" />
    <glyph glyph-name="uniFEEC" unicode="&#x639;" horiz-adv-x="1695" arabic-form="initial" 
d="M786 901q-73 77 -206 77q-131 0 -203 -77q-82 -87 -82 -255q0 -153 83 -239q78 -81 201 -81q127 0 205 79q83 86 83 241q0 170 -81 255zM979 326h158q123 0 201 81q83 86 83 239q0 168 -82 255q-72 77 -203 77h-152q99 -105 99 -332q0 -213 -104 -320zM1532 326h198v-172
h-1785v172h239q-105 109 -105 320q0 226 123 355q-15 4 -60 31l58 118h936q239 0 376 -146q125 -132 125 -358q0 -211 -129 -344l-1 -1z" />
    <glyph glyph-name="uniFEEE" unicode="&#x639;" horiz-adv-x="1128" arabic-form="medial" 
d="M770 904q0 28 -46 48q-60 26 -140 26h-3q-131 0 -204 -78q-82 -86 -82 -254q0 -153 84 -239q78 -81 221 -81v-1h170v579zM966 154q-18 -88 -72 -178q-31 -60 -86 -125q-50 -60 -130 -134l-150 106q79 73 122 124q43 52 67 96q33 64 38 111h-175q-230 0 -371 148
q-129 133 -129 344q0 225 124 358q137 144 377 145h3q136 0 244 -48q157 -68 157 -197v-578h178v-172h-197z" />
    <glyph glyph-name="uniFEF2" unicode="&#x63a;" horiz-adv-x="1575" arabic-form="final" 
d="M1630 154h-62q-110 0 -209 40q0 -48 -11 -89q-41 -158 -227 -234q-137 -56 -330 -57q-158 0 -278 32q-206 54 -320 182q-113 124 -113 299q0 70 9 129q8 63 33 134l209 -38q-21 -65 -28 -115q-8 -52 -8 -110q0 -118 73 -200q74 -81 213 -119q85 -22 199 -22h10
q141 0 231 38q96 38 117 116q6 25 6 54q0 92 -71 138q-45 28 -164 56l-30 5l56 165q95 -14 167 -40q63 -20 107 -45l70 -37q186 -110 289 -110h62v-172zM765 -403q0 23 9 43t24 35t35 23.5t43 8.5q22 0 41.5 -8.5t34 -23.5t23 -35t8.5 -43t-8.5 -42.5t-23 -34t-34 -23
t-41.5 -8.5q-23 0 -43 8.5t-35 23t-24 34t-9 42.5zM504 -403q0 23 9 43t24 35t34.5 23.5t41.5 8.5t42 -8.5t35 -23.5t23.5 -35t8.5 -43t-8.5 -42.5t-23.5 -34t-35 -23t-42 -8.5t-41.5 8.5t-34.5 23t-24 34t-9 42.5z" />
    <glyph glyph-name="uniFEF3" unicode="&#x63a;" horiz-adv-x="715" arabic-form="initial" 
d="M321 -103q0 23 9 43t24 35t35 23.5t43 8.5q22 0 41.5 -8.5t34 -23.5t23 -35t8.5 -43t-8.5 -42.5t-23 -34t-34 -23t-41.5 -8.5q-23 0 -43 8.5t-35 23t-24 34t-9 42.5zM60 -103q0 23 9 43t24 35t34.5 23.5t41.5 8.5t42 -8.5t35 -23.5t23.5 -35t8.5 -43t-8.5 -42.5
t-23.5 -34t-35 -23t-42 -8.5t-41.5 8.5t-34.5 23t-24 34t-9 42.5zM635 970v-483q0 -132 -96 -228q-105 -105 -258 -105h-336v172h336q50 0 90 40q49 48 49 121v483h215z" />
    <glyph glyph-name="uniFEF4" unicode="&#x63a;" horiz-adv-x="644" arabic-form="medial" 
d="M326 -103q0 23 9 43t24 35t35 23.5t43 8.5q22 0 41.5 -8.5t34 -23.5t23 -35t8.5 -43t-8.5 -42.5t-23 -34t-34 -23t-41.5 -8.5q-23 0 -43 8.5t-35 23t-24 34t-9 42.5zM65 -103q0 23 9 43t24 35t34.5 23.5t41.5 8.5t42 -8.5t35 -23.5t23.5 -35t8.5 -43t-8.5 -42.5
t-23.5 -34t-35 -23t-42 -8.5t-41.5 8.5t-34.5 23t-24 34t-9 42.5zM-55 154v172h83q81 0 130 50q56 58 56 166v428h216v-449q5 -92 55 -144q50 -51 127 -51h87v-172h-87q-183 0 -290 111q-108 -111 -294 -111h-83z" />
    <glyph glyph-name="uniFEF6" unicode="&#x641;" horiz-adv-x="1078" arabic-form="final" 
d="M945 326h188v-172h-1118v172h169q-40 52 -40 161v863h216v-863q0 -73 48 -121q40 -40 91 -40h132q56 0 97 46q42 48 42 115v863h215v-863q0 -109 -40 -161zM446 1501v-77h-282v77h282z" />
    <glyph glyph-name="uniFEF7" unicode="&#x641;" horiz-adv-x="1095" arabic-form="initial" 
d="M350 326h311q56 0 97 46q42 48 42 115v863h215v-863q0 -138 -104 -236q-104 -97 -250 -97h-646v172q71 0 111 40q48 48 48 121v863h216v-863q0 -109 -40 -161zM179 1505q-17 28 -20 60v10q0 21 7 41q24 67 107 67q52 0 87 -27q31 -25 40 -68l-82 -10q-5 24 -18 35
q-10 7 -27 7q-19 0 -27 -20q-4 -10 -4 -22q0 -4 1 -9q1 -18 9 -33q14 -26 34 -31h130v-62h-284v62h47z" />
    <glyph glyph-name="uniFEF8" unicode="&#x641;" horiz-adv-x="1078" arabic-form="medial" 
d="M945 326h188v-172h-1118v172h169q-40 52 -40 161v863h216v-863q0 -73 48 -121q40 -40 91 -40h132q56 0 97 46q42 48 42 115v863h215v-863q0 -109 -40 -161zM151 1499q-17 28 -20 60v10q0 21 7 41q24 67 107 67q52 0 87 -27q31 -25 40 -68l-82 -10q-5 24 -18 35
q-10 7 -27 7q-19 0 -27 -20q-4 -10 -4 -22q0 -4 1 -9q1 -18 9 -33q14 -26 34 -31h130v-62h-284v62h47z" />
    <glyph glyph-name="uniFEFA" unicode="&#x642;" horiz-adv-x="1078" arabic-form="final" 
d="M945 326h188v-172h-1118v172h169q-40 52 -40 161v863h216v-863q0 -73 48 -121q40 -40 91 -40h132q56 0 97 46q42 48 42 115v863h215v-863q0 -109 -40 -161zM180 -112q-17 28 -20 60v10q0 21 7 41q24 67 107 67q52 0 87 -27q31 -25 40 -68l-82 -10q-5 24 -18 35
q-10 7 -27 7q-19 0 -27 -20q-4 -10 -4 -22q0 -4 1 -9q1 -18 9 -33q14 -26 34 -31h130v-62h-284v62h47z" />
    <glyph glyph-name="uniFEFB" unicode="&#x642;" horiz-adv-x="1115" arabic-form="initial" 
d="M350 326h311q56 0 97 46q42 48 42 115v863h215v-863q0 -138 -104 -236q-104 -97 -250 -97h-646v172q71 0 111 40q48 48 48 121v863h216v-863q0 -109 -40 -161z" />
    <glyph glyph-name="uniFEFC" unicode="&#x642;" horiz-adv-x="1098" arabic-form="medial" 
d="M945 326h188v-172h-1118v172h169q-40 52 -40 161v863h216v-863q0 -73 48 -121q40 -40 91 -40h132q56 0 97 46q42 48 42 115v863h215v-863q0 -109 -40 -161z" />
    <glyph glyph-name="uniFDFA" unicode="&#xfdfa;" horiz-adv-x="2188" arabic-form="isolated" 
d="M285 68q-21 33 -21 73q0 22 10 46t25.5 43.5t34.5 32t37 12.5q7 0 20 -9q34 -16 54 -16q31 0 55 31l8 10l8 10q9 8 25 43l12 25q2 2 3.5 4.5l4.5 7.5q-9 3 -12 6l-35 10q-102 34 -131 152l-6 29l-4 20v3q0 2 -2 7l-4 2l-6 -8q-67 -94 -148 -94q-21 0 -43 4t-39 10.5
t-28 14.5t-11 16q0 39 68 98q35 29 72 52t78 39l28 10l8 4q4 0 7 2v27q0 4 -3 8l39 63q2 -6 2 -9v-5l2 -27q13 -177 43 -248q34 -66 111 -86q-2 11 -2 17t-2 8l-6 82q-2 12 -3.5 32.5t-4.5 49.5q-6 46 -6 78l36 88v-21l9 -78l6 -65l4 -47l6 -58l4 -47q2 -14 3 -26t3 -23
q8 -2 14 -2t9 -2l55 -4l88 -4h45q208 0 342 82l4 8l10 31q14 37 25 37q6 0 6 -15v-14l-4 -16q-2 -8 -2 -14v-11q9 -12 24 -24.5t32 -22.5t34 -16.5t29 -6.5q50 0 84 88v13l-4 37l-4 43l-4 53q-2 5 -2.5 19.5t-2.5 37.5l-4 57q-2 19 -3 35.5t-1 30.5q-5 -2 -9 -2h-5
q-32 0 -59.5 11t-49.5 31.5t-37 48.5t-20 61h-2q-2 -5 -3 -8t-1 -5q-32 -116 -80 -133v-4h53q18 0 35 -6t29.5 -16.5t20 -25t7.5 -30.5q0 -69 -71 -108l-43 -25q-137 -82 -258 -82q-48 0 -87 13t-66.5 36.5t-42.5 56.5t-15 74q0 29 7.5 64t24.5 74q-60 18 -75 86h-4l-7 -13
q-46 -90 -104 -90q-98 0 -98 154q-5 -3 -7 -4.5t-4 -3.5l-18 -17l-10 -8.5t-6 -5.5q-11 -11 -29.5 -17t-46.5 -6q-111 0 -111 37q0 16 12 38.5t35 53.5q17 23 80 54l31 14q27 12 31 12q14 6 23.5 12l17.5 11v22l37 70v-51l2 -35l2 -43l2 -47v-49l2 -17l2 -26q6 -62 59 -62
q58 0 86 47l6 11q2 3 2 4q0 2 2 4l-2 4v4q0 2 -2 4l-4 41l-10 68l-10 67l-4 33v5q0 4 -2 9l39 76q2 -5 2 -9v-5l8 -41l10 -60l10 -61q3 -17 5.5 -33.5t4.5 -32.5l6.5 -37t4.5 -22l4 -18v-7q16 -41 69 -41q41 0 46 25v2q0 33 -21 105l-18 59l-17 53l-12 43q0 2 -1 7.5
t-3 13.5l24 65q5 -14 11.5 -38.5t17.5 -59.5q53 -171 53 -225q0 -24 -7 -48.5t-17.5 -44.5t-23.5 -32.5t-25 -12.5h-9q-3 0 -8 2q-8 -17 -11 -36.5t-3 -40.5q0 -70 49 -111t135 -41q154 0 281 92l10 6l2 2v5q0 13 -111 28q-23 3 -36.5 4.5t-16.5 3.5l-16.5 3t-7.5 1
q-17 5 -17 19v8l4 8l7 19q7 17 20 30q8 5 18 9.5l21 9.5q28 12 45.5 22.5t28 24t14.5 31t4 43.5v38q0 17 -2 31l-4 60l-6 86l-8 76l-9 79q-6 66 -12 97l37 110q2 -12 2 -20q0 -7 2 -10l10 -95l15 -118l10 -86q21 -177 57 -244q20 -32 51 -51.5t74 -24.5q-2 17 -3 34t-1 34
v22q0 12 -2 23l-2 43v39l41 90q6 -56 6 -72l2 -68q0 -2 6 -75v-22q0 -11 2 -25l2 -21q5 2 9.5 3t7.5 1q45 15 57 21q14 7 51 37l15 10q3 -3 5.5 -4.5t4.5 -3.5q37 -29 69 -46t60 -20q40 38 80 71.5t82 61.5q82 55 112 55q42 0 86 -32q49 -31 49 -58q0 -33 -30 -82
q-16 -23 -31 -39t-31 -24q-43 -23 -108.5 -34t-155.5 -11q-17 0 -35 1t-37 3q-47 -94 -75 -94q-9 0 -9 12q0 11 6 25t17 32l12 25q2 2 4 4.5t4 7.5q-5 2 -8.5 3t-5.5 3l-20 11q-20 9 -36.5 18t-27.5 19q-51 -34 -61 -37l-37 -11l-10 -4h-9v-26l5 -47l2 -60q12 -178 55 -239
q44 -62 162 -68v4q-39 27 -39 86q0 83 57 152t127 69q25 0 51 -7.5t48.5 -19.5t38.5 -27t20 -30v-14q-47 20 -105 20q-34 0 -67 -7.5t-59 -19.5t-42 -27t-16 -30q0 -30 53 -86q28 -26 49.5 -39.5t36.5 -13.5h4q3 0 7 2q2 0 6 1l12 3q160 37 246 80l-33 -73
q-213 -109 -385 -109q-186 0 -244 137l-4 12q-56 -133 -115 -133q-60 0 -135 90q-149 -114 -385 -114q-48 0 -86.5 2.5t-70.5 7.5q2 -5 2 -8v-4l4 -25q8 -60 20.5 -101.5t32.5 -64.5q17 -20 50.5 -35.5t84.5 -29.5q53 -14 109 -20.5t116 -6.5q218 0 336 62q32 77 58 77
q8 0 8 -16q0 -26 -17 -68q-2 -6 -3 -10.5t-3 -9.5q9 -29 53 -29q65 0 101 27q6 9 6 12l12 37q28 76 47 82h2q9 0 9 -12v-15q0 -26 -13 -61l-4 -12l-2 -7q48 -28 90 -28q15 0 15 14q0 16 -11 47l-6 25l33 71q27 -65 27 -108q0 -60 -25.5 -95.5t-67.5 -35.5q-35 0 -81 29
q-2 2 -5 3.5t-8 4.5q-46 -54 -119 -54q-94 0 -100 54q-60 -35 -153 -53.5t-218 -18.5q-110 0 -186.5 15.5t-125.5 51t-74 92t-31 138.5v18q-65 -104 -95 -120q23 -51 23 -82q0 -44 -21.5 -73.5t-56.5 -29.5q-14 0 -27 3t-24 10l-41 18q-11 5 -17.5 9l-11.5 7
q-56 -104 -135 -104h-19q-7 0 -14 -2l-10 -4l-6 -2l-16 -4h-7q-2 0 -6 4v6q2 5 9 9t18 9q17 8 29 13t18 8l25 10q8 5 15 10.5t15 10.5l17 12l16 12q4 4 19 12q5 5 9 8.5t7 6.5zM453 105q0 14 -10.5 30t-32.5 33q-41 35 -78 35q-27 0 -27 -25q0 -22 48 -55q46 -31 81 -31h9
q10 0 10 13zM365 639l-6 76q-31 -11 -60.5 -24.5t-58.5 -30.5q-57 -34 -57 -48q0 -4 2 -6l4 -2l6 -6q9 -6 41 -6q76 0 129 47zM402 1092l-2 80q-5 -2 -8 -3t-5 -1l-28 -15l-41 -16q-70 -31 -70 -49q0 -23 55 -23q23 0 48 6.5t51 20.5zM506 1577q-2 -8 -2 -14v-10
q0 -50 35 -50q23 0 39 31q-2 5 -2 7v5l-2 19v5q0 4 -2 9l20 27l6 -43l2 -15q3 -32 29 -32q23 0 23 20v10l-3 19l-4 16v8l15 23q14 -41 14 -78q0 -65 -45 -65q-19 0 -41 16q-40 -31 -53 -31q-49 0 -49 53q0 29 6 58zM951 1546q3 -29 5.5 -59.5t4.5 -62.5l6 -87l6 -86l6 -92
l4 -53v-5q0 -3 2 -9l-2 -23q-9 -112 -24 -127q-2 8 -2 12v7l-9 59l-8 80l-10 88l-8 90l-10 102l-4 56zM1266 1376l6 52l418 188l-10 -47zM1610 1153q-34 14 -51 34.5t-17 49.5q0 60 56 90l53 31q78 45 171 88.5t200 85.5l-19 -49l-22 -10q-79 -31 -149.5 -63.5t-133.5 -67.5
q-125 -67 -125 -91q0 -15 47 -45l6 -4zM1737 969q14 -2 24 -2h19q92 0 172 18q81 22 90 45v4q0 15 -35 33q-17 11 -31.5 16t-25.5 5q-30 0 -100 -39q-35 -20 -63 -40t-50 -40zM932 266l57 70l99 -72l53 68l100 -76l-53 -63l-98 71l-58 -71zM2030 111l-14 43q-42 -54 -76 -54
q-15 0 -28 7.5t-22.5 20.5t-15.5 29t-6 34q0 48 31 106q33 59 57 59q32 0 70 -59q39 -59 39 -106q0 -118 -86 -236q-86 -119 -172 -119q-20 0 -48 8t-65 23q-72 28 -82 47v6q2 2 3.5 3t6.5 1h2q9 -3 21 -6l20 -6l35 -10q14 -5 26.5 -6.5t24.5 -1.5q133 0 279 217zM1913 215
q16 -35 64 -35q11 0 17 6t11 17q-15 63 -53 63q-14 0 -24 -12.5t-15 -38.5zM1231 -115q8 -8 17 -8q30 0 30 29q0 28 23 31v-45q0 -45 -53 -45q-8 0 -14.5 2.5t-14.5 7.5q-33 -33 -62 -33q-16 0 -30 14l-13 13q-8 8 -16 8t-23 -6.5t-36 -20.5q-35 -23 -72 -34t-72 -11h-33
q-69 0 -69 17q0 16 67 16h39q64 0 123 35q61 39 82 39q22 0 49 -27q8 -4 11 -6h8q29 3 32 27v8q0 14 19 24l4 2q8 0 8 -12v-4q0 -3 -2 -6q-2 -2 -2 -10v-5z" />
    <glyph glyph-name=".notdef" horiz-adv-x="1024" 
d="M100 0v1434h824v-1434h-824zM150 50h724v1334h-724v-1334zM325 1148q31 28 58 43q53 30 112 30q92 0 148 -47.5t56 -127.5q0 -49 -23 -98.5t-87 -129.5q-63 -80 -99 -132t-36 -99q0 -38 24 -133h-32q-35 97 -35 148q0 76 81.5 218t81.5 217q0 57 -33 90t-91 33
q-38 0 -69 -17q-26 -15 -56 -40v45zM389 334l57 58q11 10 20 10q10 0 22 -11l56 -60q9 -11 9 -20q0 -11 -10 -22l-56 -62q-14 -14 -21 -14q-11 0 -20 10l-61 71q-7 9 -7 18q0 10 11 22z" />
    <glyph glyph-name=".null" horiz-adv-x="0" 
 />
    <glyph glyph-name="nonmarkingreturn" horiz-adv-x="508" 
 />
    <glyph glyph-name="space" unicode=" " horiz-adv-x="508" 
 />
    <glyph glyph-name="space" unicode="&#xa0;" horiz-adv-x="508" 
 />
    <glyph glyph-name="exclam" unicode="!" horiz-adv-x="422" 
d="M306 1350v-790h-215v790h215zM200 195q-49 0 -86 37q-34 38 -34 90t35 89q36 37 85 37h2q49 0 85 -37q35 -37 35 -89t-34 -90q-37 -37 -86 -37h-2z" />
    <glyph glyph-name="quotedbl" unicode="&#x22;" horiz-adv-x="622" 
d="M496 1540q1 -60 3 -114t3.5 -106.5l3 -106t3.5 -113.5q-2 -20 -23 -32t-48 -17l-20.5 106.5l-19.5 100l-19.5 100.5l-20.5 107q0 31 23 53t56 22h59zM245 1540q2 -60 3.5 -114l3 -106.5l3 -106t3.5 -113.5q0 -20 -21.5 -32t-48.5 -17l-21 106.5l-19.5 100l-19.5 100.5
l-21 107q1 31 24 53t55 22h59z" />
    <glyph glyph-name="numbersign" unicode="#" horiz-adv-x="1370" 
d="M804 1418l-141 -395h223l142 395h143l-139 -395h262l-45 -127h-263l-81 -227h280l-44 -128h-281l-141 -394h-143l140 394h-224l-141 -394h-144l138 394h-268l46 128h269l80 227h-287l45 127h289l140 395h145zM843 896h-226l-81 -229h227z" />
    <glyph glyph-name="dollar" unicode="$" horiz-adv-x="1020" 
d="M464 -44v169q-409 30 -409 412v21h162v-15q0 -124 64.5 -195t182.5 -78v479q-382 64 -382 358q0 79 27 144t76.5 112t120 74.5t158.5 32.5v129h95v-129q184 -15 280.5 -104.5t98.5 -245.5h-164q-22 192 -215 204v-426q228 -49 321 -136q92 -86 92 -246
q0 -167 -106 -267.5t-307 -121.5v-171h-95zM559 263q117 11 179 71t62 162q0 90 -56.5 144.5t-184.5 84.5v-462zM464 913v412q-50 0 -90.5 -14.5t-69 -41t-44 -64.5t-15.5 -85q0 -88 52.5 -138.5t166.5 -68.5z" />
    <glyph glyph-name="percent" unicode="%" horiz-adv-x="829" 
d="M679 1413l-105 -351l-101 -336l-101 -336l-106 -350l-83.5 -45l-82.5 -44l105 350.5l101.5 337l101.5 336.5l105 350zM133 1258q22 0 42 -8.5t35 -23t23.5 -34.5t8.5 -43t-8.5 -43t-23.5 -35t-35 -23.5t-42 -8.5t-42 8.5t-35 23.5t-24 35t-9 43t9 43t24 34.5t35 23
t42 8.5zM654 302q22 0 42 -8.5t35 -23.5t24 -35t9 -42q0 -23 -9 -42.5t-24 -34.5t-35 -23.5t-42 -8.5q-23 0 -42.5 8.5t-34.5 23.5t-23.5 34.5t-8.5 42.5q0 22 8.5 42t23.5 35t34.5 23.5t42.5 8.5z" />
    <glyph glyph-name="ampersand" unicode="&#x26;" horiz-adv-x="1294" 
d="M418 945q-79 85 -116 160.5t-37 153.5q0 67 24.5 124t68.5 97.5t104 63.5t132 23q75 0 136 -20.5t104 -59t66 -92.5t23 -120q0 -110 -62 -198t-195 -167l257 -314q24 45 37.5 100.5t19.5 128.5h161q0 -103 -26.5 -192t-78.5 -170l258 -310h-230l-135 166
q-167 -199 -423 -199q-90 0 -165.5 29.5t-130 82.5t-85 126t-30.5 160q0 130 75 231q74 99 248 196zM510 832q-64 -37 -109.5 -72.5t-74 -71.5t-41.5 -75t-13 -84q0 -54 19.5 -100t53.5 -79t81 -51.5t103 -18.5q84 0 160.5 40.5t145.5 119.5zM575 1006q99 61 145 124.5
t46 136.5q0 36 -11.5 66t-33 51.5t-52 33.5t-67.5 12q-82 0 -128 -43.5t-46 -121.5q0 -57 34.5 -119t112.5 -140z" />
    <glyph glyph-name="quotesingle" unicode="'" horiz-adv-x="385" 
d="M245 1540q2 -60 3.5 -114l3 -106.5l3 -106t3.5 -113.5q0 -20 -21.5 -32t-48.5 -17l-21 106.5l-19.5 100l-19.5 100.5l-21 107q1 31 24 53t55 22h59z" />
    <glyph glyph-name="parenleft" unicode="(" horiz-adv-x="533" 
d="M467 1589q-87 -183 -130 -386.5t-43 -413.5q0 -209 42.5 -411t130.5 -384h-100q-140 206 -208.5 401.5t-68.5 388.5q0 198 70 396t208 409h99z" />
    <glyph glyph-name="parenright" unicode=")" horiz-adv-x="533" 
d="M179 1589q138 -211 208 -409t70 -396q0 -193 -69 -388.5t-208 -401.5h-100q87 182 130 384t43 411q0 210 -43 413.5t-130 386.5h99z" />
    <glyph glyph-name="asterisk" unicode="*" horiz-adv-x="891" 
d="M444 976l-152 -219l-121 81l171 213l-247 68l44 138l239 -82v257h134v-257l236 82l48 -138l-251 -68l173 -211l-119 -88z" />
    <glyph glyph-name="plus" unicode="+" horiz-adv-x="1484" 
d="M804 1212v-470h459v-121h-459v-471h-124v471h-459v121h459v470h124z" />
    <glyph glyph-name="comma" unicode="," horiz-adv-x="488" 
d="M155 150v192h178v-208q0 -99 -46.5 -163t-131.5 -85v89q42 9 65 47t23 101v27h-88z" />
    <glyph glyph-name="hyphen" unicode="-" horiz-adv-x="884" 
d="M119 477l57 197h590l-57 -197h-590z" />
    <glyph glyph-name="hyphen" unicode="&#xad;" horiz-adv-x="884" 
d="M119 477l57 197h590l-57 -197h-590z" />
    <glyph glyph-name="period" unicode="." horiz-adv-x="497" 
d="M250 195q-49 0 -86 37q-34 38 -34 90t35 89q36 37 85 37h2q49 0 85 -37q35 -37 35 -89t-34 -90q-37 -37 -86 -37h-2z" />
    <glyph glyph-name="slash" unicode="/" horiz-adv-x="658" 
d="M619 1413l-105.5 -351l-102 -336l-101.5 -336l-106 -350l-83.5 -45l-82.5 -44l106 350.5l101.5 337l102 336.5l105.5 350z" />
    <glyph glyph-name="zero" unicode="0" horiz-adv-x="1019" 
d="M66 717q0 150 31 271t88.5 206.5t139.5 131.5t184 46t183.5 -45.5t139.5 -130.5t89 -206.5t31 -272.5q0 -148 -30.5 -269t-88 -207t-139.5 -133t-185 -47t-185 46.5t-139.5 132t-88 207t-30.5 270.5zM314 717q0 -242 48.5 -356t146.5 -114t147 115.5t49 354.5
q0 238 -49 355t-147 117t-146.5 -115t-48.5 -357z" />
    <glyph glyph-name="one" unicode="1" horiz-adv-x="1019" 
d="M478 85v1031l-240 -166l-68 162l286 239h257v-1266h-235z" />
    <glyph glyph-name="two" unicode="2" horiz-adv-x="1019" 
d="M927 85h-827l10 189q43 47 98.5 100l113.5 109.5l114 116.5t99.5 120.5t70 121t26.5 118.5q0 54 -17.5 94t-48 66t-71 38.5t-85.5 12.5q-60 0 -123.5 -21t-118.5 -62l-75 169q94 61 188 89t197 28q92 0 167.5 -31.5t129 -84.5t83 -123t29.5 -147q0 -70 -25 -138
q-30 -81 -87.5 -159t-127.5 -149.5t-143 -134.5l-134 -114h557v-208z" />
    <glyph glyph-name="three" unicode="3" horiz-adv-x="1019" 
d="M435 61q-107 0 -187.5 18t-144.5 56l48 150q59 -29 113 -40t111 -11q67 0 118 15t85.5 40.5t51.5 59t17 69.5q0 41 -23 81.5t-68.5 73.5t-115 54t-162.5 23l-8 154q48 6 107.5 22.5t111.5 45t87.5 69.5t35.5 97q0 45 -18.5 77t-49 52.5t-71 30t-83.5 9.5q-48 0 -95 -10.5
t-87 -30.5l-60 151q51 26 127.5 41t160.5 15q45 0 88.5 -5t83 -15.5t73.5 -27t58 -39.5q52 -51 77 -106.5t25 -112.5q0 -90 -61 -170.5t-182 -134.5q279 -110 279 -344q0 -81 -30.5 -146.5t-87.5 -112.5t-139 -72.5t-185 -25.5z" />
    <glyph glyph-name="four" unicode="4" horiz-adv-x="1019" 
d="M587 85v296h-547v214l310 386l310 386h148v-771h126v-215h-126v-296h-221zM588 596v439l-357 -439h357z" />
    <glyph glyph-name="five" unicode="5" horiz-adv-x="1019" 
d="M197 260q41 -14 81.5 -20t82.5 -6q90 0 151.5 20t99.5 53.5t55 76.5t17 88q0 84 -40 129.5t-108 66.5t-157 24t-187 3l-2 656h652v-198h-453v-249q127 0 225.5 -28.5t166 -83.5t102.5 -135.5t35 -184.5q-2 -101 -43 -178t-109.5 -128.5t-157 -78t-184.5 -26.5
q-81 0 -148.5 10t-124.5 31z" />
    <glyph glyph-name="six" unicode="6" horiz-adv-x="1019" 
d="M95 520q0 114 37 232t105 229t163.5 209.5t213.5 173.5q7 -8 11 -13.5l8 -10.5l8 -10.5t10 -12.5v1l35 -45.5l36 -45.5q-240 -157 -328 -364q66 27 140 27q73 0 144 -26.5t127.5 -78t91.5 -127.5t35 -175q0 -92 -31 -169.5t-86.5 -133t-132 -86.5t-168.5 -31
q-101 0 -179.5 33.5t-131.5 94.5t-80.5 144.5t-27.5 184.5zM539 265q46 0 82 19t60.5 47.5t37.5 62.5t13 65q0 51 -23.5 93t-61 72t-84.5 46.5t-93 16.5q-38 0 -75 -11t-69 -34q-13 -49 -13 -102q0 -54 15 -104t43.5 -88t71 -60.5t96.5 -22.5z" />
    <glyph glyph-name="seven" unicode="7" horiz-adv-x="1019" 
d="M255 131l388 1027h-552v193h795v-193l-429 -1104z" />
    <glyph glyph-name="eight" unicode="8" horiz-adv-x="1019" 
d="M509 1372q84 0 152 -30.5t116.5 -79.5t75 -111.5t26.5 -126.5q0 -39 -11 -77.5t-33.5 -73.5t-57.5 -65t-84 -52q125 -55 187.5 -138.5t62.5 -189.5q0 -83 -30.5 -150t-86.5 -118v1q-59 -48 -138 -74t-179 -26q-101 0 -180.5 26t-138.5 74v-1q-55 51 -85 119t-30 149
q0 53 16 100.5t45.5 88t69.5 72.5t88 53q-89 53 -131 131t-42 160q0 65 25.5 126t74.5 108.5t121.5 76t166.5 28.5zM502 628q-49 0 -86 -17.5t-61.5 -45.5t-37 -64t-12.5 -73t12 -71t36 -60t60.5 -41.5t84.5 -15.5q47 0 85.5 10t65.5 33.5t41.5 62.5t14.5 96q0 8 -2.5 25
t-10 38t-21.5 42.5t-36.5 39.5t-55 29.5t-77.5 11.5zM328 1020q0 -34 19 -67t47 -59t59 -42t54 -16q10 0 14 2q24 9 50.5 24.5t48.5 38t36.5 51t14.5 63.5q0 39 -16 69.5t-41.5 51.5t-57.5 32t-65 11q-32 0 -61 -10t-52 -29.5t-36.5 -49.5t-13.5 -70z" />
    <glyph glyph-name="nine" unicode="9" horiz-adv-x="1019" 
d="M932 908q0 -114 -37 -232t-105 -229.5t-164 -210t-214 -172.5q-13 16 -18.5 24t-17.5 23v-1q-19 23 -35.5 45t-36.5 45q121 79 202.5 170t125.5 194q-66 -27 -139 -27t-144 26.5t-127.5 78t-91.5 127.5t-35 175q0 93 31 170t86 133t131.5 87t168.5 31q102 0 180 -33.5
t131.5 -94.5t81 -145t27.5 -184zM487 1163q-46 0 -82 -19t-60.5 -47.5t-37.5 -62.5t-13 -65q0 -51 23.5 -93t61 -72t84 -46.5t93.5 -16.5q38 0 75 11t69 34q13 49 13 102q0 54 -15 104t-43.5 88t-71 60.5t-96.5 22.5z" />
    <glyph glyph-name="colon" unicode=":" horiz-adv-x="505" 
d="M250 438q22 0 42 -8.5t35 -23t24 -34.5t9 -43t-9 -42.5t-24 -34.5t-35 -23.5t-42 -8.5q-23 0 -42.5 8.5t-34.5 23.5t-23.5 34.5t-8.5 42.5t8.5 43t23.5 34.5t34.5 23t42.5 8.5zM250 917q22 0 42 -8.5t35 -23t24 -34.5t9 -43t-9 -42.5t-24 -34.5t-35 -23.5t-42 -8.5
q-23 0 -42.5 8.5t-34.5 23.5t-23.5 34.5t-8.5 42.5t8.5 43t23.5 34.5t34.5 23t42.5 8.5z" />
    <glyph glyph-name="less" unicode="&#x3c;" horiz-adv-x="1484" 
d="M1255 1025l-843 -344l843 -342v-134l-1025 421v112l1025 420v-133z" />
    <glyph glyph-name="equal" unicode="=" horiz-adv-x="1484" 
d="M1263 915v-122h-1042v122h1042zM1263 568v-120h-1042v120h1042z" />
    <glyph glyph-name="greater" unicode="&#x3e;" horiz-adv-x="1484" 
d="M1255 738v-112l-1025 -421v134l844 342l-844 344v133z" />
    <glyph glyph-name="at" unicode="@" horiz-adv-x="1782" 
d="M1117 893l50 100h115l-128 -501q-4 -14 -5 -27t-1 -24q0 -82 87 -82q42 0 89 23t92 66q70 66 109 161.5t39 203.5q0 112 -43.5 205t-123 159.5t-190 103.5t-243.5 37q-117 0 -214 -24t-184 -75q-167 -99 -258 -261q-91 -160 -91 -356q0 -154 54 -268t167 -200
q88 -67 206 -103t250 -36q148 0 286 42t255 123l47 -71q-129 -97 -273 -145.5t-304 -48.5q-189 0 -339.5 54t-256 149.5t-161.5 225t-56 280.5q0 145 45 272.5t132 233.5q128 156 305 235.5t397 79.5q163 0 296 -48t227.5 -130t145.5 -190t51 -228q0 -115 -36 -219.5
t-100.5 -184t-154.5 -126.5t-199 -47q-174 0 -174 136v17q-48 -78 -112.5 -114.5t-149.5 -36.5q-134 0 -203.5 73t-69.5 215q0 102 32 189.5t88 152.5t132 102t163 37q73 0 126 -32t84 -98zM1035 563l52 206q-15 76 -59.5 118t-113.5 42q-60 0 -111.5 -30.5t-89.5 -83.5
t-60 -124.5t-22 -152.5q0 -91 42 -141t120 -50q42 0 81 16.5t71 45.5t55.5 68.5t34.5 85.5z" />
    <glyph glyph-name="underscore" unicode="_" horiz-adv-x="1024" 
d="M0 -100h1024v-60h-1024v60z" />
    <glyph glyph-name="braceleft" unicode="{" horiz-adv-x="891" 
d="M753 1304h-35q-52 0 -86 -7.5t-54 -29.5t-28 -60.5t-8 -101.5v-210q0 -69 -9 -117.5t-29 -81t-54 -52.5t-83 -33q49 -12 82.5 -31.5t54 -51.5t29.5 -81t9 -119v-210q0 -62 8 -101t28 -61t54 -29.5t87 -7.5h34v-129h-37q-113 0 -177.5 16t-97 53t-41 96t-8.5 145v214
q0 64 -11 109t-35.5 73t-64.5 40.5t-97 12.5q-7 0 -19.5 -0.5t-18.5 -0.5v129q7 0 20 -1t19 -1q57 0 96 12.5t64 40.5t36 72.5t11 108.5v214q0 66 4.5 110t15 74t27 49t40.5 34q39 24 94.5 34.5t147.5 10.5h32v-131z" />
    <glyph glyph-name="bar" unicode="|" horiz-adv-x="891" 
d="M512 1512v-1782h-131v1782h131z" />
    <glyph glyph-name="braceright" unicode="}" horiz-adv-x="891" 
d="M500 1123v-214q0 -64 11 -108.5t36 -72.5t64 -40.5t96 -12.5q6 0 19 1t20 1v-129q-6 0 -19 0.5t-18 0.5q-58 0 -98 -12.5t-64.5 -40t-35.5 -72.5t-11 -110v-214q0 -65 -4.5 -109t-15 -74.5t-27 -50t-40.5 -34.5q-18 -11 -39.5 -19t-49.5 -13t-64 -7.5t-83 -2.5h-38v129
h34q53 0 87.5 8.5t54.5 30.5t28 61t8 101v208q0 71 9 119.5t29.5 80.5t53.5 51t82 32q-49 13 -82.5 32.5t-53.5 52t-29 80.5t-9 119v210q0 61 -8 100t-28.5 61t-55 30t-86.5 8h-34v131h32q112 0 177.5 -16.5t99 -53.5t43 -96.5t9.5 -145.5z" />
    <glyph glyph-name="asciitilde" unicode="~" horiz-adv-x="1484" 
d="M1331 684q-91 -63 -173.5 -92.5t-164.5 -29.5q-79 0 -223 50q-10 3 -17.5 5.5t-12.5 4.5l-13 5q-152 52 -237 52q-73 0 -152.5 -32t-182.5 -105v135q183 125 337 125q29 0 59 -3t65 -10.5t76.5 -21t93.5 -33.5q139 -50 208 -50q77 0 156.5 32.5t180.5 103.5v-136z" />
    <glyph glyph-name="sterling" unicode="&#xa3;" 
d="M748 1347q-72 31 -160 31h-2q-100 0 -190 -101q-84 -93 -84 -241q0 -15 1 -30q0 -135 53 -273h360v-60h-334q14 -30 31 -60q35 -63 35 -138q0 -161 -162 -375h402q130 0 189 132l49 -1l-103 -231h-719l1 50q187 238 187 418q0 77 -34 143q-17 32 -31 62h-161v60h135
q-58 143 -58 253q0 226 123.5 347t306.5 121h4q75 0 185.5 -14t110.5 -34v-161h-58q-5 61 -77 102z" />
    <glyph glyph-name="currency" unicode="&#xa4;" 
d="M350 560q41 -40 99 -57q29 -8 58 -8t58 8q58 17 99 57q40 41 57 99q9 29 9 58t-9 58q-17 58 -57 99q-41 40 -100 57q-29 8 -58 8t-58 -9q-58 -17 -98 -56q-39 -40 -56 -98q-10 -30 -10 -60q0 -28 9 -56q16 -59 57 -100zM240 903l-118 118l80 81l118 -118q44 30 99 46
q44 14 89 14q41 0 83 -12q57 -17 102 -48l118 118l80 -81l-117 -117q31 -46 48 -102q12 -42 12 -85q0 -42 -12 -85q-17 -56 -48 -102l117 -117l-80 -81l-118 118q-45 -32 -101 -48q-42 -12 -85 -12q-42 0 -85 12q-57 16 -102 48l-118 -118l-80 81l118 117q-32 46 -48 103
q-12 42 -12 84q0 44 13 87q16 55 47 99z" />
    <glyph glyph-name="yen" unicode="&#xa5;" horiz-adv-x="1262" 
d="M547 225l-2 242q0 19 -1.5 35t-4.5 32l-484 1q-14 0 -21 6.5t-7 19.5t6.5 19t21.5 6h467l-121 172h-344q-17 0 -23.5 5.5t-6.5 18.5q0 14 6 19.5t22 5.5h307q-43 57 -108 155q-131 197 -227 197q-7 0 -13 5.5t-6 11.5q0 19 10.5 27.5t32.5 8.5q27 0 123 -8t164 -8h88
q33 0 41 -6.5t8 -26.5q0 -8 -15 -14t-38 -6q-6 0 -18.5 2t-18.5 2q-24 0 -37.5 -9.5t-13.5 -25.5q0 -18 16.5 -52t46.5 -77l158 -221q13 -19 33 -53q41 -70 71 -70q9 0 16.5 5t14.5 15l277 396q8 12 13 26.5t5 24.5q0 18 -10 27t-37 14q-15 2 -41 4q-47 3 -47 25
q0 15 8 22.5t25 7.5q3 0 15 -1q56 -7 108 -7h139q30 0 65 1t37 1q11 0 18.5 -4.5t8.5 -11.5q0 -28 -38 -34q-18 -3 -27 -5q-63 -15 -147 -117l-12 -15l-169 -206h323q15 0 24 -6t9 -17q0 -15 -6 -20.5t-23 -5.5h-366q-46 -57 -96.5 -112.5t-52.5 -59.5h511q18 0 25.5 -5.5
t7.5 -17.5q0 -14 -7 -21t-22 -7h-530q0 -11 -1 -30.5t-1 -29.5l2 -215q0 -114 5.5 -150t20.5 -44q30 -17 107.5 -19t77.5 -31q0 -12 -10 -20t-25 -8q-2 0 -35.5 4t-64.5 4q-91 0 -208.5 -4t-142.5 -4q-31 0 -40 4t-9 16t8 18.5t37 12.5q9 2 25 5q74 16 92 32q17 13 24 47
t7 102z" />
    <glyph glyph-name="brokenbar" unicode="&#xa6;" 
d="M427 371h160v-789h-160v789zM427 1578h160v-789h-160v789z" />
    <glyph glyph-name="section" unicode="&#xa7;" 
d="M545 321q56 16 97 53q73 65 73 166q0 5 -1 10h-2q-1 14 -4 27q-22 61 -113 127q-59 29 -126 29q-78 0 -125 -44.5t-47 -117.5q0 -123 248 -250zM466 -346q113 6 185 69q72 64 72 165q0 125 -316 276q-123 64 -175.5 137t-52.5 177q0 148 89 237q67 65 170 82l-40 19
q-123 64 -175.5 137t-52.5 177q0 148 89 237q82 79 216 86q8 1 17 1h3q66 0 163 -16.5t97 -41.5v-194h-51q-5 81 -80 132q-70 47 -149 51h-15q-78 0 -125 -44.5t-47 -117.5q0 -132 287 -269q149 -67 204.5 -143.5t55.5 -187.5q0 -171 -101 -282q-47 -39 -99 -64
q108 -56 154 -118q55 -77 55 -187q0 -171 -101 -283q-124 -102 -277 -105v1q-6 -1 -13 -1h-3q-66 0 -163 16.5t-97 41.5v194h51q5 -81 80 -132q68 -45 145 -50z" />
    <glyph glyph-name="dieresis" unicode="&#xa8;" horiz-adv-x="1024" 
d="M223 1289l71 72q13 12 25 12q11 0 27 -14l69 -73q10 -14 10 -25q0 -13 -12 -27l-69 -75q-17 -17 -25 -17q-14 0 -25 12l-76 86q-9 12 -9 23q0 13 14 26zM588 1289l71 72q13 12 25 12q11 0 27 -13l69 -74q10 -14 10 -25q0 -13 -12 -26l-69 -76q-17 -17 -25 -17
q-14 0 -25 12l-76 87q-9 11 -9 22q0 13 14 26z" />
    <glyph glyph-name="copyright" unicode="&#xa9;" horiz-adv-x="1484" 
d="M741 1424q89 0 171 -23t153.5 -65t130.5 -100.5t100.5 -130t64.5 -153.5t23 -170q0 -92 -25 -175.5t-69 -154.5t-104.5 -128.5t-132 -98t-151 -62.5t-161.5 -22q-85 0 -165.5 23.5t-151.5 65.5t-130 101t-102 130.5t-66.5 152.5t-23.5 168q0 85 22.5 166t64 152
t99.5 130.5t129 102.5t153 67t171 24zM1299 782q0 118 -44.5 220t-120.5 177t-177 118t-214 43q-116 0 -218 -45.5t-177.5 -122.5t-119 -178t-43.5 -212q0 -110 44.5 -210.5t120.5 -177t177.5 -122t215.5 -45.5q70 0 138.5 18.5t130.5 53.5t114.5 84.5t91 111t60 134
t21.5 153.5zM916 939q-11 67 -57 103t-121 36q-46 0 -82.5 -20t-61.5 -58.5t-38.5 -93.5t-13.5 -124q0 -137 53.5 -212.5t150.5 -75.5q72 0 119.5 40.5t59.5 112.5h126q-4 -56 -28.5 -103t-65.5 -80.5t-96 -52t-120 -18.5q-80 0 -142.5 27t-106 78t-66.5 124.5t-23 165.5
q0 86 24.5 157.5t69.5 122.5t108.5 79t140.5 28q61 0 113.5 -17t91.5 -48.5t63.5 -75t29.5 -95.5h-128z" />
    <glyph glyph-name="guillemotleft" unicode="&#xab;" horiz-adv-x="880" 
d="M763 22h-72l-164 192.5l-164 192.5l164.5 189.5l164.5 189.5h64l-217 -378zM461 22h-68l-163 192.5l-164 192.5l164.5 189.5l165.5 189.5h65l-219 -378z" />
    <glyph glyph-name="logicalnot" unicode="&#xac;" 
d="M87 767h840v-491l-1 -1h-98v392h-741v100z" />
    <glyph glyph-name="registered" unicode="&#xae;" horiz-adv-x="1484" 
d="M741 1424q88 0 170 -23t153.5 -65t130 -100.5t101 -130t65.5 -153.5t23 -170q0 -91 -24.5 -174t-68.5 -154.5t-104.5 -129t-132 -98.5t-151 -63t-162.5 -22q-86 0 -167 23.5t-152 66.5t-129.5 102t-101 130.5t-66 152t-23.5 166.5q0 83 22 162.5t62.5 151t97.5 131.5
t128 104t154 68.5t175 24.5zM1299 777q0 121 -44.5 224t-120.5 178.5t-177 118t-214 42.5q-82 0 -155 -22t-135 -60.5t-111.5 -91t-84.5 -114.5t-53.5 -131t-18.5 -139q0 -74 20.5 -143.5t57 -131t87.5 -113t112.5 -89t131 -58t144.5 -20.5q111 0 212.5 42t179 116
t123.5 174.5t46 217.5zM759 1158q303 0 303 -199q0 -78 -43.5 -129t-122.5 -67l163 -331h-154l-148 310h-135v-310h-137v726h274zM734 1070h-112v-241h116q98 0 140.5 27t42.5 88q0 66 -44 96t-143 30z" />
    <glyph glyph-name="degree" unicode="&#xb0;" horiz-adv-x="674" 
d="M339 1372q-86 0 -147.5 -61t-61.5 -148t61 -147t148 -60t147 60t60 147t-60.5 148t-146.5 61zM339 1442q115 0 196 -81.5t81 -196.5q0 -114 -82 -196t-197 -82q-117 0 -197 81t-80 197t81.5 197t197.5 81z" />
    <glyph glyph-name="paragraph" unicode="&#xb6;" horiz-adv-x="1024" 
d="M929 1435v-70h-127v-1365h-82v1365h-166v-1365h-84v738q-174 8 -275.5 102.5t-101.5 245.5q0 157 107.5 253t285.5 96h443z" />
    <glyph glyph-name="guillemotright" unicode="&#xbb;" horiz-adv-x="880" 
d="M335 408l-108 189l-109 189h65l163.5 -189.5l165.5 -189.5l-165 -193l-163 -192h-74zM632 408l-109.5 189l-109.5 189h65l165.5 -189.5l164.5 -189.5l-163 -193l-164 -192h-68z" />
    <glyph glyph-name="multiply" unicode="&#xd7;" 
d="M507 618l-247 -247l-99 99l247 247l-247 248l99 98l247 -247l248 247l98 -99l-247 -247l247 -247l-99 -99z" />
    <glyph glyph-name="divide" unicode="&#xf7;" 
d="M87 647v140h839l1 -1v-139h-840zM398 408l82 84q15 14 29 14q13 0 31 -16l80 -86q12 -16 12 -29q0 -15 -14 -31l-80 -88q-20 -20 -29 -20q-16 0 -29 14l-88 101q-10 13 -10 26q0 15 16 31zM398 1101l82 84q15 14 29 14q13 0 31 -16l80 -86q12 -16 12 -29q0 -15 -14 -31
l-80 -88q-20 -20 -29 -20q-16 0 -29 14l-88 101q-10 13 -10 26q0 15 16 31z" />
    <glyph glyph-name="dotlessi" unicode="&#x131;" horiz-adv-x="1200" 
d="M510 100l55 357l-278 -228l-90 156l333 131l-333 127l90 156l278 -224l-53 353l178 2l-55 -355l278 226l88 -158l-331 -127l334 -131l-91 -156l-278 228l55 -357h-180z" />
    <glyph glyph-name="circumflex" unicode="&#x2c6;" horiz-adv-x="1024" 
d="M221 1079l232 355h118l232 -355h-58l-233 216l-233 -216h-58z" />
    <glyph glyph-name="caron" unicode="&#x2c7;" horiz-adv-x="1024" 
d="M221 1434h58l233 -214l233 214h58l-232 -356h-118z" />
    <glyph glyph-name="uni02C9" unicode="&#x2c9;" horiz-adv-x="1024" 
d="M254 1195v125h516v-125h-516z" />
    <glyph glyph-name="breve" unicode="&#x2d8;" horiz-adv-x="1024" 
d="M219 1349h51q17 -73 75 -107t167 -34t166 33.5t74 107.5h51q-20 -133 -94 -201.5t-197 -68.5q-122 0 -197 69t-96 201z" />
    <glyph glyph-name="dotaccent" unicode="&#x2d9;" horiz-adv-x="815" 
d="M374 1445h68l17 -213l163 139l49 -49l-140 -162l214 -18v-68l-214 -17l140 -163l-49 -48l-163 139l-17 -214h-68l-17 214l-164 -139l-47 48l139 163l-214 17v68l214 18l-139 162l47 49l164 -139z" />
    <glyph glyph-name="ring" unicode="&#x2da;" horiz-adv-x="1024" 
d="M411 1257q0 -42 29 -71t71 -29t71 29t29 71q0 40 -29.5 69.5t-70.5 29.5t-70.5 -29.5t-29.5 -69.5zM335 1257q0 75 51 126t125 51q76 0 127.5 -51.5t51.5 -125.5q0 -75 -51.5 -126.5t-127.5 -51.5q-74 0 -125 51.5t-51 126.5z" />
    <glyph glyph-name="ogonek" unicode="&#x2db;" horiz-adv-x="1024" 
d="M640 0q-71 -62 -110.5 -119.5t-39.5 -112.5q0 -47 27 -75t73 -28q40 0 69.5 15.5t49.5 48.5l28 -16q-36 -63 -90.5 -97t-119.5 -34q-70 0 -114 35.5t-44 90.5q0 76 60.5 156.5t161.5 135.5h49z" />
    <glyph glyph-name="tilde" unicode="&#x2dc;" horiz-adv-x="1024" 
d="M808 1382q-20 -103 -68.5 -154t-126.5 -51h-4q-50 0 -113 23q-66 24 -114 24q-39 0 -60.5 -20.5t-33.5 -71.5h-54q19 106 68 158.5t129 52.5q46 -1 113 -24q64 -23 112 -23h4q36 0 58 20t36 66h54z" />
    <glyph glyph-name="hungarumlaut" unicode="&#x2dd;" horiz-adv-x="1024" 
d="M217 1079l144 273q24 44 45.5 63t46.5 19q28 0 48 -20t20 -47q0 -16 -10.5 -35t-30.5 -41l-205 -212h-58zM502 1079l144 273q24 44 45.5 63t46.5 19q28 0 48 -20t20 -47q0 -16 -10.5 -35t-30.5 -41l-205 -212h-58z" />
    <glyph glyph-name="endash" unicode="&#x2013;" horiz-adv-x="1108" 
d="M56 419v120h996v-120h-996z" />
    <glyph glyph-name="emdash" unicode="&#x2014;" horiz-adv-x="2048" 
d="M0 419v120h2048v-120h-2048z" />
    <glyph glyph-name="quoteleft" unicode="&#x2018;" horiz-adv-x="557" 
d="M319 1016q-44 0 -88.5 65.5t-44.5 151.5q0 109 71 226.5t139 117.5v-43q-73 -43 -87 -190q0 -119 129 -161v-42z" />
    <glyph glyph-name="quoteright" unicode="&#x2019;" horiz-adv-x="557" 
d="M238 1577q44 0 88.5 -65.5t44.5 -151.5q0 -109 -71 -226.5t-139 -117.5v43q73 43 87 190q0 119 -129 161v42z" />
    <glyph glyph-name="quotesinglbase" unicode="&#x201a;" horiz-adv-x="557" 
d="M238 281q44 0 88.5 -65.5t44.5 -151.5q0 -109 -71 -226.5t-139 -117.5v43q73 43 87 190q0 119 -129 161v42z" />
    <glyph glyph-name="quotedblleft" unicode="&#x201c;" horiz-adv-x="910" 
d="M319 1016q-44 0 -88.5 65.5t-44.5 151.5q0 109 71 226.5t139 117.5v-43q-73 -43 -87 -190q0 -119 129 -161v-42zM672 1016q-44 0 -88.5 65.5t-44.5 151.5q0 109 71 226.5t139 117.5v-43q-73 -43 -87 -190q0 -119 129 -161v-42z" />
    <glyph glyph-name="quotedblright" unicode="&#x201d;" horiz-adv-x="910" 
d="M238 1577q44 0 88.5 -65.5t44.5 -151.5q0 -109 -71 -226.5t-139 -117.5v43q73 43 87 190q0 119 -129 161v42zM591 1577q44 0 88.5 -65.5t44.5 -151.5q0 -109 -71 -226.5t-139 -117.5v43q73 43 87 190q0 119 -129 161v42z" />
    <glyph glyph-name="quotedblbase" unicode="&#x201e;" horiz-adv-x="910" 
d="M238 281q44 0 88.5 -65.5t44.5 -151.5q0 -109 -71 -226.5t-139 -117.5v43q73 43 87 190q0 119 -129 161v42zM591 281q44 0 88.5 -65.5t44.5 -151.5q0 -109 -71 -226.5t-139 -117.5v43q73 43 87 190q0 119 -129 161v42z" />
    <glyph glyph-name="logo" unicode="&#x2020;" horiz-adv-x="2797" 
d="M90 647h2611v-504h-2611v504zM1364 806l-45 -26t-49.5 -25.5t-50.5 -19.5t-49 -8q-31 0 -55.5 20.5t-43.5 65.5l-30 -20.5t-25.5 -15.5t-25.5 -12l-30 -11q-18 -6 -32 -6q-17 0 -33 11.5t-16 33.5q0 7 2.5 15t6.5 17q18 40 49 76.5t68.5 64t77.5 44t76 16.5q27 0 48 -16
t21 -52q0 -14 -9.5 -30.5t-27.5 -36.5q-20 -20 -35 -44.5t-15 -46.5q0 -15 9 -21.5t23 -6.5q21 0 49.5 10t56.5 23t51.5 25.5t33.5 18.5q8 37 32.5 68.5t55.5 54.5t63.5 36.5t57.5 13.5q14 0 20 -5t6 -13q0 -10 -11 -20.5t-30 -12.5q-19 -7 -44 -19t-47.5 -30t-38 -41
t-15.5 -52q0 -32 16.5 -45t42.5 -13t59 10t64.5 23.5t58 27.5t41.5 21q0 36 19 71t48.5 62.5t66.5 44t73 16.5q22 0 36.5 -4.5t22 -11t10.5 -15t3 -15.5q0 -26 -29 -52t-67 -49t-74.5 -40.5l-52.5 -25.5q16 -23 41 -33.5t57 -10.5q30 0 64.5 8.5t70 23.5t70 35.5t64.5 43.5
q19 14 38 32t40 33q4 3 13 8l19.5 10.5t21.5 9t20 3.5q15 0 15 -13q0 -5 -4 -16.5t-10 -22.5q-16 -45 -25.5 -75t-11.5 -47q0 -5 6 -5q7 0 20 6.5t29.5 16t34 22t32.5 24.5q4 2 23 15t43 27.5t48 26.5t38 12q12 0 12 -12q-3 -29 -3 -57q0 -12 1 -24.5t4.5 -22t10 -15.5
t17.5 -6q17 0 31 5.5t27 13.5t25.5 18t27.5 19l8 -21q-12 -9 -30 -25t-38.5 -31.5t-42.5 -27t-42 -11.5q-15 0 -25 6t-15 15t-7 19t-2 19t1 18.5t1 17.5q0 11 -3.5 21t-14.5 10q-10 0 -27.5 -9.5t-38.5 -24l-45 -31t-48 -31t-46 -24.5t-40 -10q-11 2 -22 8t-11 19
q0 23 4.5 44.5t18.5 62.5q-1 0 -15 -10q-16 -11 -43.5 -28t-64 -37t-77 -37.5t-83 -29t-82.5 -11.5q-41 0 -76.5 16.5t-49.5 46.5q-19 -8 -47.5 -22t-62 -27.5t-68.5 -23t-66 -9.5q-35 0 -61.5 16.5t-35.5 60.5zM524 1215q8 37 25.5 64t46.5 27q10 0 19.5 -3.5t9.5 -17.5
q0 -9 -8 -24.5t-17 -28.5l-97 -192q105 5 209 36t189 97q35 31 61.5 43.5t43.5 12.5q25 0 25 -21q0 -19 -23 -47.5t-73 -54.5q-33 -34 -63 -72t-54 -82t-40 -96t-20 -115q0 -19 -15 -19q-12 0 -18 13.5t-6 45.5q0 73 22.5 140.5t56.5 124.5q-76 -25 -155 -36.5t-161 -11.5
l-80 -160q-15 -31 -39 -54t-56 -23q-24 0 -50 18.5t-47 49t-35 68.5t-14 77q0 34 16.5 56.5t54.5 22.5q6 0 12 -0.5t13 -1.5l92.5 -10t94.5 -5zM1103 185h91v320l318 -320h109v421h-91v-320l-313 320h-114v-421zM1709 185h430v76h-331v108h299v75h-299v87h322v75h-421v-421z
M2202 606v-77h183v-344h89v344h183v77h-455zM427 1000q-108 3 -214 21q-13 -10 -13 -35q0 -23 9.5 -52.5t25.5 -56t36 -45t40 -18.5q15 0 29 12t26 40zM1183 979q-5 1 -10 1h-10q-36 0 -70.5 -17t-65 -43.5t-56 -58.5t-43.5 -61q41 0 77.5 16.5t68.5 42t59 57.5t50 63z
M880 310v-125h126v125h-126zM1914 1011q-50 -5 -99 -38t-78 -99q40 17 73.5 34t58.5 33t39 30t14 25q0 10 -8 15z" />
    <glyph glyph-name="daggerdbl" unicode="&#x2021;" 
d="M503 455q26 0 42 16.5t16 38.5q0 24 -16 41t-42 17q-22 0 -38 -17t-16 -41q0 -22 16 -38.5t38 -16.5zM532 622q7 0 17 -5t19 -9q34 41 67 93l62 100q7 10 19 24.5t29 22.5q13 5 27 5h10q20 -3 41 -24q20 -20 22 -39v-8q0 -16 -6 -30q-8 -18 -21.5 -30.5t-23.5 -19.5
l-97 -60.5t-95 -68.5q8 -9 10.5 -17.5t6.5 -20.5q54 7 113.5 20l110.5 25q14 1 34 2h5q16 0 31 -5q17 -6 30.5 -21.5t13.5 -45.5q0 -29 -13.5 -44.5t-30.5 -21.5t-36 -6q-20 0 -34 2q-51 14 -110.5 26.5t-113.5 19.5q-4 -12 -6.5 -21.5t-10.5 -15.5q44 -38 95 -69.5
l97 -58.5l23.5 -23t22.5 -29q6 -12 6 -27v-8q-3 -20 -23 -40q-21 -22 -41 -25q-5 -1 -10 -1q-14 0 -27 7q-17 8 -29 22t-19 26l-62 95.5t-67 96.5q-9 -7 -19 -11.5t-17 -5.5q2 -56 15.5 -115l25.5 -113q3 -12 4 -30v-5q0 -16 -6 -31q-7 -17 -22 -30t-46 -13q-29 0 -43.5 13
t-20.5 30q-5 15 -5 30v6q1 18 3 30l24.5 113t19.5 115q-19 3 -41 17q-34 -46 -66 -96.5l-63 -95.5q-7 -12 -19.5 -26t-28.5 -22q-13 -7 -26 -7q-5 0 -10 1q-20 3 -40 25q-20 20 -23 40q-1 5 -1 10q0 13 6 25q8 16 22.5 29t24.5 23l96 58.5t94 69.5q-10 15 -15 37
q-54 -7 -114.5 -19.5t-111.5 -26.5q-12 -2 -30 -2q-19 0 -37 6t-30 21.5t-12 44.5q0 30 12 45.5t30 21.5q15 5 31 5h6q18 -1 30 -2l111.5 -25t114.5 -20q3 12 6.5 20.5t8.5 17.5q-42 37 -94 68.5l-96 60.5q-10 7 -24.5 19.5t-22.5 30.5q-6 13 -6 27q0 5 1 11q3 19 23 39
q20 21 40 24h9q14 0 27 -5q17 -8 29 -22.5t19 -24.5l63 -100t66 -93q12 4 21.5 9t19.5 5q-7 58 -19.5 116.5l-24.5 113.5q-2 11 -3 30v5q0 17 5 32q6 18 20.5 29.5t43.5 11.5q31 0 46 -11.5t22 -29.5q6 -16 6 -32v-5q-1 -19 -4 -30l-25.5 -113.5t-15.5 -116.5z" />
    <glyph glyph-name="bullet" unicode="&#x2022;" horiz-adv-x="1024" 
d="M216 448q0 123 87 209t210 86q122 0 208.5 -86.5t86.5 -208.5t-87.5 -209.5t-209.5 -87.5q-123 0 -209 87t-86 210z" />
    <glyph glyph-name="ellipsis" unicode="&#x2026;" horiz-adv-x="2048" 
d="M145 167l82 84q15 14 29 14q13 0 31 -16l80 -86q12 -16 12 -29q0 -15 -14 -31l-80 -88q-20 -20 -29 -20q-16 0 -29 14l-88 101q-10 13 -10 26q0 15 16 31zM828 167l82 84q15 14 29 14q13 0 31 -16l80 -86q12 -16 12 -29q0 -15 -14 -31l-80 -88q-20 -20 -29 -20
q-16 0 -29 14l-88 101q-10 13 -10 26q0 15 16 31zM1511 167l82 84q15 14 29 14q13 0 31 -16l80 -86q12 -16 12 -29q0 -15 -14 -31l-80 -88q-20 -20 -29 -20q-16 0 -29 14l-88 101q-10 13 -10 26q0 15 16 31z" />
    <glyph glyph-name="guilsinglleft" unicode="&#x2039;" horiz-adv-x="631" 
d="M174 479l342 303h14v-37l-205 -266l205 -266v-37h-14z" />
    <glyph glyph-name="guilsinglright" unicode="&#x203a;" horiz-adv-x="631" 
d="M115 176h-14v37l205 266l-205 266v37h14l342 -303z" />
    <glyph glyph-name="fraction" unicode="&#x2044;" horiz-adv-x="342" 
d="M-342 -29l940 1461h84l-938 -1461h-86z" />
    <glyph glyph-name="fraction" unicode="&#x2215;" horiz-adv-x="342" 
d="M-342 -29l940 1461h84l-938 -1461h-86z" />
    <glyph glyph-name="franc" unicode="&#x20a3;" 
d="M247 357h-194v60h194v732q0 235 -103 235h-96v50h915l103 -231h-49q-59 182 -190 182l-316 -1q-102 0 -102 -235v-352h361q100 0 100 63v58h50v-342h-50v60q0 62 -100 62h-361v-281h194v-60h-194v-72q0 -235 102 -235h97v-50h-560v50h96q103 0 103 235v72z" />
    <glyph glyph-name="lira" unicode="&#x20a4;" 
d="M748 1347q-72 31 -160 31h-2q-100 0 -190 -101q-84 -93 -84 -241q0 -15 1 -30q0 -106 33 -213h380v-60h-360q12 -30 26 -60h352v-60h-321q35 -63 35 -138q0 -161 -162 -375h402q130 0 189 132l49 -1l-103 -231h-719l1 50q187 238 187 418q0 77 -34 143l-2 2h-172v60h143
l-26 60h-135v60h113q-36 107 -36 193q0 226 123.5 347t310.5 121q75 0 185.5 -14t110.5 -34v-161h-58q-5 61 -77 102z" />
    <glyph glyph-name="peseta" unicode="&#x20a7;" horiz-adv-x="2028" 
d="M409 1384v-662q3 -9 7 -17q41 -102 108 -153q57 -44 116 -44q10 0 19 1q68 8 127 75t87 177q22 87 22 179q0 24 -1 47q-7 116 -49.5 218.5t-108.5 144.5q-56 35 -112 35q-10 0 -21 -1h-194zM1496 908h-179v-685q0 -81 34 -119q28 -31 81 -37l-71 192l49 1
q55 -130 114 -174q57 -44 127 -44h7q92 0 151 52q59 53 59 136q0 102 -259 226q-101 52 -144 112t-43 145q0 121 73 194zM1039 910q-7 -101 -48 -194q-50 -114 -141 -177.5t-190 -63.5q-100 0 -191 64q-33 22 -60 51v-305q0 -235 102 -235h97v-50h-560v50h96q103 0 103 235
v864q0 235 -103 235h-96v50h618q92 -2 181 -62q91 -62 143 -177q50 -113 51 -237h10q216 0 216 355h50v-355h259q42 19 110 20h2q54 0 133.5 -13.5t79.5 -33.5v-159h-42q-4 66 -65.5 108t-133.5 42q-64 0 -102.5 -36.5t-38.5 -96.5q0 -108 235 -220q122 -55 167.5 -117.5
t45.5 -153.5q0 -140 -83 -231q-102 -84 -228 -86q-58 0 -105 11q-28 6 -56 6q-18 0 -36 -3q-28 -5 -59 -5q-124 0 -173.5 57t-57.5 176h-1v687h-129z" />
    <glyph glyph-name="Euro" unicode="&#x20ac;" 
d="M140 372q-62 135 -76 281h-108l17 60h87v29q0 16 1 31h-71l17 60h58q14 145 76 281q81 178 226 274t298 96q43 0 87 -8q40 -10 82 -29q8 -6 16 -6q20 0 34 45h41l84 -281l-40 -1q-49 134 -138 178q-43 22 -81 32v3q-50 16 -101 16q-17 0 -34 -2q-120 -12 -226 -113.5
t-157 -273.5q-32 -104 -39 -211h706l-17 -60h-692q0 -30 2 -60h674l-17 -60h-652q17 -158 83 -298q74 -157 193 -236q102 -68 216 -69q186 3 256 91q74 91 74 185h48v-143q0 -70 -111 -127q-105 -54 -267 -56q-181 0 -325.5 98t-223.5 274z" />
    <glyph glyph-name="trademark" unicode="&#x2122;" horiz-adv-x="2048" 
d="M764 1348h-260v-721h-150v721h-260v122h670v-122zM1382 850l238 620h229v-843h-149v686h-4l-264 -686h-103l-264 686h-4v-686h-150v843h230z" />
    <glyph glyph-name="partialdiff" unicode="&#x2202;" 
d="M232 537q0 -41 5 -79q14 -122 61.5 -230t118.5 -165q64 -53 128 -53q6 0 13 1q70 5 127.5 70.5t80.5 179.5q16 73 16 149q0 42 -5 85q-14 122 -62.5 231.5t-119.5 165.5q-65 50 -128 50h-11q-68 -5 -126 -69.5t-82 -178.5q-16 -84 -16 -157zM937 477q0 -132 -56.5 -251
t-159 -185t-214.5 -66t-214.5 66t-159 185t-56.5 251q0 131 58 251t161 185t211 65q109 0 212 -65q29 -18 54 -41q-84 235 -233.5 377t-326.5 155v55q306 0 515 -285t209 -697z" />
    <glyph glyph-name="Delta" unicode="&#x2206;" horiz-adv-x="1081" 
d="M514 1195l-406 -1072h801zM547 1434l526 -1434h-1067z" />
    <glyph glyph-name="product" unicode="&#x220f;" horiz-adv-x="1515" 
d="M511 1384q-102 0 -102 -235v-1281q0 -235 102 -235h97v-51h-560v51h96q103 0 103 235v1281q0 235 -103 235h-96v50h1419v-50h-97q-102 0 -102 -235v-1281q0 -235 102 -235h97v-50h-560v50h96q103 0 103 235v1281q0 235 -103 235h-492z" />
    <glyph glyph-name="summation" unicode="&#x2211;" horiz-adv-x="1206" 
d="M1059 548l-788 -914h635q130 0 189 182h49l-103 -232h-921v50q62 0 106 53l663 781l-663 859q-44 57 -106 57v50h921l103 -232h-49q-59 182 -189 182h-485z" />
    <glyph glyph-name="minus" unicode="&#x2212;" 
d="M87 647v140h839l1 -1v-139h-840z" />
    <glyph glyph-name="radical" unicode="&#x221a;" 
d="M181 0l-164 359l74 35l85 -185l728 1470h150v-60h-72z" />
    <glyph glyph-name="infinity" unicode="&#x221e;" 
d="M439 755q-15 103 -74 133q-46 22 -84 22q-12 0 -23 -2q-49 -10 -92.5 -44.5t-65.5 -84.5q-20 -46 -20 -90v-8q2 -48 27.5 -89t71.5 -58q29 -11 61 -11q16 0 33 3q47 10 90.5 43.5t75.5 185.5zM466 687q12 -96 94 -153q69 -48 123 -48q11 0 21 2q62 12 117.5 52t84.5 101
q26 54 26 108v11q-2 60 -35.5 108.5t-91.5 68.5q-37 13 -76 13q-22 0 -44 -4q-67 -9 -127 -62t-92 -197zM450 827q9 35 21 69q34 88 95 137t128 49t128 -48t95 -135t34 -182t-34 -182t-95 -135t-128 -48t-128 49t-95 136q-12 35 -21 70q-5 -21 -12 -41q-27 -73 -74 -113
t-99 -40t-100 41t-73.5 113.5t-25.5 149.5q0 76 25.5 149t73.5 114t100 41t99 -40t74 -112q7 -21 12 -42z" />
    <glyph glyph-name="integral" unicode="&#x222b;" horiz-adv-x="665" 
d="M-12 -281q-60 0 -60 29v159h36q1 -43 34.5 -64.5t63.5 -21.5h1q82 0 115 162q32 162 40 316l70 734l8 62q27 238 135 429.5t234 191.5q60 0 60 -29v-159h-36q-1 43 -35 64.5t-63 21.5q-71 0 -116 -155.5t-49 -363.5l-73 -767q-20 -231 -130.5 -420t-234.5 -189z" />
    <glyph glyph-name="approxequal" unicode="&#x2248;" 
d="M923 1053v-156q-63 -72 -122 -97.5t-116 -25.5q-60 0 -177.5 48.5t-176.5 48.5q-51 0 -107.5 -28t-129.5 -112v156q64 73 123 99t114 26q64 0 181.5 -49.5t172.5 -49.5q52 0 108.5 28t129.5 112zM923 705v-156q-63 -72 -122 -97.5t-116 -25.5q-60 0 -177.5 48.5
t-176.5 48.5q-51 0 -107.5 -28t-129.5 -112v156q64 73 123 99t114 26q64 0 181.5 -49.5t172.5 -49.5q52 0 108.5 28t129.5 112z" />
    <glyph glyph-name="lessequal" unicode="&#x2264;" 
d="M927 1074l-625 -359l625 -355v-167l-840 481v83l840 484v-167zM87 1v140h839l1 -1v-139h-840z" />
    <glyph glyph-name="greaterequal" unicode="&#x2265;" 
d="M87 1241l840 -484v-83l-840 -481v167l625 355l-625 359v167zM87 2v140h839l1 -1v-139h-840z" />
    <glyph glyph-name="afii57388" unicode="&#x60c;" horiz-adv-x="426" 
d="M229 643l41 -68q-79 -93 -79 -139l16 7q24 0 45.5 -9.5t38.5 -26t26 -38.5t9 -46q0 -25 -9 -47t-26 -37.5t-38.5 -25t-45.5 -9.5t-45.5 9.5t-38 25t-25.5 36.5q-18 31 -18 83q0 28 5 66q15 102 144 219z" />
    <glyph glyph-name="afii57403" unicode="&#x61b;" horiz-adv-x="434" 
d="M212 195q-49 0 -86 37q-34 38 -34 90t35 89q36 37 85 37h2q49 0 85 -37q35 -37 35 -89t-34 -90q-37 -37 -86 -37h-2zM236 953l41 -68q-79 -93 -79 -139l16 7q24 0 45.5 -9.5t38.5 -26t26 -38.5t9 -46q0 -25 -9 -47t-26 -37.5t-38.5 -25t-45.5 -9.5t-45.5 9.5t-38 25
t-25.5 36.5q-18 31 -18 83q0 28 5 66q15 102 144 219z" />
    <glyph glyph-name="afii57407" unicode="&#x61f;" horiz-adv-x="944" 
d="M502 195q-49 0 -86 37q-34 38 -34 90t35 89q36 37 85 37h2q49 0 85 -37q35 -37 35 -89t-34 -90q-37 -37 -86 -37h-2zM609 1178q-42 17 -96 17q-169 0 -225 -115q-19 -39 -19 -83q23 -166 242 -170h95v-270h-190v114q-213 29 -302 180q-34 69 -34 146t33 146
q48 97 146 153q107 62 254 62q95 0 175 -31q81 -32 156 -111l-153 -96q-40 43 -82 58z" />
    <glyph glyph-name="afii57440" unicode="&#x640;" horiz-adv-x="402" 
d="M437 326v-172h-492v172h492z" />
    <glyph glyph-name="afii57451" unicode="&#x64b;" horiz-adv-x="408" 
d="M389 1675l-340 -193l17 91l340 193zM403 1842l-340 -193l17 91l340 193z" />
    <glyph glyph-name="afii57452" unicode="&#x64c;" horiz-adv-x="469" 
d="M409 1632q-6 -14 -19.5 -33.5t-32 -40t-40.5 -39.5t-45.5 -31t-47.5 -15q-5 -1 -10 -1q-19 0 -36 9q-22 11 -24 32q-1 5 -1 11q0 15 4 31q5 21 11 42q2 8 2 15q0 10 -4 17q-7 10 -31 10h-4q-27 -1 -86 -20q19 27 44.5 43.5t50.5 22.5q11 2 22 2q13 0 25 -3q22 -7 34 -25
q11 -16 11 -42v-6q-2 -30 -24 -72q46 20 85.5 44t71.5 62q-41 10 -60.5 31.5t-21.5 47.5q-1 5 -1 10q0 21 9 43q10 27 29.5 49.5t44.5 36.5q22 12 45 12h4q21 -2 28 -24q7 -21 7 -48v-3q-1 -29 -6.5 -56t-8.5 -37l38 -12l-17 -76zM388 1793q-10 10 -23 10h-3q-12 0 -19 -8
q-9 -10 -9 -22q-1 -3 -1 -6q0 -7 4 -13q5 -8 14 -14t20.5 -11.5l24.5 -11.5q2 19 2 35q0 14 -2.5 26.5t-7.5 16.5v-2z" />
    <glyph glyph-name="afii57453" unicode="&#x64d;" horiz-adv-x="408" 
d="M405 -148l-340 -193l17 91l340 193zM378 -316l-340 -193l17 91l340 193z" />
    <glyph glyph-name="afii57454" unicode="&#x64e;" horiz-adv-x="408" 
d="M389 1675l-340 -193l17 91l340 193z" />
    <glyph glyph-name="afii57455" unicode="&#x64f;" horiz-adv-x="414" 
d="M366 1664q-11 -23 -37.5 -52.5t-62.5 -55t-78 -42.5q-39 -15 -77 -15h-9q-29 2 -47.5 3t-28.5 2t-12 2h-2q0 1 1 1l105.5 43t79 36t62.5 39.5t56 54.5q-47 11 -69 34t-25 51q-1 6 -1 12q0 22 10 46q12 29 33.5 53t49.5 39q26 13 52 13h4q16 -1 25 -12.5t13 -28.5
q2 -14 2 -30v-9q-1 -22 -3.5 -42t-6.5 -36.5t-7 -24.5l44 -13l-19 -80zM341 1841q-5 6 -12 8t-12 2h-5q-14 0 -22 -8q-10 -11 -11 -25v-4q0 -22 20 -33q22 -12 51 -23q2 20 2 38q0 15 -2 28.5t-9 18.5v-2z" />
    <glyph glyph-name="afii57456" unicode="&#x650;" horiz-adv-x="408" 
d="M395 -148l-340 -193l17 91l340 193z" />
    <glyph glyph-name="afii57457" unicode="&#x651;" horiz-adv-x="425" 
d="M398 1823q11 -17 17.5 -36t11.5 -38q4 -22 4 -44q0 -12 -1 -23q-3 -34 -15 -62t-33 -45.5t-51 -17.5q-25 0 -37.5 9t-27.5 23q-6 -10 -15 -23t-22 -25t-31 -21t-40 -11q-7 -1 -13 -1q-26 0 -43 11q-21 13 -31 35t-11 50q-1 8 -1 16q0 19 3 37q3 26 10 47.5t14 31.5
q0 -1 1 -1t4 2l11.5 9l11.5 9q3 1 4 1t1 -1q-8 -20 -13 -46q-4 -19 -4 -36q0 -7 1 -14q2 -24 14 -40q10 -15 34 -15h3q29 0 44.5 16t23.5 37.5t12.5 44.5t12.5 38q1 -1 2 -1t3 1q4 3 9 7.5t10 8.5q2 1 3 1q2 0 2 -1q-5 -17 -5 -33q0 -11 3 -21q5 -25 19 -40t36 -18h6
q19 0 40 14q6 8 6 20v2q-1 13 -5 26.5t-11 27t-14 23.5l24.5 34z" />
    <glyph glyph-name="afii57458" unicode="&#x652;" horiz-adv-x="328" 
d="M347 1696q1 -8 1 -17q0 -26 -11 -54q-15 -38 -41 -88v1q0 1 1 2l-3 -5q-24 -14 -61.5 -26.5t-73.5 -14.5q-6 -1 -12 -1q-29 0 -53 12q-29 13 -35 51q-2 12 -2 26q0 23 6 50q8 42 26.5 81t46 67t59.5 33q8 1 15 1q20 0 39 -7q26 -11 46.5 -29t34.5 -40.5t17 -41.5z
M283 1628q-3 14 -13.5 30t-25 29.5t-31.5 22.5q-13 6 -26 6q-4 0 -9 -1q-30 -5 -44 -27q-12 -18 -12 -37q0 -4 1 -8q3 -22 21 -32.5t42 -10.5q2 -1 3 -1q23 0 47 7q26 7 46 21zM296 1537q0 -1 -1 -1zM295 1536q0 -1 -1 -1q1 0 1 1z" />
    <glyph glyph-name="afii57392" unicode="&#x660;" horiz-adv-x="1149" 
d="M411 869q0 16 12 27.5t28 11.5h248q17 0 28 -11.5t11 -27.5v-247q0 -16 -11 -27.5t-28 -11.5h-248q-16 0 -28 11.5t-12 27.5v247z" />
    <glyph glyph-name="afii57393" unicode="&#x661;" horiz-adv-x="652" 
d="M213 1301q0 16 12 27.5t28 11.5h138q17 0 28 -11.5t11 -27.5v-1119q0 -16 -11 -27.5t-28 -11.5h-138q-16 0 -28 11.5t-12 27.5v1119z" />
    <glyph glyph-name="afii57394" unicode="&#x662;" horiz-adv-x="1149" 
d="M859 1126l-223 1q-51 -6 -91 -18t-65.5 -35t-34.5 -59q-4 -17 -4 -38q0 -24 5 -52l173 -753q0 -15 -10 -24t-25 -9h-158q-11 0 -18 9.5t-8 23.5l-169 659q-10 60 -10 112q0 28 3 53q8 73 33 129.5t65.5 96.5t90.5 65.5t107.5 38.5t116.5 14q6 0 24 0.5t42 1t50.5 1.5
t49.5 1.5t40 1t22 0.5q11 0 24 -2t23.5 -7t17.5 -13t7 -20v-137q0 -17 -12 -29t-28 -12h-38z" />
    <glyph glyph-name="afii57395" unicode="&#x663;" horiz-adv-x="1149" 
d="M691 990h139v310q0 17 11 28.5t27 11.5h139q16 0 27.5 -11.5t11.5 -28.5v-271q0 -136 -59 -195.5t-169 -59.5h-482v-592q0 -16 -11 -27.5t-28 -11.5h-138q-16 0 -28 11.5t-12 27.5v1119q0 16 12 27.5t28 11.5h138q17 0 28 -11.5t11 -27.5v-311h139v310q0 17 11 28.5
t27 11.5h139q16 0 27.5 -11.5t11.5 -28.5l-1 -304h1v-6z" />
    <glyph glyph-name="afii57396" unicode="&#x664;" horiz-adv-x="1149" 
d="M483 1129q-33 -20 -38 -46q-1 -7 -1 -14q0 -21 11 -45q15 -33 45.5 -70l67.5 -78h224q17 0 28.5 -11t11.5 -28v-138q0 -16 -11.5 -27.5t-28.5 -11.5l-240 -1q-39 -10 -69 -32t-49 -50.5t-26 -60.5q-4 -17 -4 -32q0 -16 4 -31q7 -30 29.5 -56t62.5 -41h388
q17 0 28.5 -11.5t11.5 -26.5v-138q0 -17 -11.5 -28.5t-28.5 -11.5h-394q-68 0 -127 30.5t-101.5 82t-63.5 119.5q-15 48 -15 98q0 21 3 42q8 73 51 147t129 139l-48.5 60.5t-42.5 58t-33.5 62.5t-21.5 74q0 67 21.5 121.5t58.5 92t86 58t104 20.5h394q17 0 28.5 -11.5
t11.5 -28.5v-138q0 -15 -11.5 -26.5t-28.5 -11.5h-405z" />
    <glyph glyph-name="afii57397" unicode="&#x665;" horiz-adv-x="1149" 
d="M404 141q-86 2 -145 35.5t-94 89.5t-49 129q-11 55 -11 116q0 19 2 40q4 82 24.5 168.5t53.5 168.5t77 154.5t94.5 127.5t106.5 88t114 34q58 -1 114 -34t106.5 -88t94.5 -127.5t77 -154.5t53.5 -168.5t25.5 -168.5q1 -21 1 -40q0 -61 -11 -116q-14 -73 -49 -129
t-94 -89.5t-145 -35.5h-346zM575 1058q-28 0 -59 -29q-33 -30 -65 -79t-60 -112t-46 -129t-24 -129q-2 -22 -2 -42q0 -38 8 -70q11 -50 43.5 -80.5t91.5 -30.5h230q59 0 91.5 30.5t44.5 80.5q7 32 7 70q0 20 -2 42q-6 63 -24 129t-46 129t-60 112t-65 79q-32 29 -59 29h-4z
" />
    <glyph glyph-name="afii57398" unicode="&#x666;" horiz-adv-x="1149" 
d="M206 1126q-16 0 -28 12t-12 29v137q0 12 7 20t17.5 13t23.5 7t24 2q5 0 22.5 -0.5t41.5 -1t51.5 -1.5t52 -1.5t43.5 -1t25 -0.5q93 -16 168 -57t128 -105.5t81.5 -151.5t28.5 -195l4 -659q-1 -14 -8 -23.5t-18 -9.5h-158q-15 0 -25 9t-10 24v753q-15 59 -44 96.5t-66 59
t-79 30.5t-84 12q-31 2 -61 2h-44q-24 0 -43 1h-38z" />
    <glyph glyph-name="afii57399" unicode="&#x667;" horiz-adv-x="1149" 
d="M524 494q27 -126 56 -126h1q28 1 54 129l180 804q1 16 12.5 27.5t28.5 11.5h139q16 0 27 -11q10 -11 10 -25v-3l-198 -896q-14 -57 -35.5 -101.5t-52.5 -76.5t-72 -51t-95 -26q-101 6 -163.5 69.5t-91.5 185.5l-99 448l-99 448v3q0 14 10 25q11 11 27 11h139
q17 0 28.5 -11.5t12.5 -27.5z" />
    <glyph glyph-name="afii57400" unicode="&#x668;" horiz-adv-x="1149" 
d="M343 189q-1 -16 -12.5 -27.5t-28.5 -11.5h-139q-16 0 -27 12q-10 10 -10 24v3l99 448l99 448q29 122 91.5 185.5t163.5 69.5q54 -7 95 -26t72 -51t52.5 -76.5t35.5 -101.5l198 -896v-3q0 -14 -10 -24q-11 -12 -27 -12h-139q-17 0 -28.5 11.5t-12.5 27.5l-180 804
q-26 127 -54 129h-1q-29 0 -56 -126z" />
    <glyph glyph-name="afii57401" unicode="&#x669;" horiz-adv-x="1149" 
d="M916 542h-2v-360q0 -16 -11 -27.5t-28 -11.5h-138q-16 0 -28 11.5t-12 27.5v292h-255q-111 0 -169.5 59.5t-58.5 195.5v357q0 135 58.5 194.5t169.5 59.5h247q111 0 169.5 -59.5t58.5 -194.5q0 -74 -0.5 -147.5t-0.5 -146.5v-250zM430 690h267v300q0 8 3 14v120h-270
v-434z" />
    <glyph glyph-name="afii57381" unicode="&#x66a;" horiz-adv-x="829" 
d="M679 1413l-105 -351l-101 -336l-101 -336l-106 -350l-83.5 -45l-82.5 -44l105 350.5l101.5 337l101.5 336.5l105 350zM133 1258q22 0 42 -8.5t35 -23t23.5 -34.5t8.5 -43t-8.5 -43t-23.5 -35t-35 -23.5t-42 -8.5t-42 8.5t-35 23.5t-24 35t-9 43t9 43t24 34.5t35 23
t42 8.5zM654 302q22 0 42 -8.5t35 -23.5t24 -35t9 -42q0 -23 -9 -42.5t-24 -34.5t-35 -23.5t-42 -8.5q-23 0 -42.5 8.5t-34.5 23.5t-23.5 34.5t-8.5 42.5q0 22 8.5 42t23.5 35t34.5 23.5t42.5 8.5z" />
    <glyph glyph-name="uniFE82" horiz-adv-x="615" 
d="M295 1350v-863q0 -73 49 -121q40 -40 90 -40h236v-172h-236q-153 0 -258 105q-96 96 -96 228v863h215zM383 1501v-77h-282v77h282z" />
    <glyph glyph-name="uniFE84" horiz-adv-x="615" 
d="M295 1350v-863q0 -73 49 -121q40 -40 90 -40h236v-172h-236q-153 0 -258 105q-96 96 -96 228v863h215zM158 1504q-17 28 -20 60v10q0 21 7 41q24 67 107 67q52 0 87 -27q31 -25 40 -68l-82 -10q-5 24 -18 35q-10 7 -27 7q-19 0 -27 -20q-4 -10 -4 -22q0 -4 1 -9
q1 -18 9 -33q14 -26 34 -31h130v-62h-284v62h47z" />
    <glyph glyph-name="uniFE88" horiz-adv-x="615" 
d="M295 1350v-863q0 -73 49 -121q40 -40 90 -40h236v-172h-236q-153 0 -258 105q-96 96 -96 228v863h215zM167 -85q-17 28 -20 60v10q0 21 7 41q24 67 107 67q52 0 87 -27q31 -25 40 -68l-82 -10q-5 24 -18 35q-10 7 -27 7q-19 0 -27 -20q-4 -10 -4 -22q0 -4 1 -9
q1 -18 9 -33q14 -26 34 -31h130v-62h-284v62h47z" />
    <glyph glyph-name="uniFE8B" horiz-adv-x="715" 
d="M635 970v-483q0 -132 -96 -228q-105 -105 -258 -105h-336v172h336q50 0 90 40q49 48 49 121v483h215zM274 1159q-23 38 -27 82q-1 9 -1 18q0 28 10 53q33 92 147 92q73 0 121 -38q43 -34 55 -93l-113 -14q-8 33 -25 48q-14 10 -38 10q-26 0 -37 -28q-4 -14 -4 -31v-12
q2 -24 13 -45q19 -36 47 -42h179v-86h-392v86h65z" />
    <glyph glyph-name="uniFE8E" horiz-adv-x="635" 
d="M295 1350v-863q0 -73 49 -121q40 -40 90 -40h236v-172h-236q-153 0 -258 105q-96 96 -96 228v863h215z" />
    <glyph glyph-name="uniFE91" horiz-adv-x="715" 
d="M187 -109q0 23 9 43t24 35t34.5 23.5t41.5 8.5t42 -8.5t35 -23.5t23.5 -35t8.5 -43t-8.5 -42.5t-23.5 -34t-35 -23t-42 -8.5t-41.5 8.5t-34.5 23t-24 34t-9 42.5zM635 970v-483q0 -132 -96 -228q-105 -105 -258 -105h-336v172h336q50 0 90 40q49 48 49 121v483h215z" />
    <glyph glyph-name="uniFE97" horiz-adv-x="715" 
d="M367 1231q0 23 9 43t24 35t35 23.5t43 8.5q22 0 41.5 -8.5t34 -23.5t23 -35t8.5 -43t-8.5 -42.5t-23 -34t-34 -23t-41.5 -8.5q-23 0 -43 8.5t-35 23t-24 34t-9 42.5zM106 1231q0 23 9 43t24 35t34.5 23.5t41.5 8.5t42 -8.5t35 -23.5t23.5 -35t8.5 -43t-8.5 -42.5
t-23.5 -34t-35 -23t-42 -8.5t-41.5 8.5t-34.5 23t-24 34t-9 42.5zM635 970v-483q0 -132 -96 -228q-105 -105 -258 -105h-336v172h336q50 0 90 40q49 48 49 121v483h215z" />
    <glyph glyph-name="uniFE9A" horiz-adv-x="1819" 
d="M891 1224q0 23 9 43t24 35t35 23.5t43 8.5q22 0 41.5 -8.5t34 -23.5t23 -35t8.5 -43t-8.5 -42.5t-23 -34t-34 -23t-41.5 -8.5q-23 0 -43 8.5t-35 23t-24 34t-9 42.5zM727 1482q0 23 9 43t24 35t34.5 23.5t41.5 8.5t42 -8.5t35 -23.5t23.5 -35t8.5 -43t-8.5 -42.5
t-23.5 -34t-35 -23t-42 -8.5t-41.5 8.5t-34.5 23t-24 34t-9 42.5zM562 1224q0 23 9 43t24 35t34.5 23.5t41.5 8.5t42 -8.5t35 -23.5t23.5 -35t8.5 -43t-8.5 -42.5t-23.5 -34t-35 -23t-42 -8.5t-41.5 8.5t-34.5 23t-24 34t-9 42.5zM581 154q-240 0 -377 145
q-124 133 -124 358q0 55 9 108q10 52 36 115l176 -50q-22 -53 -29 -91q-7 -37 -7 -82q0 -168 82 -254q73 -77 204 -77h652q81 0 130 50q56 58 56 166v428h216v-449q5 -92 55 -144q50 -51 127 -51h87v-172h-87q-183 0 -290 111q-108 -111 -294 -111h-622z" />
    <glyph glyph-name="uniFE9F" horiz-adv-x="1166" 
d="M90 944q26 41 60 73q68 66 162 100q93 33 203 33q309 0 434 -238q72 -138 110 -486q14 -121 23 -174q1 -6 1 -12q0 -32 -26 -56q-27 -25 -70 -29q-10 -1 -19 -1h-1023v172l910 -1q-2 13 -10 86q-32 282 -78 391q-75 176 -252 176q-64 0 -114 -18q-49 -17 -84 -51
q-20 -20 -35 -44q-17 -25 -34 -72l-209 43q26 68 51 108zM420 -109q0 23 9 43t24 35t34.5 23.5t41.5 8.5t42 -8.5t35 -23.5t23.5 -35t8.5 -43t-8.5 -42.5t-23.5 -34t-35 -23t-42 -8.5t-41.5 8.5t-34.5 23t-24 34t-9 42.5z" />
    <glyph glyph-name="uniFEA2" horiz-adv-x="1450" 
d="M1102 326q-3 23 -10 85q-32 282 -78 391q-75 176 -252 176q-64 0 -114 -18q-49 -17 -84 -51q-20 -20 -35 -44q-17 -25 -34 -72l-209 43q26 68 51 108q26 41 60 73q68 66 162 100q93 33 203 33q309 0 434 -238q72 -138 110 -486q8 -70 12 -100h167v-172h-932
q-114 0 -186 -70q-50 -49 -69 -121q-9 -36 -9 -70q0 -37 10 -72q28 -94 133 -152l-107 -139q-169 92 -215 252q-16 55 -16 111q0 52 14 104q29 113 112 195q137 134 353 134h529z" />
    <glyph glyph-name="uniFEA7" horiz-adv-x="1166" 
d="M90 944q26 41 60 73q68 66 162 100q93 33 203 33q309 0 434 -238q72 -138 110 -486q14 -121 23 -174q1 -6 1 -12q0 -32 -26 -56q-27 -25 -70 -29q-10 -1 -19 -1h-1023v172l910 -1q-2 13 -10 86q-32 282 -78 391q-75 176 -252 176q-64 0 -114 -18q-49 -17 -84 -51
q-20 -20 -35 -44q-17 -25 -34 -72l-209 43q26 68 51 108zM381 1376q0 23 9 43t24 35t34.5 23.5t41.5 8.5t42 -8.5t35 -23.5t23.5 -35t8.5 -43t-8.5 -42.5t-23.5 -34t-35 -23t-42 -8.5t-41.5 8.5t-34.5 23t-24 34t-9 42.5z" />
    <glyph glyph-name="uniFEAE" horiz-adv-x="656" 
d="M589 154q-115 4 -177 40q-20 -106 -79 -217q-32 -61 -87 -126q-50 -60 -130 -134l-150 106q79 73 122 124q43 52 67 97q55 101 55 229q0 21 -2 44v653h215v-455q6 -87 55 -138q50 -51 127 -51h86v-172h-102z" />
    <glyph glyph-name="uniFEB4" horiz-adv-x="1838" 
d="M1873 326v-172h-87q-183 0 -290 111q-108 -111 -294 -111q-183 0 -290 111q-109 -111 -295 -111q-183 0 -290 111q-109 -111 -295 -111h-87v172h87q81 0 131 50q56 58 56 166v428h215v-428q0 -107 56 -165q50 -51 127 -51q81 0 130 50q57 58 57 166v428h215v-428
q0 -107 56 -165q50 -51 127 -51q81 0 130 50q56 58 56 166v428h216v-449q5 -92 55 -144q50 -51 127 -51h87z" />
    <glyph glyph-name="uniFEBA" horiz-adv-x="2625" 
d="M2064 326q122 0 200 81q84 86 84 239q0 168 -82 255q-73 77 -204 77h-555q-131 0 -204 -77q-82 -87 -82 -255v-320h843zM1175 154q-33 -90 -109 -168q-165 -169 -434 -169q-236 0 -401 172q-151 156 -151 406q0 68 10 130t38 136l176 -45q-23 -63 -30 -113
q-9 -51 -9 -108q0 -192 106 -301q102 -105 261 -105q164 0 265 103q106 109 106 303v296q-4 244 -60 327l176 106q38 -63 48 -112q92 136 340 138h555q240 0 377 -146q124 -132 124 -358q0 -211 -105 -320h202v-172h-1485z" />
    <glyph glyph-name="uniFEBF" horiz-adv-x="1800" 
d="M1221 326q122 0 200 81q84 86 84 239q0 168 -82 255q-73 77 -204 77h-555q-131 0 -204 -77q-82 -87 -82 -255v-320h843zM160 326v365q-4 244 -60 327l176 106q38 -63 48 -112q92 136 340 138h555q240 0 377 -146q124 -132 124 -358q0 -211 -129 -344q-141 -148 -370 -148
h-1276v172h215zM662 1330q0 23 9 43t24 35t34.5 23.5t41.5 8.5t42 -8.5t35 -23.5t23.5 -35t8.5 -43t-8.5 -42.5t-23.5 -34t-35 -23t-42 -8.5t-41.5 8.5t-34.5 23t-24 34t-9 42.5z" />
    <glyph glyph-name="uniFEC2" horiz-adv-x="1690" 
d="M1139 326q122 0 200 81q84 86 84 239q0 168 -82 255q-73 77 -204 77h-555q-131 0 -204 -77q-82 -87 -82 -255v-320h843zM81 154v40h-1v1156h215v-321q94 121 287 121h555q240 0 377 -146q124 -132 124 -358q0 -211 -129 -344l-1 -1l25 25h192v-172h-1644z" />
    <glyph glyph-name="uniFEC4" horiz-adv-x="1772" 
d="M1191 326q122 0 200 81q84 86 84 239q0 168 -82 255q-73 77 -204 77h-555q-131 0 -204 -77q-82 -87 -82 -255v-320h843zM-55 154v172h213l-26 26v998h215v-321q94 121 287 121h555q240 0 377 -146q124 -132 124 -358q0 -211 -129 -344l-1 -1l25 25h222v-172h-1862z" />
    <glyph glyph-name="uniFEC7" horiz-adv-x="1770" 
d="M1191 326q122 0 200 81q84 86 84 239q0 168 -82 255q-73 77 -204 77h-555q-131 0 -204 -77q-82 -87 -82 -255v-320h843zM-55 154v172h213l-26 26v998h215v-321q94 121 287 121h555q240 0 377 -146q124 -132 124 -358q0 -211 -129 -344q-141 -148 -370 -148h-1246z
M669 1334q0 23 9 43t24 35t34.5 23.5t41.5 8.5t42 -8.5t35 -23.5t23.5 -35t8.5 -43t-8.5 -42.5t-23.5 -34t-35 -23t-42 -8.5t-41.5 8.5t-34.5 23t-24 34t-9 42.5z" />
    <glyph glyph-name="uniFECA" horiz-adv-x="1360" 
d="M789 324q51 20 101 60q122 97 168 262q20 75 20 136q0 82 -37 130q-30 39 -87 55q-41 11 -93 11h-144q-52 0 -92 -11q-57 -16 -87 -55q-37 -48 -37 -130q0 -61 20 -136q46 -165 168 -262q50 -40 100 -60zM1113 326h282v-172h-842q-114 0 -186 -70q-50 -49 -69 -121
q-9 -36 -9 -70q0 -37 10 -72q28 -94 133 -152l-107 -139q-169 92 -215 252q-16 55 -16 111q0 52 14 104q29 113 112 195q119 116 251 128q-107 95 -160 290q-26 94 -26 172q0 131 69 220q71 92 201 127q74 21 162 21h144q89 0 163 -21q130 -36 200 -127q69 -89 69 -220
q0 -78 -26 -172q-52 -193 -154 -284z" />
    <glyph glyph-name="uniFECF" horiz-adv-x="1150" 
d="M156 326q-105 109 -105 320q0 226 124 358q138 146 377 146q110 0 204 -33q94 -34 161 -100q34 -32 60 -73q26 -40 51 -108l-209 -43q-17 47 -33 72q-15 24 -36 44q-35 34 -84 51q-49 18 -114 18q-131 0 -203 -77q-83 -87 -83 -255q0 -153 84 -239q78 -81 201 -81h519
v-172h-1125v172h211zM413 1327q0 23 9 43t24 35t34.5 23.5t41.5 8.5t42 -8.5t35 -23.5t23.5 -35t8.5 -43t-8.5 -42.5t-23.5 -34t-35 -23t-42 -8.5t-41.5 8.5t-34.5 23t-24 34t-9 42.5z" />
    <glyph glyph-name="uniFED4" horiz-adv-x="1092" 
d="M438 1327q0 23 9 43t24 35t34.5 23.5t41.5 8.5t42 -8.5t35 -23.5t23.5 -35t8.5 -43t-8.5 -42.5t-23.5 -34t-35 -23t-42 -8.5t-41.5 8.5t-34.5 23t-24 34t-9 42.5zM750 901q-72 77 -205 77q-131 0 -203 -77q-83 -87 -83 -255q0 -153 84 -239q78 -81 201 -81q127 0 204 79
q84 86 84 241q0 170 -82 255zM149 326q-105 109 -105 320q0 226 124 358q138 146 377 146q241 0 378 -145q124 -132 124 -359q0 -213 -104 -320h204v-172h-1202v172h204z" />
    <glyph glyph-name="uniFEDA" horiz-adv-x="1749" 
d="M581 154q-240 0 -377 145q-124 133 -124 358q0 55 9 108q10 52 36 115l176 -50q-22 -53 -29 -91q-7 -37 -7 -82q0 -168 82 -254q73 -77 204 -77h841v1024h215v-1024h177v-172h-1203zM676 808q-13 13 -42 72q-26 51 -26 102q0 8 1 16q3 63 48 112q72 78 211 78
q167 -8 249 -184l-164 -36q-30 84 -93 84q-16 0 -34 -5q-56 -17 -56 -64q0 -28 21 -68q54 -105 174 -107h156v-152h-546v152h101z" />
    <glyph glyph-name="uniFEDF" horiz-adv-x="575" 
d="M475 1350v-863q0 -132 -96 -228q-105 -105 -258 -105h-176v172h176q50 0 90 40q49 48 49 121v863h215z" />
    <glyph glyph-name="uniFEE4" horiz-adv-x="1227" 
d="M857 901q-72 77 -205 77q-131 0 -203 -77q-83 -87 -83 -255q0 -153 84 -239q78 -81 201 -81q127 0 204 79q84 86 84 241q0 170 -82 255zM651 154q-230 0 -364 141l-23 -24q-114 -117 -319 -117v172q101 0 150 50q56 58 56 166v104q0 226 124 358q138 146 377 146
q241 0 378 -145q124 -132 124 -359q0 -213 -104 -320h212v-172h-611z" />
    <glyph glyph-name="uniFEEA" horiz-adv-x="1154" 
d="M1189 154q-203 0 -317 118l-9 8q-50 -55 -146 -92q-83 -33 -175 -33q-17 0 -33 1q-111 7 -204 62q-225 129 -225 428q0 225 124 358q137 144 377 145h3q136 0 244 -48q157 -68 157 -197v-362q0 -107 56 -165q50 -51 148 -51v-172zM770 904q0 28 -46 48q-60 26 -140 26h-3
q-131 0 -204 -78q-82 -86 -82 -254q0 -211 137 -291q45 -25 95 -28q8 -1 16 -1q41 0 80 16q126 49 147 201v361z" />
    <glyph glyph-name="uniFEF0" horiz-adv-x="1595" 
d="M1630 154h-62q-110 0 -209 40q0 -48 -11 -89q-41 -158 -227 -234q-137 -56 -330 -57q-158 0 -278 32q-206 54 -320 182q-113 124 -113 299q0 70 9 129q8 63 33 134l209 -38q-21 -65 -28 -115q-8 -52 -8 -110q0 -118 73 -200q74 -81 213 -119q85 -22 199 -22h10
q141 0 231 38q96 38 117 116q6 25 6 54q0 92 -71 138q-45 28 -164 56l-30 5l56 165q95 -14 167 -40q63 -20 107 -45l70 -37q186 -110 289 -110h62v-172z" />
    <glyph glyph-name="uniFEF5" horiz-adv-x="1095" 
d="M350 326h311q56 0 97 46q42 48 42 115v863h215v-863q0 -138 -104 -236q-104 -97 -250 -97h-646v172q71 0 111 40q48 48 48 121v863h216v-863q0 -109 -40 -161zM476 1501v-77h-282v77h282z" />
    <glyph glyph-name="uniFEF9" horiz-adv-x="1095" 
d="M350 326h311q56 0 97 46q42 48 42 115v863h215v-863q0 -138 -104 -236q-104 -97 -250 -97h-646v172q71 0 111 40q48 48 48 121v863h216v-863q0 -109 -40 -161zM126 -126q-17 28 -20 60v10q0 21 7 41q24 67 107 67q52 0 87 -27q31 -25 40 -68l-82 -10q-5 24 -18 35
q-10 7 -27 7q-19 0 -27 -20q-4 -10 -4 -22q0 -4 1 -9q1 -18 9 -33q14 -26 34 -31h130v-62h-284v62h47z" />
    <glyph glyph-name="uniFDF2" horiz-adv-x="2367" 
d="M770 904q0 28 -46 48q-60 26 -140 26h-3q-131 0 -204 -78q-82 -86 -82 -254q0 -211 137 -291q45 -25 95 -28q8 -1 16 -1q41 0 80 16q126 49 147 201v361zM1169 154q-183 0 -297 118l-9 8q-50 -55 -146 -92q-83 -33 -175 -33q-17 0 -33 1q-111 7 -204 62
q-225 129 -225 428q0 225 124 358q137 144 377 145h3q136 0 244 -48q157 -68 157 -197v-362q0 -107 56 -165q50 -51 128 -51h124q50 0 90 40q49 48 49 121v783h215v-783q0 -73 49 -121q40 -40 90 -40h127q50 0 90 40q49 48 49 121v863h215v-863q0 -132 -96 -228
q-105 -105 -258 -105h-127q-153 0 -249 91q-91 -91 -244 -91h-124zM1589 1528q0 -32 17 -49q12 -13 29 -13q19 0 31 12q17 17 17 50v138h103v-138q0 -58 -37 -96q-43 -44 -114 -44q-58 0 -98 31q-39 -31 -98 -31q-71 0 -114 45q-36 37 -36 95v138h103v-138q0 -32 17 -49
q12 -13 30 -13t30 12q17 17 17 50v138h103v-138z" />
    <glyph glyph-name="uniFD3E" unicode="&#xfd3e;" horiz-adv-x="1251" 
d="M641 665q21 0 41 8.5t35.5 23t25 34t9.5 40.5t-9.5 40t-25 34t-35.5 24t-41 9t-41 -8.5t-35 -23t-24 -34t-9 -41.5t9 -41.5t24 -33.5t35 -22.5t41 -8.5zM662 1019h47v-59l125 131l-5 4l-135 -23q13 60 31.5 117t44.5 113v108q-120 -144 -166 -336l-143 33l98 -154h8v66
h49l41 70h5v-70zM770 1134l111 8h7q25 0 25 -19q0 -15 -24 -43l-139 -157q-11 -9 -11 -25q0 -20 25 -20q11 0 24 10l168 125q25 18 41 18q21 0 21 -28v-123q133 -47 133 -115q0 -56 -133 -109v-122q0 -39 -19 -39q-13 0 -30 14l-172 129q-24 16 -37 16q-23 0 -23 -22
q0 -15 25 -41l141 -158q10 -10 10 -26q0 -21 -28 -21h-9q-3 0 -8 2l-100 15v-21q0 -8 6 -30.5t19 -59.5q16 -50 43.5 -105.5t63.5 -113t79 -114t90 -107.5q51 -51 51 -68q0 -20 -18 -20q-36 0 -156 108q-119 107 -203 215q-110 141 -174 316l-151 -29h-10q-25 0 -25 20
q0 13 12 31l127 176q19 28 19 39q0 25 -25 25q-14 0 -45 -27l-145 -129q-27 -22 -41 -22q-27 0 -27 53v116q-26 9 -49.5 22t-42.5 28t-30 30.5t-11 28.5q0 48 133 113v131q0 37 27 37q8 0 15.5 -4.5t18.5 -12.5l162 -141q21 -16 35 -16q25 0 25 22q0 11 -11 25l-127 180
q-16 22 -16 39q0 20 29 20h8q3 0 8 -2l146 -22q35 85 69.5 152t69.5 118q69 100 190 215q82 77 131.5 115.5t69.5 38.5t20 -21q0 -17 -92 -115q-48 -54 -90.5 -115t-79.5 -130t-61 -133.5t-35 -124.5zM469 697h-94v46q-17 2 -33.5 8.5t-30.5 17.5q27 20 64 23v43h98v4
l-162 123v-121q-27 -7 -51.5 -16t-42.5 -18.5t-28.5 -19t-10.5 -18.5t11.5 -19.5t30 -21t42.5 -19t49 -14.5v-118l158 116v4zM711 577v-60h-47v-69h-5l-41 69h-49v66h-4l-102 -154l143 33q41 -184 166 -336v102q-22 53 -41.5 112.5t-36.5 125.5l137 -25l5 5zM901 839v-45
q20 -2 35.5 -9t28.5 -18q-14 -11 -29.5 -16.5t-34.5 -5.5v-43h-92l-6 -5l162 -118v116q25 6 49 15.5t42.5 20t30 20t11.5 16.5q0 9 -12 20.5t-31 22t-42.5 19t-47.5 12.5v119l-156 -117l2 -4h90z" />
    <glyph glyph-name="uniFD3F" unicode="&#xfd3f;" horiz-adv-x="1251" 
d="M610 665q22 0 41.5 8.5t34.5 23t24 34t9 40.5q0 22 -9 41.5t-24 34t-34.5 23t-41.5 8.5t-42 -8.5t-35 -23t-24 -34t-9 -41.5q0 -21 9 -40.5t24 -34t35 -23t42 -8.5zM590 1019v70h4l41 -70h49v-66h8l99 154l-144 -33q-8 40 -24 84t-37.5 88t-48 86t-56.5 78v-108
q19 -39 38.5 -96t39.5 -136l-137 25l-4 -4l125 -131v59h47zM233 880v123q0 28 21 28q8 0 17.5 -4.5t23.5 -13.5l168 -125q13 -10 24 -10q25 0 25 20q0 15 -10 25l-140 157q-24 28 -24 45t25 17h8l102 -8q-6 96 -80 241q-37 73 -81.5 138.5t-98.5 123.5q-87 98 -90 111v2
q0 23 20 23q26 0 146 -105q154 -136 225 -237q37 -51 76.5 -125.5t83.5 -171.5l145 22q5 2 8 2h9q26 0 26 -22q0 -17 -14 -37l-127 -180q-10 -15 -10 -25q0 -22 22 -22q18 0 37 16l162 141q20 17 35 17q26 0 26 -37v-131q133 -65 133 -113q0 -13 -11.5 -29t-30.5 -31.5
t-42.5 -28.5t-48.5 -20v-116q0 -53 -26 -53q-16 0 -41 22l-146 129q-27 27 -49 27q-20 0 -20 -25q0 -14 18 -39l127 -176q12 -18 12 -33q0 -18 -24 -18h-10l-152 29q-37 -88 -74 -159.5t-76 -125.5q-38 -54 -91.5 -112.5t-123.5 -121.5q-134 -120 -167 -120q-19 0 -19 20
q0 15 88 113q111 120 182 262q38 69 57.5 130t22.5 114l-98 -15q-5 -2 -9 -2h-9q-27 0 -27 21q0 13 10 26l141 158q23 28 23 45q0 16 -20 16q-22 0 -37 -12l-172 -131q-21 -14 -31 -14q-19 0 -19 39v122q-133 53 -133 109q0 68 133 115zM782 697v-4l158 -116v118
q22 3 45.5 12t43 19.5t32 22t12.5 20.5q0 7 -11 17t-30 20t-43 19.5t-49 15.5v121l-162 -123v-4h99v-43q11 -2 27 -7t36 -16q-14 -11 -30 -17.5t-33 -8.5v-46h-95zM541 517v60l-125 -131l4 -5l137 25q-20 -74 -39 -131.5t-39 -99.5v-109q30 36 56.5 77.5t48 85.5t37.5 88
t24 85l143 -33l-102 154h-4v-66h-49l-41 -69h-4v69h-47zM350 794v45h90l2 4l-155 117v-119q-24 -4 -48 -12.5t-42.5 -19t-30.5 -22t-12 -20.5q0 -7 11 -16.5t30 -20t42.5 -20t49.5 -15.5v-116l162 118l-7 5h-92v43q-22 0 -63 22q14 11 29.5 18t33.5 9z" />
    <glyph glyph-name="uniF0CD" unicode="&#xf0cd;" horiz-adv-x="1082" 
d="M549 98l-198 219l198 199l201 -199zM1025 581l-214 -205l-198 205l198 198zM549 1056l196 -215l-196 -198l-198 198zM74 581l212 198l198 -198l-198 -198z" />
    <glyph glyph-name="uniF0CE" unicode="&#xf0ce;" horiz-adv-x="1024" 
d="M509 1094l456 -457l-456 -456l-457 456zM128 637l381 -380l380 380l-380 381zM509 855l217 -218l-217 -217l-217 217z" />
    <glyph glyph-name="uniF0CF" unicode="&#xf0cf;" horiz-adv-x="983" 
d="M253 1047h454l227 -393l-227 -394h-454l-227 394l113 196zM298 968l-182 -314l182 -315h364l181 315l-181 314h-364zM361 859h238l118 -205l-118 -206h-238l-118 206l59 103z" />
    <glyph glyph-name="uniF0D0" unicode="&#xf0d0;" horiz-adv-x="901" 
d="M450 1043l402 -291l-153 -473h-497l-154 473l201 145zM592 430l141 103l-108 333h-350l-108 -333l283 -205zM528 727l79 -56l-60 -184h-193l-60 184l156 113z" />
    <glyph glyph-name="uniF06E" unicode="&#xf06e;" horiz-adv-x="774" 
d="M77 979h675v-675h-675v675z" />
    <glyph glyph-name="uniF0D4" unicode="&#xf0d4;" horiz-adv-x="1233" 
d="M620 1212l122 -426l443 16l3 -8l-367 -247l152 -417l-7 -4l-350 272l-347 -274l-7 5l150 418l-367 247l2 7l443 -15l122 426h8z" />
    <glyph glyph-name="uniF0D3" unicode="&#xf0d3;" horiz-adv-x="1139" 
d="M653 686q90 280 211 280q37 0 60.5 -24.5t23.5 -59.5q0 -121 -280 -211zM668 503q280 -89 280 -210q0 -36 -24.5 -60t-59.5 -24q-121 0 -211 280zM485 489q-89 -280 -211 -280q-35 0 -59.5 24t-24.5 62q0 119 281 208zM471 671q-140 45 -210.5 97t-70.5 114q0 38 24.5 61
t61.5 23q120 0 209 -280zM698 604l33 14q148 62 211 62q57 0 92 -25.5t35 -67.5q0 -92 -121 -92q-62 0 -190 64l-25.5 11.5t-34.5 14.5v19zM580 458q82 -161 82 -245q0 -125 -93 -125q-92 0 -92 125q0 84 82 245h21zM440 577q-161 -82 -245 -82q-125 0 -125 92q0 93 125 93
q84 0 245 -82v-21zM559 716q-82 163 -82 248q0 123 92 123q93 0 93 -123q0 -85 -82 -248h-21zM477 589q0 19 7.5 35.5t20 29t29.5 19.5t35 7q39 0 66 -27t27 -66q0 -18 -7 -35t-20 -29.5t-30 -20t-36 -7.5t-36 7.5t-29.5 20.5t-19.5 30t-7 36z" />
    <glyph glyph-name="A" unicode="A" horiz-adv-x="1188" 
d="M517 1449h190l467 -1297h-196l-130 386h-499l-140 -386h-192zM606 1255l-200 -569h388z" />
    <glyph glyph-name="B" unicode="B" horiz-adv-x="1188" 
d="M132 1448h563q82 0 149 -23.5t114 -66t72.5 -103t25.5 -134.5q0 -95 -44 -163t-126 -109q65 -26 109.5 -57t71.5 -69.5t38.5 -85t11.5 -103.5q0 -87 -31.5 -157.5t-88.5 -121t-137.5 -78t-177.5 -27.5h-550v1298zM304 301h369q135 0 203 62t68 174q0 110 -75 164.5
t-224 54.5h-341v-455zM304 899h313q139 0 203 50t64 160q0 94 -62.5 141.5t-202.5 47.5h-315v-399z" />
    <glyph glyph-name="C" unicode="C" horiz-adv-x="1286" 
d="M1212 1044h-184q-9 36 -16.5 61t-17.5 44t-23.5 35.5t-33.5 36.5q-96 90 -264 90q-98 0 -175.5 -34.5t-131.5 -100.5t-82.5 -162t-28.5 -218q0 -116 27 -209.5t79 -159t127 -101t170 -35.5q152 0 248.5 88.5t121.5 253.5h184q-26 -173 -111 -291q-158 -215 -438 -215
q-139 0 -249.5 46t-188 131.5t-118.5 207.5t-41 274q0 364 205 544q45 39 90.5 66.5t91.5 45.5q90 34 215 34q115 0 211.5 -30t167 -86t113.5 -136t52 -180z" />
    <glyph glyph-name="D" unicode="D" horiz-adv-x="1286" 
d="M157 1449h438q164 0 247 -18t156 -73q226 -171 226 -543q0 -221 -84 -387t-229 -232q-27 -12 -57 -20t-66 -13.5t-79.5 -8t-97.5 -2.5h-454v1297zM337 1287v-972h262q182 0 265 58q173 119 173 445q0 163 -54.5 275t-157.5 160q-69 34 -232 34h-256z" />
    <glyph glyph-name="E" unicode="E" horiz-adv-x="1188" 
d="M157 1449h935v-162h-755v-382h698v-163h-698v-427h764v-163h-944v1297z" />
    <glyph glyph-name="F" unicode="F" horiz-adv-x="1188" 
d="M157 1449h935v-162h-755v-382h698v-163h-698v-590h-180v1297z" />
    <glyph glyph-name="G" unicode="G" horiz-adv-x="1386" 
d="M1219 1048h-184q-10 35 -19 59.5t-19.5 44t-23.5 36.5t-31 35q-89 88 -262 88q-102 0 -181 -35t-134 -101t-83.5 -161.5t-28.5 -217.5q0 -117 29 -210.5t83.5 -159t133.5 -100.5t180 -35q66 0 125.5 17.5t108 50.5t84.5 81t56 110q18 55 18 152h-405v148h567v-690h-114
l-43 158q-88 -102 -185 -147q-96 -44 -226 -44q-137 0 -247.5 47.5t-188.5 134.5t-120.5 209.5t-42.5 272.5q0 157 43.5 283.5t124.5 215.5t195 137.5t255 48.5q270 0 410 -158q26 -30 45.5 -58.5t32.5 -57.5t25 -67.5t22 -86.5z" />
    <glyph glyph-name="H" unicode="H" horiz-adv-x="1286" 
d="M157 1449h180v-531h615v531h182v-1297h-182v602h-615v-602h-180v1297z" />
    <glyph glyph-name="I" unicode="I" horiz-adv-x="483" 
d="M157 1449h180v-1297h-180v1297z" />
    <glyph glyph-name="J" unicode="J" horiz-adv-x="891" 
d="M27 585h178q0 -53 1 -88.5t5 -59.5t11.5 -41.5t21.5 -34.5q48 -70 148 -70q31 0 59.5 9t51.5 27t39 44t22 60q9 43 9 131v889h182v-889q0 -202 -63 -293q-48 -69 -127.5 -105.5t-176.5 -36.5q-68 0 -127 18t-105 51t-76.5 79.5t-40.5 103.5q-12 64 -12 206z" />
    <glyph glyph-name="K" unicode="K" horiz-adv-x="1188" 
d="M157 1451h180v-631l613 631h240l-524 -529l522 -770h-215l-429 650l-207 -198v-452h-180v1299z" />
    <glyph glyph-name="L" unicode="L" horiz-adv-x="990" 
d="M157 1449h180v-1134h656v-163h-836v1297z" />
    <glyph glyph-name="M" unicode="M" horiz-adv-x="1466" 
d="M116 152v1296h219l406 -1077l394 1077h219v-1296h-159v1039l-379 -1039h-146l-396 1039v-1039h-158z" />
    <glyph glyph-name="N" unicode="N" horiz-adv-x="1286" 
d="M157 1449h201l594 -1019v1019h182v-1297h-204l-593 1028v-1028h-180v1297z" />
    <glyph glyph-name="O" unicode="O" horiz-adv-x="1386" 
d="M66 788q0 158 44 285t126 216.5t199 138t264 48.5q142 0 257.5 -46.5t197.5 -132.5t126 -208.5t44 -273.5q0 -145 -42 -270.5t-123 -218.5t-199 -146t-270 -53q-143 0 -258 46.5t-196.5 133t-125.5 208.5t-44 273zM255 793q0 -116 30.5 -209t87.5 -158t139.5 -100
t186.5 -35q103 0 184 35t137.5 102t86.5 164t30 221q0 118 -30 210.5t-86.5 156.5t-138 97.5t-183.5 33.5q-107 0 -189.5 -34.5t-139 -101t-86 -163t-29.5 -219.5z" />
    <glyph glyph-name="P" unicode="P" horiz-adv-x="1122" 
d="M137 150v1298h472q58 0 100.5 -2.5t74.5 -8.5t57.5 -15.5t49.5 -23.5q78 -42 120 -126.5t42 -198.5q0 -69 -17.5 -130t-52 -108.5t-85.5 -80t-117 -45.5q-62 -12 -205 -12h-265v-547h-174zM311 854h293q77 0 129 11.5t84 38t46 68t14 101.5q0 57 -14.5 98t-45.5 67.5
t-80.5 38.5t-119.5 12h-306v-435z" />
    <glyph glyph-name="Q" unicode="Q" horiz-adv-x="1356" 
d="M1033 208q-78 -42 -162 -61.5t-178 -19.5q-148 0 -265 45.5t-198.5 132t-125 210.5t-43.5 281t43.5 281t125 210.5t198.5 132t265 45.5q147 0 263.5 -46t197.5 -132.5t124.5 -210.5t43.5 -280q0 -155 -42.5 -277t-130.5 -222l160 -128l-88 -108zM887 324l-146 116l89 107
l177 -138q63 64 95.5 164t32.5 227q0 121 -30 216.5t-87 162t-139 101.5t-186 35t-186.5 -35t-140 -101.5t-88 -162t-30.5 -216.5t30.5 -217t87.5 -162.5t139.5 -101.5t187.5 -35q55 0 103 9.5t91 30.5z" />
    <glyph glyph-name="R" unicode="R" horiz-adv-x="1286" 
d="M157 1449h540q62 0 106.5 -1.5t78 -6.5t60 -13.5t52.5 -22.5q169 -91 169 -313q0 -57 -10.5 -101.5t-33 -80t-57 -63.5t-82.5 -51q48 -17 79.5 -38t50 -54t25.5 -82t7 -121v-150q0 -105 50 -187l9 -12h-214q-16 51 -23 97t-7 88v162q0 170 -124 196q-44 9 -147 9h-349
v-552h-180v1297zM337 1287v-419h340q50 0 82 1t54 4.5t38.5 9.5t34.5 17q90 49 90 177q0 66 -27 114.5t-78 71.5q-51 24 -179 24h-355z" />
    <glyph glyph-name="S" unicode="S" horiz-adv-x="1188" 
d="M80 585h187v-37q0 -36 3 -61.5t10.5 -45.5t21 -36t33.5 -32q92 -82 274 -82q71 0 129.5 14.5t100.5 41.5t65 65t23 85q0 26 -7 53.5t-24 52.5t-46 47t-73 38l-400 100q-133 48 -190.5 126t-57.5 191q0 83 33 151.5t93.5 117t146 75.5t191.5 27q83 0 156 -16t131.5 -46.5
t100 -74.5t62.5 -99q10 -26 15.5 -60.5t5.5 -79.5l3 -43h-188q0 31 -2 52.5t-6 38t-10 30t-14 28.5q-17 24 -43 43.5t-59.5 33t-73 21t-81.5 7.5q-58 0 -107.5 -13.5t-86 -39t-57 -62t-20.5 -83.5q0 -31 5.5 -54t21 -41t42.5 -33t70 -30l415 -106q239 -86 239 -317
q0 -80 -28.5 -153t-90 -129t-158.5 -89.5t-233 -33.5q-259 0 -390.5 105.5t-131.5 313.5v39z" />
    <glyph glyph-name="T" unicode="T" horiz-adv-x="1088" 
d="M29 1449h1038v-162h-431v-1135h-180v1135h-427v162z" />
    <glyph glyph-name="U" unicode="U" horiz-adv-x="1286" 
d="M139 1451h182v-809q0 -43 2.5 -77t9.5 -61.5t17.5 -50t27.5 -43.5q40 -55 112.5 -87t157.5 -32q70 0 129 20.5t102 63.5t66.5 107.5t23.5 153.5v815h182v-816q0 -105 -20 -179q-22 -79 -67.5 -140.5t-109 -103.5t-143 -63.5t-168.5 -21.5q-116 0 -209.5 30.5t-159 92.5
t-100.5 154.5t-35 217.5v829z" />
    <glyph glyph-name="V" unicode="V" horiz-adv-x="1088" 
d="M456 150l-456 1298h180l369 -1087l358 1087h181l-450 -1298h-182z" />
    <glyph glyph-name="W" unicode="W" horiz-adv-x="1682" 
d="M14 1449h193l196 -775l48 -260l24.5 115.5t14 65.5t10 40t12.5 39l231 775h185l230 -775q9 -23 16.5 -55.5l17.5 -74.5l30 -130l22.5 133t27.5 127l204 775h194l-355 -1297h-181l-301 1052l-295 -1052h-189z" />
    <glyph glyph-name="X" unicode="X" horiz-adv-x="1078" 
d="M0 150l440 665l-417 633h214l305 -480l310 480h202l-416 -630l440 -668h-214l-330 525l-322 -525h-212z" />
    <glyph glyph-name="Y" unicode="Y" horiz-adv-x="1188" 
d="M2 1449h226l376 -615l370 615h216l-498 -786v-511h-184v511z" />
    <glyph glyph-name="Z" unicode="Z" horiz-adv-x="1088" 
d="M43 310l783 977h-726v162h951v-157l-787 -977h787v-163h-1008v158z" />
    <glyph glyph-name="a" unicode="a" horiz-adv-x="990" 
d="M119 806q0 79 26.5 139t76 100.5t119.5 60.5t158 20q90 0 158 -15.5t113.5 -51t68.5 -92.5t23 -140v-453q0 -98 58 -98l47 4v-125q-18 -6 -32 -9.5t-25.5 -6t-21.5 -3t-22 -0.5q-133 0 -152 144q-138 -153 -326 -153q-69 0 -126 19.5t-97.5 56.5t-62.5 89t-22 118
q0 179 158 253q108 50 371 80l95 13v46q0 52 -13.5 86t-39.5 54.5t-64 29t-88 8.5q-101 0 -155.5 -43t-54.5 -131h-170zM702 628l-60.5 -9t-55.5 -8.5t-59.5 -10.5t-72.5 -15q-54 -13 -92 -27.5t-62 -33.5t-34.5 -44.5t-10.5 -60.5q0 -69 44.5 -107t125.5 -38q57 0 107.5 18
t88 48t59.5 70t22 85v133z" />
    <glyph glyph-name="b" unicode="b" horiz-adv-x="1059" 
d="M123 150v1298h155v-485q108 161 306 161q93 0 169.5 -36t131 -102.5t84.5 -159.5t30 -207q0 -112 -29 -204t-83 -157t-130.5 -101t-170.5 -36q-102 0 -175 36t-133 112v-119h-155zM272 628q0 -176 72 -271t207 -95q65 0 117 24t89 69t56.5 109t19.5 144q0 181 -73 277.5
t-208 96.5q-280 0 -280 -354z" />
    <glyph glyph-name="c" unicode="c" horiz-adv-x="891" 
d="M729 490h167q-12 -95 -46 -164t-85.5 -113.5t-117.5 -66t-141 -21.5q-105 0 -187 33t-138.5 95t-85.5 152.5t-29 205.5q0 123 29.5 219t85.5 161.5t137 100t185 34.5q83 0 151 -24t118.5 -69.5t82 -111.5t41.5 -149h-167q-45 206 -226 206q-126 0 -194.5 -89.5
t-68.5 -252.5q0 -176 67.5 -269.5t197.5 -93.5q169 0 224 217z" />
    <glyph glyph-name="d" unicode="d" horiz-adv-x="990" 
d="M713 1005v446h164v-1298h-156v121q-36 -43 -67 -71.5t-63 -45t-67.5 -23.5t-79.5 -7q-87 0 -156.5 34.5t-119 98t-76 153t-26.5 200.5q0 114 28 208.5t79 162.5t122.5 106t158.5 38q39 0 72 -6t63 -20.5t60 -38t64 -58.5zM483 274q117 0 178.5 90.5t61.5 263.5
q0 169 -61.5 259.5t-178.5 90.5q-118 0 -180.5 -89.5t-62.5 -260.5q0 -173 62.5 -263.5t180.5 -90.5z" />
    <glyph glyph-name="e" unicode="e" horiz-adv-x="990" 
d="M927 574h-689q0 -147 69.5 -223.5t197.5 -76.5q194 0 238 191h171q-18 -80 -55 -142.5t-90 -106t-121 -66.5t-149 -23q-101 0 -181 34.5t-136 99.5t-86 157.5t-30 209.5q0 116 33 208t92 156t141 98t180 34q92 0 168.5 -29t131.5 -87.5t85.5 -148t30.5 -210.5zM763 722
q0 60 -19 107.5t-52.5 80.5t-80.5 50.5t-103 17.5q-228 0 -264 -256h519z" />
    <glyph glyph-name="f" unicode="f" horiz-adv-x="471" 
d="M153 150v807h-153v125h153v137q0 232 211 232q16 0 41.5 -3t73.5 -10v-140q-25 4 -42 6t-27 2q-27 0 -46 -6.5t-30.5 -23t-17 -45t-5.5 -71.5v-78h168v-125h-168v-807h-158z" />
    <glyph glyph-name="g" unicode="g" horiz-adv-x="990" 
d="M713 975v127h162v-806q0 -122 -9 -192q-22 -173 -124 -257.5t-277 -84.5q-169 0 -257.5 70t-105.5 221h163q10 -39 25 -66t38.5 -44.5t55.5 -25t77 -7.5q73 0 120.5 22t74.5 66t37.5 110.5t10.5 155.5q-30 -36 -60.5 -62t-62.5 -42.5t-68 -24.5t-78 -8q-87 0 -155.5 33
t-116 95.5t-72.5 151.5t-25 202q0 120 25.5 216t74 162.5t118 102.5t156.5 36q173 0 273 -151zM240 628q0 -80 16.5 -145t47.5 -111.5t75 -72t99 -25.5q54 0 97 25t73.5 71.5t46.5 111.5t16 146q0 79 -16.5 144t-47 110.5t-73.5 70.5t-96 25q-55 0 -99 -25t-75 -70.5
t-47.5 -110.5t-16.5 -144z" />
    <glyph glyph-name="h" unicode="h" horiz-adv-x="992" 
d="M116 1449h164v-449q65 66 132 96t154 30q75 0 133 -18t97 -59.5t59 -108.5t20 -164v-624h-164v586q0 65 -10 111t-31.5 74.5t-55.5 41.5t-83 13q-42 0 -81 -13t-71.5 -37t-55.5 -59t-33 -78q-10 -44 -10 -135v-504h-164v1297z" />
    <glyph glyph-name="i" unicode="i" horiz-adv-x="395" 
d="M116 1102h164v-950h-164v950zM116 1449h164v-185h-164v185z" />
    <glyph glyph-name="j" unicode="j" horiz-adv-x="395" 
d="M-36 -78q45 -12 66 -12q26 0 42.5 6.5t26.5 24t13.5 47.5t3.5 78v1036h164v-1061q0 -148 -54.5 -213.5t-164.5 -65.5h-56q-14 2 -24 4t-17 3v153zM116 1449h164v-185h-164v185z" />
    <glyph glyph-name="k" unicode="k" horiz-adv-x="891" 
d="M117 1449h165v-734l388 387h217l-365 -352l371 -598h-198l-283 484l-130 -122v-362h-165v1297z" />
    <glyph glyph-name="l" unicode="l" horiz-adv-x="395" 
d="M116 1458h164v-1306h-164v1306z" />
    <glyph glyph-name="m" unicode="m" horiz-adv-x="1529" 
d="M1283 150v588q0 73 -9 121.5t-30 77.5t-54.5 40.5t-81.5 11.5q-117 0 -181 -71.5t-64 -202.5v-565h-163v588q0 73 -9.5 121.5t-30.5 77t-54 40.5t-81 12q-57 0 -102.5 -19t-77 -54t-48.5 -86t-17 -115v-565h-161v955h153v-135q54 81 126.5 120.5t172.5 39.5
q90 0 152.5 -36t108.5 -114q62 77 136 113.5t171 36.5q121 0 199 -55.5t97 -162.5q9 -51 9 -161v-601h-161z" />
    <glyph glyph-name="n" unicode="n" horiz-adv-x="990" 
d="M116 1102h164v-124q73 84 138 116q64 32 155 32q62 0 116.5 -18.5t95.5 -53.5t64.5 -86.5t23.5 -117.5l2 -93v-605h-164v574q0 132 -32 179q-48 73 -155 73q-145 0 -211 -121q-30 -46 -31 -117l-2 -90v-498h-164v950z" />
    <glyph glyph-name="o" unicode="o" horiz-adv-x="990" 
d="M66 628q0 118 29.5 210.5t85 156.5t135.5 97.5t181 33.5q100 0 180 -33.5t136 -97.5t85.5 -156.5t29.5 -210.5q0 -117 -29 -209.5t-84.5 -157.5t-135.5 -99.5t-182 -34.5q-101 0 -180.5 34.5t-135.5 99t-85.5 157.5t-29.5 210zM240 628q0 -82 17 -147.5t50 -111.5
t80.5 -70.5t109.5 -24.5q124 0 190 93t66 266q0 81 -17 145.5t-50 108.5t-80.5 67.5t-108.5 23.5q-124 0 -190.5 -91t-66.5 -259z" />
    <glyph glyph-name="p" unicode="p" horiz-adv-x="1059" 
d="M223 -222h-152v1304h152v-126q55 81 128.5 118.5t173.5 37.5q93 0 169 -35t129 -99.5t82 -155.5t29 -203q0 -113 -29 -205t-82 -157t-129 -100.5t-169 -35.5q-103 0 -180 38.5t-122 113.5v-495zM772 629q0 79 -19.5 142.5t-56 107.5t-88.5 68t-116 24q-131 0 -203 -92.5
t-72 -261.5q0 -173 70 -265.5t199 -92.5q138 0 212 95.5t74 274.5z" />
    <glyph glyph-name="q" unicode="q" horiz-adv-x="1059" 
d="M782 273q-45 -75 -121.5 -113.5t-181.5 -38.5q-93 0 -168.5 35.5t-128.5 100.5t-82 157t-29 205q0 112 29 203t82 155.5t128.5 99.5t168.5 35q100 0 173 -37.5t130 -118.5v126h152v-1304h-152v495zM233 629q0 -179 74 -274.5t212 -95.5q129 0 198.5 92.5t69.5 265.5
q0 169 -71.5 261.5t-202.5 92.5q-64 0 -116 -23.5t-88.5 -67.5t-56 -107.5t-19.5 -143.5z" />
    <glyph glyph-name="r" unicode="r" horiz-adv-x="592" 
d="M117 1102h165v-158q92 182 231 182h27q14 0 43 -7v-175l-52 5q-91 0 -154 -46.5t-83 -137.5q-10 -47 -10 -141v-472h-167v950z" />
    <glyph glyph-name="s" unicode="s" horiz-adv-x="891" 
d="M65 463h173q0 -28 1.5 -47.5t5 -34t11 -26t19.5 -23.5q57 -58 173 -58q93 0 149 37.5t56 100.5q0 30 -19.5 54t-73.5 48l-299 93q-165 75 -165 243q0 61 26 112t72.5 87.5t111.5 56.5t144 20q78 0 142 -19t110.5 -56.5t72 -94t25.5 -131.5h-167q0 44 -15.5 73.5t-42 47.5
t-61 26t-71.5 8t-69.5 -8.5t-57 -24t-39 -37t-14.5 -46.5q0 -78 82 -109l278 -86q51 -22 89 -44.5t63.5 -50t38.5 -61.5t13 -79q0 -66 -26.5 -122t-75.5 -97t-120 -64.5t-159 -23.5q-186 0 -283.5 85t-97.5 251z" />
    <glyph glyph-name="t" unicode="t" horiz-adv-x="525" 
d="M26 1102h125v233h163v-233h158v-138h-158v-576q0 -34 4.5 -56.5t16.5 -36t32 -19t51 -5.5l54 2v-139l-122 -7q-148 0 -183 107q-16 41 -16 166v564h-125v138z" />
    <glyph glyph-name="u" unicode="u" horiz-adv-x="990" 
d="M116 1102h164v-603q0 -68 11 -111.5t33.5 -68.5t57 -35t81.5 -10q40 0 78.5 13t70.5 38t55 61.5t33 83.5q11 53 11 149v483h164v-947h-152v146q-87 -174 -301 -174q-72 0 -129 18.5t-96 61t-60 111.5t-21 170v614z" />
    <glyph glyph-name="v" unicode="v" horiz-adv-x="857" 
d="M355 150l-353 955h172l267 -765l261 765h172l-349 -955h-170z" />
    <glyph glyph-name="w" unicode="w" horiz-adv-x="1286" 
d="M14 1102h180l139 -554l39 -186l10.5 54l8.5 43l8.5 41l10.5 48l144 554h182l141 -547q8 -28 15 -64l24 -120q4 24 5 35.5t4 26.5t10 41.5l22 80.5l146 547h172l-281 -950h-168l-183 731l-185 -731h-167z" />
    <glyph glyph-name="x" unicode="x" horiz-adv-x="869" 
d="M0 150l333 492l-317 463h188l235 -343l230 343h185l-321 -462l342 -493h-194l-250 369l-243 -369h-188z" />
    <glyph glyph-name="y" unicode="y" horiz-adv-x="891" 
d="M197 1102l255 -756l250 756h178l-383 -1057q-28 -84 -56.5 -139t-59.5 -88t-65 -46t-73 -13l-66 6q-23 0 -34.5 1.5t-17.5 4t-9.5 4.5t-10.5 3v153l18 -7q20 -8 41 -11t33 -3q31 0 52 8t39 31.5t35.5 67.5t40.5 116l-350 969h183z" />
    <glyph glyph-name="z" unicode="z" horiz-adv-x="891" 
d="M66 282l534 672h-491v148h705v-131l-536 -671h550v-148h-762v130z" />
    <glyph glyph-name="bracketleft" unicode="[" horiz-adv-x="631" 
d="M216 -207v1639h347v-122h-191v-1395h191v-122h-347z" />
    <glyph glyph-name="bracketright" unicode="]" horiz-adv-x="631" 
d="M415 1432v-1639h-347v122h190v1395h-190v122h347z" />
  </font>
</defs>
</svg>
